<mxfile host="app.diagrams.net" modified="2022-06-28T14:10:09.100Z" agent="5.0 (Macintosh; Intel Mac OS X 10_15_7) AppleWebKit/537.36 (KHTML, like Gecko) Chrome/102.0.0.0 Safari/537.36" etag="LE-klPoMC41m82lGSD7Z" version="20.0.1" type="github">
  <diagram id="t0ZL-oE_CtfBGrX07hep" name="Page-1">
    <mxGraphModel dx="2480" dy="903" grid="1" gridSize="10" guides="1" tooltips="1" connect="1" arrows="1" fold="1" page="1" pageScale="1" pageWidth="827" pageHeight="1169" math="0" shadow="0">
      <root>
        <mxCell id="0" />
        <mxCell id="1" parent="0" />
        <mxCell id="JgvuabAU2myaKvdRI82M-1" value="&lt;font style=&quot;vertical-align: inherit;&quot;&gt;&lt;font style=&quot;vertical-align: inherit;&quot;&gt;web&lt;/font&gt;&lt;/font&gt;" style="rounded=0;whiteSpace=wrap;html=1;" vertex="1" parent="1">
          <mxGeometry x="310" y="190" width="120" height="60" as="geometry" />
        </mxCell>
        <mxCell id="JgvuabAU2myaKvdRI82M-2" value="&lt;font style=&quot;vertical-align: inherit;&quot;&gt;&lt;font style=&quot;vertical-align: inherit;&quot;&gt;&lt;font style=&quot;vertical-align: inherit;&quot;&gt;&lt;font style=&quot;vertical-align: inherit;&quot;&gt;chat&lt;/font&gt;&lt;/font&gt;&lt;/font&gt;&lt;/font&gt;" style="rounded=0;whiteSpace=wrap;html=1;" vertex="1" parent="1">
          <mxGeometry x="590" y="190" width="120" height="60" as="geometry" />
        </mxCell>
        <mxCell id="JgvuabAU2myaKvdRI82M-4" value="" style="endArrow=none;dashed=1;html=1;rounded=0;entryX=0.5;entryY=1;entryDx=0;entryDy=0;strokeWidth=2;" edge="1" parent="1" target="JgvuabAU2myaKvdRI82M-1">
          <mxGeometry width="50" height="50" relative="1" as="geometry">
            <mxPoint x="370" y="1080" as="sourcePoint" />
            <mxPoint x="400" y="250" as="targetPoint" />
          </mxGeometry>
        </mxCell>
        <mxCell id="JgvuabAU2myaKvdRI82M-5" value="" style="endArrow=none;dashed=1;html=1;rounded=0;entryX=0.5;entryY=1;entryDx=0;entryDy=0;strokeWidth=2;" edge="1" parent="1">
          <mxGeometry width="50" height="50" relative="1" as="geometry">
            <mxPoint x="649.5" y="1080" as="sourcePoint" />
            <mxPoint x="649.5" y="250" as="targetPoint" />
          </mxGeometry>
        </mxCell>
        <mxCell id="JgvuabAU2myaKvdRI82M-7" value="" style="endArrow=classic;html=1;rounded=0;strokeWidth=2;" edge="1" parent="1">
          <mxGeometry width="50" height="50" relative="1" as="geometry">
            <mxPoint x="103.13" y="343.5" as="sourcePoint" />
            <mxPoint x="363.13" y="343.5" as="targetPoint" />
          </mxGeometry>
        </mxCell>
        <mxCell id="JgvuabAU2myaKvdRI82M-8" value="&lt;font style=&quot;vertical-align: inherit;&quot;&gt;&lt;font style=&quot;vertical-align: inherit;&quot;&gt;邀请用户进群&lt;/font&gt;&lt;/font&gt;" style="text;html=1;align=center;verticalAlign=middle;resizable=0;points=[];autosize=1;strokeColor=none;fillColor=none;" vertex="1" parent="1">
          <mxGeometry x="160" y="320" width="90" height="20" as="geometry" />
        </mxCell>
        <mxCell id="JgvuabAU2myaKvdRI82M-9" value="" style="endArrow=classic;html=1;rounded=0;strokeWidth=2;" edge="1" parent="1">
          <mxGeometry width="50" height="50" relative="1" as="geometry">
            <mxPoint x="650" y="400" as="sourcePoint" />
            <mxPoint x="100" y="400" as="targetPoint" />
          </mxGeometry>
        </mxCell>
        <mxCell id="JgvuabAU2myaKvdRI82M-11" value="" style="shape=image;verticalLabelPosition=bottom;labelBackgroundColor=default;verticalAlign=top;aspect=fixed;imageAspect=0;image=data:image/png,iVBORw0KGgoAAAANSUhEUgAAAiYAAABACAYAAAAu/LwoAAABRmlDQ1BJQ0MgUHJvZmlsZQAAKJFjYGASSSwoyGFhYGDIzSspCnJ3UoiIjFJgf8bAxiDDIMrAyGCYmFxc4BgQ4ANUwgCjUcG3a0B1QHBZF2SW78UJDQLKCctWP+n8c3rVdAlM9SiAKyW1OBlI/wHitOSCohIGBsYUIFu5vKQAxO4AskWKgI4CsueA2OkQ9gYQOwnCPgJWExLkDGTfALIFkjMSgWYwvgCydZKQxNOR2FB7QYDHx9VPIcTIvFDXyICAc0kHJakVJSDaOb+gsigzPaNEwREYSqkKnnnJejoKRgZGRgwMoDCHqP58AxyWjGIcCLECMQYGSxcGBubFCLEkKQaG7UD3S3IixFSWMzDwRzAwbGsoSCxKhDuA8RtLcZqxEYTNvZ2BgXXa//+fwxkY2DUZGP5e////9/b///8uA5p/i4HhwDcABkpfFEGwzfQAAAA4ZVhJZk1NACoAAAAIAAGHaQAEAAAAAQAAABoAAAAAAAKgAgAEAAAAAQAAAiagAwAEAAAAAQAAAEAAAAAAtJzrDwAAQABJREFUeAHt3dmTJcl1Hvis3vd9X9ANEAtBAiRBCqSkGbMxmWTzMC/zp47Ni8ZmbCQzSSZpSIgEyCaABtDd6EYvVb3v+1Lz/fzmlx15696b92ZlVWd3hVd5RoSH+/HjJ/x8fvy4R9wz5xP2EvYPTi8IZ86cuSCt+af3mjbNPL0/TV8+X1V2Oc9R19vWdRSd+f4sgVkCswRmCXwNJGD4WjE+fQ04n1ncIIGrNtxbe2tqRPS8x2mh2VCYSmM+nyUwS2CWwCyBtRJYzJHX3l55YzZKVorl6554YJgwIrYxJFYZIKvStqE1Fd629U/LzOezBGYJzBKYJTBLYJbAN0sCB4bJNs1aZYCsKrerUbKKxpw2S2CWwCyBWQJXkASO6/04jqflChLr17Gp12xi+lIaGNsaOeUPL7uWadn5OEtglsAsgVkC31AJHNeg+YaK45vQrLUek9NmlBD2peTpm/Aw5zbMEpglMEvgayuBXT0fu+b/2grmymP8kGFy4JHIAz//xRfHksY2xsM2eaaVH/A1TZzPZwnMEpglMEvgmyOBbTwfU2Nkm/zfHOlcUS0588UXX4zXhde1empETA2Eafq6skelT+kdldf9VXVOaay6vw3dOc8sgVkCswRmCZxiCTBIZkPkFD+gk2XtkMdkFenpwL/q/pw2S2CWwCyBWQKzBE5MAlOvSInORkklcUUcz8TwOPCYTE63avzFeCiOW9emchfDz1YNnjPNEpglMEtglsAsgVkCl1QChzwmuw7sm4yETVzvWm4rvthXX9pYF1a/6d6FueeUWQKzBGYJzBKYJTBL4CuQwCHDRP1bGQETRnc1MiZFT/aUq2+Tu2/dvdlgOdnnMFObJTBLYJbALIFZAhchgZXfMVlnnBwyQgzo+4P9ofQJM+voTLLsfFqa6+o8BsGdi8wFZgnMEpglMEtglsAsgUsjgYXHhJGxheegRsFghVFyRJkTMx4uTdtnqrMEZgnMEpglMEtglsApk8DCYzJd5ph4QlbxeoFxsp/puEYIestlD6Ut8bOcdxWPc9osgVkCswRmCcwSmCXw9ZTAhUs5NVKWDIJNzdtkLEzvHTI4QrBGzjT9UJqPvJWfTQxscW/KR7O3rl47TvOtuj/Ne5Ln03pL91D99U6dkDxax6U4es2r7DqPb20RncxhZwkc2Td2pniyBcrfof56slWcGLXy6ojfr4rn1r+uYeWz978qPlv/Nkc6P3R/P/PQ+/xZVntfzpKvYV0+9Kaf+VyXr3Smx8HHtJLcBJ3LvEzLLJ9v257lcsvX2Diq3vI7ZVmZq5YKTmXSW9u2a5n2Mp+brltW/Z8n4msVf5to7HLvQsOkpbUWF45rQj7Otvfpp5/ufZZ45qqrhpJfleM111yz5/jJJ5/sffzxx6P0tddeu3f11VePWECock6V8FDamrrl+fzzz4cRgaa6NgV5P/jgg72PPvpor3w49rxl8SsPnq+//vq9G264YbSl/DbfqiNZTHnC17aBDIccP/tstEn71C8etG2NLLat43LlAzpvf7K3907iZ0EV11enC91x/d7e7YnOjxtCanRJR4Cle16qQNx6FXadXwTbF8WiflU9aj+kX6L++1WF6uxn6bOiazxdd911l4wldbSu6v22AzbdLK90XLzppptGpGeXK7QNeMF720HPXZdPx+IJmYoHWHC5mN2xnjcD9a8n0vtrojDXBQJvTRe9NV3i2n2INqi9+uHe3msfLHT4xoxAN8iTo3zFh09DA723EmEIHbwuNAaOJN/ygD1lVdkPPk38fDGImt+Wl5u3VBl8vp26YZn2CNek/ttT91E4BpZgExqKOsc/mbR96DXI/y7MxHPiJ5/t7X2axHtvSLxpb+/6/aEEvTc+SgxfwvXh5/rI7ebEW9KuTTIhw4/DzMeh7VmQh/YIYWtjUO8n+2VfT/2vJd6Y8vffvOBR246isbGCFTfTpA1BjRsCJetgTmkoGbCkYK7de//99/eAq0FeVGYKqK6Xw6q0aZ6p0ko/pLDtBZMCBn2GyVtvvTV4qNEhy9SAABbvvPPO4Pm22247MKKuBhpHGBoFlPKOp21Bs/xNjZNbb731wMCbNOXUn1ahX3x/b+/DKAGFACie8i0T4DlOQzxadIbC52QfL45D6sgyZ0IfiFCBq3N+hCocSe+4GfQng+i77747+hPdMUhNjebj0r7YcnijM/jT/w301f+Lpb2qfI1/R3UXR7bRM/zBow8//HDI8u2339676667DoypbWis4mnXtKnMYIRnWQxyJE8TI7ziGSbccsstA+PkPa2BXjIinns7eh+D4IYMXDdlsHwwA+uNOdYeoLuvxCj53VsL/b09N+7MAHw++eTvwP1Z8hmEn3snhkHODbo1Km47QgzymxgZRJ0zVG7KSHcmA2lpHCVHfGrPC8Gxj4Jjwg2hcT40jsSxlFUvGowax2EDpHzbt6C4/zf3GSVn31u0+d2cq/MHd+7t3RabuYYJmtr0bGSc08EHY+6+GyPj0N5kmODhw9BFmyzS9bbGNWXxQ6bP5nk8k/oZaFeHxp0mm+FF3fl/YiEsHj9QIobHm2++OZTLjMmgb1ClZO69/vrrwzC5/fbbh3IBAPmOAwSUWgCE77333lBeAK1OsUpe4MKfKO8bb7wx4o3Jf+ONN+7duD9bovwAAr+MF4ClPfgr0I5RSd1LoxN+CpbKGjwAyc033zzK4qfgCWgAjjItV8krK7qPH/ediy3fvI7S2t7jyHHQWtGeaR09l61KRvrnj7AGPgoonQ3wPBXgeS8d+fPkZ9VTTEp2s168IZxJRh2cAotTZTOrMIMxk3ozCup4qQLwo3RA0yztjlwvPf5LVfUhuvqDwVS/9Kz1Kf1Xn9X3v4qgf+rPdEufF50z5t3TP+k4Hk8yqNPEgTzUQRZT3Z/qAj6mwbVIP/ELlypDtOg/nleF0q2hgAbddJS2LpQmPhvhBTwySVKfZziN2og/GFf8Uv9X9azXtW1VOkPimQxc70QvDd4Gr2FQ5PhZRAsL3ssA9/y7e3u/fTMGQ0RnYKVjPAX0nuGgzAeTfAZGGHJX9BDNemFX8SDNAMyggEHqhF/3ZPBmWNyfYwMvgAEXZqnfRMoAjx8eBUbAM6HhnnBT6uYpePCWBf68HM+Pe3i+OfduSVnGFf5eTVleIe1AV90Px6h55NbFQA5LPk69BnueGQP+HyKX10Lz3Vx/knvkg9YDMdrISZkXkuefX1/IiDfFPTzfPWnXgtsv/4bE3vvhk0Eh4pHX56608+7Ee1OWHHiYyA6/+G7Ap/KMp9+9Ebnm2d2RcuT2XtIGVsvsASa45sEhE/LSdpPTXUKKHD9QHAr20ksvHYAR616g7MD07NmzA1ClUS7KCkyq7NIPgQhA8QQmYXrfOYMHXQp+S4yAm1Mnw0dUB7AQ3RdrbDA4gHpduI4MAmnKocuAee2110YeM6oDQFjiCXsFOiAF6F5++eUBmsqJZFF5AFSyKthM2/RhePgoNIASvt0DTsquAkvp6JOxMJXlSNjmT9uzQt7T4pRaR9UJAYSY/2uDjm3W9GSU560oJ2AwY9I574tifpTOui546tydgMmMa3kWwIUIbH4XxQBsT0dJLlV49Pa9ve/dubf3/cTvJjJUwtJlDwYyfVS/NJDqs/oHHXI81rO/yFbgSZ+vvrz66qvj+r777hs86Z/4NBifRKiukIO66FoH+jvuuGPv7rvvPtCF1qdMyzWNrKQxbOgi/aH7MAm/U0NqWa6ua9TQTZgi0tl1AV2YZKLmyHBTByyAX3RbvdKLXQwSdOXppEdb5TnAonUVfsXpBvKno5dvZHA1cBks6T0D/8Moz/vBEROKp6PDBjeDOm+ACUsHfwPmdSnj+vcZrJ+MjsMDS0KfZWgxsG/CHyIwWKrjb8/mYh+vvnXbwjj5/h1fCgmuMQR4cEymXo7HAkb9+J6Fp8c9dBgPAqOIYfNZsPAPyfu351IuhsIjof1oeHs4vDE+GBPPpH2/DAaiwfOi7L98aOHduCZthtyDz2AlWfCC8A6RDwyFsyZiJl/fCc+PhzY5kckvXl7I7fHbF7JhXKhzVZDsHh5+8dre3n/+wwJXPR8y+Yv7Fs/Ks3slvL4cg27IIscGBhJZ4ff58PlieGB0vBqZMdw8H3OQHEZg1JHHo6HPmyNeF953CccyTKrwlIiSAgvKAywpEwXiNaBcQIRSS6OgzinkdMAtvVWMU2QKrpx8BRZGhvhBQPDmAJZ0daDbwb/AKR9eROACTAAr/kVAqjzgk8cgAOzQ0R7H8oAPoUeGRGc55EAe8qMndDbGQCIL9YvoCn7FmVEynYGVF/xM5TQK5I/y2orv8tV7Ox/327OuHMOEpQxsuETNMtYpARoA5el03t++EWVQJuW5DgEO695Mal3Qwa2bjrXkdOZrgyrXXtfuvlDa5wIET7x6fu8XZ8/s/fKVdZQW6R4B/qf8Mty5INW1KXz37kVbhrsySvx5QMBM4HIH/cRAql961q4d6dK60L63fFyXX19uXJdnOV0f7CCqX+urdLXGsmPPqyvLNHa51hZ6xqB45ZVXBm308QF76IP61SUvvayOqce1KH/1XDmGCR2b5pW/8nAkb3mUr/cKD/SdDJQV1S+qX1QGjtx7770jXV14Li65jx66eEEDDjBMtLNB2jJ/vXdajmnumIiY0b+aQc2SgZm2AdCM3H4GHpVz+56M36d572ew5CHlcUjxPQM2zwa8sBxksGbowIO79mnwLhi4z6cMdaSTjtVndAygBvl/OpeL3HRPmW9FZV67c5E/d4bB8TKjJDwxgHgDDNb2dvCaMCqeDx0TLEGayQretPNnLy0G5j+5d2FIMLIYCXhA1+RJPsYLOWjDD+9aeBPgII+yNv785UW+l5KPtwTOkievCaPo/UT7QuAYfn4bA8O+HNh06z6u8miQw4j5M7wYOaJjpOEBeS4yJxPlGBbn0hbHP7pjse/nhRhbfwg/8PvZL7vf4MfeFMbJy+Hx5fBwc+p9L7y+EtmRb+WfqsZE9P2009Di2cH+XcOxDBPKTVkMtpTceQ0PBgkloliUroO7a0pOAUXKflSQ3+B75513HgCxNHVQdooNrAraaOKlAKF+hoI0oKCc8gUwoOIeEGlZICG4h2f05Xcf3zV+AAxaeDDrMePBkzzoAS1ycK4MugUm8pOeP6MT2zg8rlOvugpU6BbcB1P7f0pH3hMNeEqbpoEF/0+vxn0YZeCipfQ2Z60LlOqFdFzKCAwo07V51I4vJq3rpavKX5veeFsU7rbrz+/96T1n9v7i3jN7N0ZxGrqB7aFbzux9dn+UPYreEPL7wdmiDRT/jQAEvhsAwp0pd3uAYlO4f9/ip1RmfYelsqnkV39P/xL1Xfonbgr6mD6ln1Y/NuWXR359lv6oy2CqnrNnz45r+qJ/0o9VfXgT/eV76hPUScdc023YA4MYCfQV/yZH7kl3bMArvape00156ClDQTmxYco7/BG1BYagpU2wSbvHBCm8MBaloa0eR3hQ/tFGVx4GizyeERrKOidP/LgnnwgH1H1aA42bxvIpjSFh6cbAyBgxEI/BOhhh4GWwvLffNJMfXhYGAGST//UMfDCA0QKLlLfZ09IGT6xz3gjeBBgDfxhFr4fWudTb8GGwgNf31/FidCBVz0PRc95QSxnwiafCcpQBH264bjDJGV6h8PX78GFPyNvhSe9kfFnyNbFC/9uZyOAFZjEs0P9VMBTE/vDuvb0fxSvD6CAb3mVlGC6WZwyNaJrkMVYYJfDIkQeFTNFjOL0UHniZGQ28SrAKxt2TtjHy0LVHjnx+FAPKUhqaDAry+fm5xXPgnR5LPCl37xLGm4wyfBgi76S9w+MTXm4PfctalSeeBUaTusnVUg7+dg1hZ/cAiAoKlJ9CURzKRXEBFGVzDxjIT3ldU1LKOVXWdRzI88ADDwzAQLtl1MFtDBwAYWcX6KoPQAExPBYwAYGIV/xQfFEedPHvWnnXzssz/gAtHoBNARzoiPjgUnbPuaUgsbSUA2Z4kkY+rhucS1NeUD+QBEjoLwf1q0c+8cTCClpcgE9Eof7jswuQAB6s53VBq7j+RC5PAdlXokD/HCVYUcUiU/5SqrujmHffdGZY+Y9l9vJQXKMN1pkp3cNJZ1x87+7emR7JAxdn9s6lzt9G6RlKkqQ+kFmTcmZGm0I37zFMlpeUNpU7Dff0JYObvm2g05c3Bf1M39PHxaP6FT1rH1Su/Zwe6vcCmvI036b6t7mHJ/pD79Gk9wwLEw/67NiBnM5bVjVhaai+4be6Vvm0zdrVAA/onjqVgTmiOtTveM8994x60CNnyy3333//IfyrnpauOtBRlqdJVBY2Fpc8OzilLIOILPF4GgOdEqn6OM8fRwGaDcMkR56SJ+LhfCr6yEgQBfaWgc6A92w8DPT6vgx2vCgMBQbGrSFu5k0P7cVgIDAq7JEwAPK6GASlM3ZMSJTjuWGs5PGNcx6D/2qgTH7i/OMYB//rdxbLQ7w7L4U2bHvujoWB9FboHDJMQgf+DY9C8lr6YbzAtBomDBETMYaJNAbZH5LXEggDhLHFQDKgM6AYaU+9kWWP5H8s8Z7gn/0ZZPKL4OUzuacN7pm0vZn6eVU+yn17WIZ3KXQsRzE+4BXjZi9tIKPh5Q1/d0Y+fx7DhOH3X15YyAc+ajfj6E+CiT/OfTJliEwDmYxlpdT5asowRLSRIaYdwzuTa8grmHx6Loy768MzD82uIY96+1DlpkRAqIM+BaasHUgpvPsUzQBLwXpcVxuFpeAioGtAY3otHT3KjR+8AN7WXVB1ryC0TLPpaAMANIBYAbYzp4KF/PgDDtpZOeCl9UkHTELrK4jVuJAXr8ttUq860J1GdA4AKfeujhYDTGn4Qe/IkHJDc47MuDqDTqazPpQBHTBw4X0UhdV5gQCr/qNEu89V1UD5RWEkh9W+duda5zbjYaVfH5P+uvRuMyN1mTk4AqNpMEPgHqWQDAdr0UMC+TOO+5ljro2Eq1Pz1amI4pyXIRUPJcq5+l0P3iaVuNYOMyHrrQCOUn8viq7spQz6gP5Bf5wL+mC9fn3ujnRA0A8EafqZaGCbRjTbb9pn9DP9UHS/OtX7g+iGP+oV6SEa6NElvDrSJzQNrHRjW7obqhxtYCighWf6IeJD+9Qn1qh3D19kafAXncuDJ0dyQ0+6vM5Lr7gmnzR6ioa6naPfcso2TtPkkd/zIBOyco4OOZUGLGVsmQy5J919ZfWBYlJ53iSny3nPgOUNvBczYPFG0M23ozP1XniLxayZXtEfA/cX+6OOiQbPJRzgXTXrlwcmdBPseHV2v/zwxmYQZeQ8nAHx8egkLwKsQJ9HxT37MOhvHskYrA3YsEKgwjVM4IyBnFEz9sRkQFe3eug9TwfMKm458hwwDuyduy318g4wBBgByhqEr00laGrDd2JQvHLvwthQVjvJQDvJaGw6TT2O6kVXOt6l4eHNyNQSjnIMPdilDTRfGZ4b9/FhXwdsZEyExAjarOx9uQ/DtY235sW0XzovD1kwJhgccNbEEg+Dx5zjBd4z/tCV7lq6tlwdPvClLrzxft+R9vPikMeuYf9xbV+M0lEU+zAok2seAYMw40Dofcpcg8FRpNAUeBoKDpSwLtgquXu93zJAqKEzKHkor3sFwdKokqPtXAQQ5QW/8haUtAWdlnN0Dwhr76oAxFpOWTIBosrgCw1lC0ja2uC8ICUfXuTDl2tB/cC0smgbeyytC44pdzHBxrWf3LdQPEYI8NCpzRTG63SZCZhpULrRkVOZGkVPuTMOnVVsp2bwPBhj55Fbz0cpzgyAAhJmANY9HwvwWK9tUM7M4+9eXLgiKaHZBWUYRsZ+xlF36pH25odnFuASJr4YHC34NLuQj3J5mtM3jcqf9XDuTgBDoW1cu9RBf6RTlibaPx2l6Qv0SX/QN/QZ6X3++pjlRNHAx0DQ3xk5It3TH/Uf/VCUTx516K9oq6O6sE17DZS8hcrpw3jDk4mJOtzHU/nchua6POpADy0eB+0hM/VIqyFBFtpLZtom4gdmta0mEZVJ5eoe+vTXkaxE/Lt2n8xFslIvutrsXH1tN5mTB/4cBXLFm2cjeobKyYM3ZcqzvK4tNbkvOMIT7T4tgZ787Nze3n+PXvIGvBA8MPgaQHkXDHyPRJe9UWPQpJc8GpYF7oxefTvGBT02sPKQ0Ovv37XAAEbOGKTTWAYInbVEPPawJA8Pq42VBlHBvo5/ei0GUiKMYvB8O/n+5J59L0IIoGEgvSp88cZ+N/VbFno0WGSvCAzDM3zj7WAY1TBxPt5EyZERgneYxrPL+MEP2ioxQjn9oxgmDDBt4jXGo/w8vwwpeQSTOwaPQD7DixQe1O3a3g+TQXLtcg0a5DKWZd4JtqUuXoohM0A2CfiCrZZVbO7Fr2eHPmOIB/nxRIamNMYJjzf8ZnzAfUbSWJ5POoOIjBhFjDHPVR3kcXvun49shtEXOTF2dg3kt1WgKBSTQgI0ykm5DJb1DFDogpN7lN89RwoFCJRHp+AHUJQDAOhWUd0XAALgmAZlpDu6N1VU5dAQBdcUGgig7xwP+Cy4ABbXBTRH+dCQR1l1OS8v7rUdrUseZQEZuQBK18qoowCmLjQbpKNdfvDsXDo+hLZVu9UnVkbunXRAO6baUECKxJpmIeuQDBKDOyVjneuYlAcbnpqO3g7Pwsad2YPoqaDDMDHjefz2M3sPBiAeCHjxTJjZsODlBSyUrM0zG3ry1YUh9EHKcuEyKhY95UsJUARd5oPwtJg5DB/Kou4oGLcxngafKTw1TJRT3wtvLTaL4eNvHlq053zoKnepApkbmMysHT1j/cAA5ahuafqE2P7knv6mvP6hbKOy+pq+qJ/QNWXl1Q/pqSAPOsrvEtAV9XG06KK6naNHFxzVq/5d+ioeBeWn/V2aetQrj3ttm3rgDENL+/BCBtrsWEODYSOPvHjXfnnRLW3p6KoHXXlEbUMPX8qoBx+unfe5TfFB3WiUp+p25cJAZJzgT5o60UFfVK80eHKagsHbUsAvo5evBw94KhgK9M4ygSN8MFO3TGNwNfAbwOyb+KM7F96PXI4BkPeDoWLg542g/8obcNFA/6kYHgbZ72awdx+m6CneErFcYmnExlrlHwx2WaKwFEJ/RDqOpklHN+ZalnggOGSCZSA+l8iwMhhrhwDTbITlAUKDtwcNkzfeXTQ7ScKP6CNklk8M/GNJJwaEfS1eLZYX1sinToYK2TFkDPKVpTYyyMg63W54ang4LHvjxbLYSzFclIOt5Iuucjbqog23GxglP5A3afIwQBg5lpAYG4wPRpL2ojeeY47S0WKsKAPzyUg70vTxTBlU1FZeAUZXJouU7f6Gve0CJWOMAE3rogZ5aRQbKFLKuiEpEYVmjACADtQUDg1KqmyVsLMXyg4MKDkFrNFzbcoJBSd1FRgcWw49oYA2za9O141olE75qFFhBlhAACClC7DwRPLuu+eINh6EglnbzzBTntxEANQBZRTIH/yui/gV0CsAOidLdRWspJ1k+DRrH5SEVf18DAKuWi5AkdWuA9sIywIfr55F8SkgwLAj3gyIUlMIhsL3AiI/CAiZcbDGGQdmTf9wdgE4t0RZKDkaotlVvSY6u5lBA3o2XnHnMpKARWdNkIcyxAkzZhYAjWJEV4YS3nhtNiPHtyjtkySaqVAkAVgCKOCId2BwWQIG8vz0k9syWO49/PCB0UuXzJr1Vc9c/6NzNfjpnH0d7Y/6YfuSPlFD1iBMF5WXR19C2wz/JII68ahvoysKBnE8Fie2NXzQ0/fhBB5FPDe0jeh24kN+dKI6jhflikvyqp8cxOo12ckjSqdT6JC3PI5kKR2WuYcXvDmn/+oiY3tMynNpqFM5r/jjoWWLP+r3jD1HGGP5y/OFR6IyomeHh9MUeDV/ev9igLRJ3ptydMek4tbcM6ExUNJ1nxF4OoZDDRZpBrqnk49RwUNi/wRcoe82ZxrsGSo8DnCGTo7Zf8RgeXl4H1KXr5r6nADssbkT7vjuiDp+8+ZiIkVuYJJHlpeEF4f+u7YM9fNzC+MADoCEd0MPP/X6wgyb6Z9POXSoLQOBEWVyxQi5K7TgE8+DPSRj8hNaxRn1msylihFCZgSTKBj2Vm7UwGEcSGMEeMMRHw8FF70ybSKnPsE+levCg6UlBphlZ94KxoH9ML96Y7HEtcj9pWFBnj6H4E0hE81fRQaMJ/t4lFWfaAjSDkdtzv8RGDUjPY0gm5EvabxVXiNmGH47vDLKeLZ2CVsbJsDMwHo266Ase4aJQPkoE2Wk2JRMlM4wsYueorkW0KDIgIvCXpdYYEGjYEEJKTMalLFAhA8KrbyjdAFwdHDucQpuygGP5u+9lnVUD14tD+GTETUFphom6n0/gOs+WYjoC/LLJwLIghuArFtWevlQxnmja6H8tS2O+C84kx3agvPKbSRs84fcaNeaQBlY25Tdu/zcozU43omSABcd8/txC/5QvDubydLBdcD//OICnDwZ7k+K/ye59+8eXyg6er9JfCIg9mQiy1zHlu/ROxZgw4Cx4354TtJ10scPAuAwS/HdAGVZ7WYTAjpmL1elgBlEdGIAI1412V4W3hq90SMzo+PVERhVZg3oMsAA6n73WmQ46b99BvvPgY7cmcHr1ngY2z/q5dMfPWe6Qi9s5DaICga0j6MP9KeDsvLotY8Y6JShT/oq/aGvO/ebNTJQn/rRpf/6qTR8q8c5/sVtgvz0DB0Toeeff37gxnLZvglXg0F7tY8clKWj586dG4O6PCYd5KYcXmGRSIdhG/5gADpi+aV/zskfNtFFEY/KkjUZM0zUiwcRpnTCQ/540DbBfeVhQ40TBgj86RK1utAWPaviwbIcvqprRvy/fHDhlTDrNotmYIzNqTEoLIPygJ7LQGeZ53cxXsZgF4YNvCYpdJweFwcsDVOJ4W3J8d4MwANbQss3PAZWpIwB2qDn2syezpoQ2ZQ6PADBCPzYAN/9auiODfbBqXdDl9dA/T5v8ERo28/RYKD1uYODkThlu1zRPHeHhjb+cQb4G9JOnhATIx+CPBda2upxDzKhB18sxeB5GiyTfxqslc8tfMLOemscyef7wdm/uH9hgPjoI5zkreJp5sGx6ZaxIf39REbJ//374G3w+yDs8/NY8jGqPL9fJ9//OBejJM+IzCzdCPiBjwyQYYSM1EU6+bh3FXrh9/NExb6IMce4gckMMsbYiRsmwIbydKCmRBRZGsWlKCLFEShirX0zCIpFod0HFkLBk2Ke3wcq9+Wl+BTXUQSkNn0K6qT0eBEpc4OyjAF1UWD0KHmNIiAESNwv4Mgjyi8N7/K9ESD8MEdtx4t78rjviP+221Ea3gpGrqW3fOXTozqnoekATH2i88ptmtd5y+ND3mOF8LcpUC5b7SmETaCMCR1WsEn1+jxKlj1lGLvIc05xGDOUjgdEp/00Hd+AH5EMKxwQaP5w7SaPHfhmTQwHBoeObMnGR4sogjoGp2nnw3lN+EcPLLwt3qyxI/ytj7JxNhmu3m+Pw9TD8lnKm8HoeupwXrerfHjNYQT1UyIzEd8rGKCQMt+Ksrs3+NjPeyKHpWegH+g7YoNn3GvPXV/UN/R30bXw+X5f0B++iF41oCnKpz/pw/pl9aD5jnvEH3qdbNBP9akHn+4ZuNVHl/G8a2gbHEf7UmexoIZWaeKHMdc3XuAEnSY7vMAAaejAD3zLrxzcqkyndZb29EjXtRXN6qAjvqQVC9Dx/Cp/x96XV1S3sqJyrh17vzhQnqZ8fNXnPBvXRmdscvTarskAg97bGAa94Z2InvOC2lNm5k+nRXkYBcp04sATyyvB0xFxjIH90+ADLJGHDiqrjvHacMpHXGM5hxfBfhI08UW/eWYZQLDE4M0o4EkZxlHo8awwagzEvARo3xP9vyvGBmzI4zvQ+2QfPOADj68Fp3g6DMA8NowY9+AkL80/vJK00C7fxaUfBbvG5v3UZVnnB/cuDCKeX8aYdgs+h8DAwpM0beaF4F3iqf4oPA6DIffgKVnDYu1X58Da5GNMifBZel9YQAuv7gnuCTASrQZ1DLklv7zqMrmzR4iXW/ExXuwXwC/5o5eiB3Zd6W1zTBWbA+Ww/MAgodBmIFXGqaJQHtcUm4JTMoZFQdX1UYFhUXcno8I1gENbeUAATPBiFoSXBkaQqE5lxc5g8AQc8Y1mAVJ6jYECiTYyTHxbRAAkonxtC5DDk7QCozwAcAosAEbogKK+VXKQD1/utYy6RDJdDuotX2ivyrNcZuW1Z7KCvrxar3MBBIptFqOzWocFJAZqA3xdmSx0yz1+oIsbU+c9kzFI50SHMvwujwsgcPVK44pFkwHQ2QE643W4KChgoAA6ujZyUf67xxflbZIzWzv7XjwgoXFt8g8FyR+8oZ+qBo0cDoLmujfyhDYltKNcoHxddwYIgE4+3p7jvIu/oHpxf/WJab/wvNf1i4Oa1jzTg/sneEKn9HsDvEHfNd3Q1+kufaB79JFu7xI8c23V3+m2c/pRTKrOOgrVHYaG14X7fRP3YUcNEMtLeMRvjRb659MEPBruqZuspwH9YhAacFHEj1Cjp3mkK4OWWN5rEOFLGlrKeM7KuN80NItZ5Cmg9XUIuKRTvJt0zsBvicEyTwc3+u0NDrjgMfqq8xPBB4N+RDMGU0sDvCFowAq4YJAvBn2RdFD2w0wm3LOUY4nXHg17TmAXw0Pd9L24ou5lvWaQ/NXDe3t/ef+iPnVU2vDEYM+Y8VG0nz2/wKLlZwH/LGv9P88sJl3aFTJjuUWdsM7yFAPCV6XR9F0UG1x5o9EXvhW8+3buM8DIR7o28V5bvjExY+DYF0OmvDV9A6bGgaVpHmDtN+kjP5twLVN9EBkxyrQLHXtPYCojC48N7sNxBgq8dy+qOMoYCyqf5iczS+jo1UjsvW2PIbs5ABqKIlISykSBqrhVuhoQBszeo+AUTuhg6lz5BudoqgfwoONYZbyKEia2Xkd8VHldixR6ype60QGI7gEQfEnDS42XGgvKygMQGDzK46UA63zatt4r8KArADpBevlRTp3aNOV1ZMyfZQBs+vKxgxJa5af1Lufd6noDwLmlk1+TbusZuLYmyZPBA1JrmGIPCzwdPLo6wETnF/f1axg3vC7jVbfk8fRTbDE7iYKywoHFUJr3z8cFGgM3dYzZF2CQOcG+E7MdACc/OmZilM9sQJCV14NhQZEp3idJ9HjQ6czC7EMRXVFbBOW4oNGkUNyzw/hK2jKALUrs8FdFbcgOxWTVj/Sn9jX9QF+eBnm+ikC36nWoruubBnh9ky6JPJfu6/+r+F/mvbqqzXQQPXTVR/9F91w7tv2O7jFC6DI61Vt141UZeONahAWWeCyfqAM9euyorHbg2bVy7qFvEgOHpKlHveosj/ILbS/e3FOWTJSTp9gqr7RiVXWc7IpneFl+9sqdlqAbGkTpndl4937RO4MxXaObPCw8GAYxukxX6bA9bbdE364LXhgAvwgdXgmGCZzgXTXoKgefpA3kzdFn2+1p8XVXSzq+ZOoDZMMjEswwUOJD3fTcNUNhqjkmSr6E6i08ug8nQnoEvI9f6A1PDIRfBfBMspYDQ4P342x4cH+0I2XZudrqO0w/idfjuhgWMMcEjTFjAmgJnczwRF720OBVYFg8EYOHLCxf8yoxSBzrnWK84ZeM8A/LvD0kzZ4XeeG1/Tu8M+TumaFjsufaxPDdFJCOj2kIy2uDOrSPzIqjlps8511Dxp1UvQRyUyKUQKQYZi1VJMpJaSmd4D4PBWWi7BSQgvFsGEit61KwKmvroKwU0zq0cso4WgMeA3DoCnhAW3601A2sAAGAkJfSog980EDXOZqie/jGM5BUFk1883yg2ag8AFFv21WAUv76lHNUHrCpvwGPovvk4p480vCKJyC2S8AHGuoTGTkift07dghPIXBB8TEQp4NxNf7rh9PB02kN1hSAK5HV7vVAHVHxUtCRWdbDbbhP1T30gIn7FFzaWFZJp7Vs4quED9yY3wj67MxQjPEaYRRyytpNQCRi/jg8eJMGANp0Jm+VV348ipRQXZRtuDj3AdEykxmCTXaAQx4BKAEJho666np1ftDAkfMYf6YN2bG4fkuf9B/Penlwkj4N+t3lCvRInzbQCjCCXvKO4IMO4r2DuT5LH+jPCBvk0rbWW0Jn1IemOO33ztUn1tAgN+mN6qPX+GEAkKO8vKzqcIQTPLLKwgT3G/sctEX98MGx9aArzfMQiyX0VV3SlCUrvy/WZ6pNLaeN7sunTMsxzsjtcj7bxQPa7a+eaOJgFm+vhzAMigy29nHYZ2IQpJ8GT1FgPFiyUd7v1fBuKG92rzt746cGhoHO4Ad7poG+puje+eCGOtH4zeuL+mCFt4BswvcmkI349J2h422YBoO/V2DtuRjGT+reZ3FMZAafwRPLzcquCvDjXzwYXMlNr/IyJPBv+YdBwXvhC7KMHPvsbDrVVl6i0sS/z/HDKB6n4WlKu03W4B3DB90PI0/yMGGDcTCVSsHbM0l/KLh95p60PcfBR8oxgrx1OA32gFwV2cC68Rs/oQvDGUrFx2n+Vef4MKE0gbWs53eJxpd1k7ZrMKodWYYyGGApLuWgOGIVEgHp7lNCykWxGCXPPffcmPFQUvcBwzRQ1ip3lVYe9Lq5T348oN2B3gyHMp/NhrWCACVW1sAvAkwRXen4xRtAQK9gxoULfNBWB14LPB348eO+oJ4BFDkHXoJ8AEY9jupAX17l0FcnvtwHgLuEafvVLQJ5QT3HDmvKUnozkgdvPjO+J/I3D8TSzqMDOn68Sif/x7MqH/8PVZ9HeijgTpKYRzCicgCKotnZzyj5nx6KZyyZKMKYreSesg3D/Zs0y0sFCEtLFJyyCfIDLdHGOrMDMy6GC8ADGuPVw9zvq3RVPPz4tgErn1cIDTMQwDTlQz2XM+jf+q6j/qQvtP8u83FRfWGZ2BbX9Kl6hjdGiQmIjZ54tjGXLsinz9MD+ejTpqAdjZ040BubfE0oGA9kMA3y00N1MIzoXWngQXl6TQcZJu7ToxpTeDdBglv4dQ2ztAW/5K+ce+hoD2yRrh51oO1cGl7U4YhXaXjoUjRagvQ+X7Sll2/38ag9+JSP/E5joN8ineNRoHcGWLpstv7LeBh+n8GWl8Ig5vHRK2V4FUTfHfnpw/GO3p4vRWfQNslBw0BuQ6lBfeh3ytaoSfER6KoBuctH34ou/3+ZaDCC6LilWZtof5DoS6eC5edDhkno94vRNZzwKOBzDNbhSZ4aEePm5A9D4l/FMOFx7S/6/iaGDiOEYcJToT0meDbz/o8XF2nja7ipDCYyMBh3DDnY5W0cg7xB3/IPo+X3oWmZ6uHI6lsZChhaZI1fskizx5uL9szBR94jP9BnyUgd08Aw8QOF5Pe7GC0MKcvqcDZD2lbB3kMGFOzkjSJrS0No7hqW2LuweJXXHQNhB3iKSYkokOBIYRwpVu/LT/GEdWBKcSl+lVJZCk+JvSp81T7dKiue1EVJa0iUdkGvQIKGfOVbujJVbkcKz8DAJ3BxlL+zGLTla1u1pbw4F9xvnmk+95QvfwVpMsJLjQv5VgV8kIX8yoraIyzXs6r8xaQddPB0ct6SGxkmURgf4vnLGCqLp7q+hmEURLl4LgCVjW0KUXjAZAbjE/HWUe/NZ+gByKqgHl3IG0IUmpfDRjMgIY37l7I3mOmog+KPX8uMQlomskmNEWSdlDtZ+bpNlZUH5AOcGiV4Usb3DoZ3qJVcymMau2jzYiBs3/W89aMOdFiobi2zc6n7RnVK3zQY01mThQ7m9Inu1YDGp4Fcn8d/DfplvpevtaNtUe6zxGsmBsc0f/Opg0FBH/EwxRW84r08MDoYUsqabNF5baJnZI1PeFH9rSHDOOqzgEfyMIjos3oF92tUKScPOajvoYceOsAaPKJX+SgjPzpoMErQdS6ehmACwRNpL4fB3bLJ37+8GCjpO4PC4Dr0x6w9A7JgYsP7+kgGUwMpo4Me+lz884n6vcmDj7LxMFjeoJc8BMMTm/Mu1dLzafDKK08GngyqjBh7TCxNOGdMPJkBnZHkG0wmIjwC9rAYgBkvjm0T3uDIYoRb8IYHbbcsLe+qwCjQBt8YYVygZ/mIQSYwCgzY3uLh/YBf52Jg4MXj9aaPvS4NlmMeSz4/Qgi74BG8+3VokhceGWMwq92jPNdAOZ/7ngWepC17m3RZLxEo7xmRuzRGxY1pC54ZPctB/fKTL4x2zoD0TMfkckWZZRqrrlPd5kDpKCdFESg1ELLrfVXoQErRKDflQqPGRJW2ZQFC66gRAUjETxIp87XJo1yBh3I6r+I2HU20gCOQdB8QACG08VOgQFeo4isjr/0U0oAToELb9QV1JX2XQG4iHmpoAE/1tj2r6AFSMi3/yrvG6+UOOprXcH0tkVX8l/et5gBnIuW31iv65c5nE7+gGIl2nP8o5f/s/hzvyvJcDJNVAR2AkX4+LP5fhgaDo+lAi5ICCwGVEfOHe1Td1nqBHBetdVubxgBDaaAt0CG0AQhQ8ojNUOyid+wPHaO/VfCMduwng27K+NVpz7rPW98R9GV9/BqosR/0hcvZH9RV3vRlgzl9xZtBl44xDuiOwVofd27g1delXcpAPiYbdJY3p4aTc9iFF/qPL0vG8uIfpsEt52iU9xobymmbdsIGR2nwUTp9FqUL7qEznlfSijkPPvjgqJsei+p84YUXhhzRcZ8cybB8qMM5mqchMEoMRjZh/reX4kU9G/2OYcG4oI8GSrNnXgqDr6VTM2oYYpD9nx9d6KEJCs/Kf3h2sZThvtm2iYCZvomI/RCWOdTHa+obRowTeadhGEevLL6h4e0fP3jHQ8NLYaD0Wzze0nkyusxraj+KpWBLuwZU6mqiIs+rqWdMRJbEPbAo+eRhSCwbR/jxiIqVsIQs5KsxwEh5OPV6zVjQlp+dzQQucpDPplev/DbALDJkmPQHCxkzMJT8hgcp9Yw6W+iYR3JiuDFMfBCPrNXDa+N5Lgfea8tVvsbr+ZjUmYSSZzF5ucw212nW5gBIKEgDxag137TpEYACK8pmlk9JlXfsADxVLucUlvIDEGBCWZX9iGGSsspJb1BGnBoLpVngM8uocUGhhdbV2Yu0tk8awAVK+CmvUxDWtuMOAMrVMOlgg5/KtvzjaRrITTnyKJChdVw+prR3OU//G4pFCaxXiqsC5dY5P0oHf/pNM/98Fj6d1CyJMhvwfXjJq4N/HqPEO/QPZbno9jwidTRM8SCkhnHijR9fdQRADQUKxwYAoB7uSEtOPDXjbZ8ofmdGVRzlcIlPYcySnC4ux4Ywbk5Kpm15ZNuHbTKvIepZ6yd97p63/q4vj/450YcpQ/rRur40zXcx53ihJwZ5kdEsTV++NQPrTfteBmkGVAZAjQO8tcxUfy+Gn5ZVX6M0eoM39eGXLN2n6zU6GBJkymjph+rofvMwWopdaJK9NtRIcC6/PNIa5RXc9yy1teXQIJPigGtvLrmvXpMqBhNMFEtnehyJX+GfiHYM9mbHliv+8dxCv+m4wdUM2+ukjAveDwMeoyJNHJ4KeMBoYbC8G933G1z01j6RGjUG5Ieiu7wT9lIY8G7iNQh+MF6WDROekRczCfFxLwPl8LikjH0j6n879E1kGCoG9HdCi77j130Q4hrG4cF5Hm2hYNyvx4TXQVtWBcnFEYYJ+mKze02X18MHInmVLUV7K0e6ciZB5IYnAz8viSVm32zxTRiyJUs0yQyGwTV0Bk7tM9X6VvG4Lk2d5IUvXmVtJA8ecx9wWw72Bb2T+/Lhg1HqGeKFPI8b0rzNgbJQ5vw5eIV2UwnKVsNEPoomUtx1gdJSTsBGseVFx0xsWdHX0ViVjgZAwk+NCtfaA0ykCeo1Q5G/AAVI3S8fnSEBNPweK5DjfgBWALNeGXJeFQri5X88i1UZL1Eajsfj35K+mZQPC/lhr39+9czeL15ZzKQo03fjeTAT6tcLHwswPHjT+ShA9gZEpFPjgjSmIvGk3k+nfyPgA3QaGEEsdQq1MDIWLkseHcrKFXnr9fs/5hdF1hauZjOjWviffbH4NWNKrhyXp3MhRcZPhY+u4mKboJIp8+vKbMjneRtU9V19UNDv6IP+ekEfRCthXT8aN0/oj75LNw2mjvTVTP9Gup6B1DU+8CjdXjEfF+Qxkd+kxT4Lg+5F6dNSe6qvdApv9ou0TlnxMoynGBsMA7gkyCMvHqW5xzhgVLUt8tG9PhPPpeeeDz3VJuVhi6AL+QaTa/hCDgyh6nKNT+WdC44MKJH8RLJsdF36o8BX9Cds7EWtxgBpkKQ3n0Vv6KHB2GDK8GBcdOOmgdQbKzwXPCTSpTEWfvPqYlBb9OLFAO0+j4bf0BEYBQyGsVcsj45xMQ2WhrxZ8k4GVTzxRJzJgG+g9UkA9/ttkJE3tHkF0OmSjfs/zoTppw8sBtipQYE3+GYw9vtA4+vXwZLjBvjEq8OTyxCAOergrWCoWGJi6NlvA5MYLMMASTnGl+UtEywTMOW8tagMY8YItQ0EreU9NOAjI46xM85T33LwvH1QjxHoOV6UNTIhvvRoJ3cmpwPstmwlpaO0lL3AA3wA6qqANuWvUeLomoKi4Xo6c1hFY11aAQM/lFldzmucUH781ihxDTS5dAGoe9IYKcBOO6QdO0xkWDmpTxgyXkEYr6L8F1X3CtrbJun027rlKI4NVna1M0r+/qXFksqPoux/dt/iC7E2nnm1DxhcmykCGCeaaR1mDoBd3cZccShhFIUiCO6Nz0ZHGbucIx8FFn0fAYDecn2APXl9BEgZO93N9Ci9WRYj5YsUvCrIcHvKASv1C2MTWvIyejx5vB4ZJs95bV6Mbsin/3vu+qt+rH/ow/RBvKC/5P5oo+MGuoMfdV9E0A/pBw8D/gyWQ0+jHyYY1XV6zBhwv/okP72mT4L87l9sqMFObnTqxRdfHIYG44H8amx0TwkjAS8MCvwwKui9jfA1IrocVN7QQU8ZZcWpJ0i+qeydkwU5PJyfGWC0MHbw2FiargXtcP5p6umysudeg+Q0GCX4HBsao1/DkM/RMo0BkZ7Yu2GfBMPERMRmUAMrfWeY/CGDKvf/0LF9JfeL5e9lIBxdMzTQH17U4MRtMWSEqWGCJu/BNKjD8ghvbV8JNuC/nrpyGEs2DBfGB6+L5YmBE6FTfXf9k2DV//699M2kq6OTFPjE82oyxED5dfDNJOe4YRgmwSCGiX1zmkOGPEPk6I0kkzAYNb5yG1nY0G8Zh+EiHywTtNNen7dzHDga+aF33JDqRzvPpw7thZU8OssBn/jDv0cJL08ibGWYbFMRZeoMogpvIBcpIwA6KnQ2yBChoJRe+SrtUeXdB5qAA/ABQ4YFZQYyZitoyYNHgFSAAWb4bxp+8aGsMjwpZlGABJ9AZwpCq3hTruCFj2lAF5hrn/N1tAASOqJ8lyvomEDi5SiC19ns1N4mGOStO/vI0XNRHoql0/qNi1+mt1n79ZqxDV068jrt8aucPnPfTxkDDjOCv35gsdaqKB4pJyMD0L2Y+hgtlIPbcXzBMfV4y+aMxuSZUWS78M0yPs75W0AsIHdPlpPM7hoH8Ia+md+3Uy935lY6t18P/jaGI4yH9h39hy7oc2IHKGmN6hn9UT/aWOn+zSPqXkeCoUS36AKPhMHcoKsP062ptwANPFVX5GGk0Glt8vEz4YboQPOs04GR8Yg/ZEE36TbZ4Yv+1rjAH/2t10QeOt92KIt/9+V1XMYsOty2wxZ1VncdtRENAX0RP2gXk7RR+133vnO4g57zGnzq1w5HMtIevIlfdTBYGzwM8H9678JTAiOeYUREp3hIGSLy6W7tl970s+HdT09YKqBn9aL8IWVHvvxRjlfD5MJHD7t0Moye6CRvyPIgyFjxWzHu2ehusIYPzwcXTFwsH/mKs7dbfBaAISPIixY+LRv5VoilC96SUe8i28AbXgFGyT+/tsi7f2ung70p3nA06D8XXPQaNSzziXj7XR4InyZIf392H6eSl3Fg74efBXkqcrJ/jvy8/kx+cNdbTYwcX+m2f+ae0KjBtYrBFBty4WG6LuU9G/iIXk6H54ssYalngLflwGPyZp7RGylALicVFt8xQc1TuYhA+TrDo1yUjxJSVoYJxToqAN3mp7SUX1m0tw3yAj91U3Y8AQ2zoEceeWRcS2O4qMO5CHAcW8bMyj4Vxgo3r/voutYWgHEUkAIyctCu5SAN0OBLWEdLPeoU5VmXb5n+xV4HI4f1zo36H57b2/t/n9mOIgua28+gDxh8XdBruYwGRomd5F0f1fvX9bp/8+0FOFiLpVyUxnvxfniL50SgzHa8vxXDxO9F/FfXUXYKyyjxrQLeGZt1W9PzUVyfi/5djC2bzRhOZnd/9VA8OgFYMy77Z9QncEszVsyeqMh+8uLmqr8ynUDQNzuAGbAMTuK0L0lvbJW+WLxVP/GAdwz4MZDzLBg86RBPRPuxQXnaP53rv3imx/Lil57RbYa5NMs/8kzbdsBa+Vwj17afvOgI/ZdmWemq6K96GRl4dI4feekyw8qrwQwUdeOFISPKu8wP+trsq7LvpYx65IEvMIEu2xsiaGMNDvRdK9sjPGG0oNFn7Rxf2gBzavTU4EEf/6fBMNFGxgP9/Kt4Qi3L/sc/LDwIXk01qK8KDPzvZDD9N48v9lj0e0L/V/Dl1ehmHzOdNyiqwxE954cMk6U6TECujeFh70Ye8cAvSx72v6DLW/KdYIJJD0xQh7f6eBpqgFiS+NmL8erEAFCfKspTHs/wRjjakCvvunauanvTDOCwEf54G+npYJE3E/0OznfC13fCH8PC/adyT32MBcs0XvV9Iu3BG4yzUdakzOZgdE0I4ZvvPDHUNhomycMDhC4DEU3nPDmAbsg6MvNbRWTnWS8HdZqIKotfBtRJhMPfMSGBPoWjqMs7CTUIKJYBmZJRIkolOj8qdFYgPwOBYosFG+WnwKcOkYJLd14l70wFcAB04ARwKLs8+HHPEf23A1KfJd295ufuBaB4KWDIW0BZ1x730cE78CMPIIxueW5b8N24ip57eL4kIfJa97w9XXH8kF8MCpvKtgnKpPljrZnrVcfVpRgsrHoWNvenfJuCt2MYOBTsTMBMx+c9qQelZSkSKx/A2RwLLLhj5VevWRfvjKBOa7qU1T2ekv70+k/u29v7mwfydlB+lhgobFLoQey4fzbIfEpSn9F/9DvBoC9OB8vlfth+5Hhk2CZPiOiv+rxoMK1RUr706Q7mBv9p3eUHL3Sax+Lz0Hljf+8HegZrbXJf+QvClE+yWwrVM7TwSG7kYgPuzfveDwM5PcePPOQ69Za4ZoiQr/aIyxMpckBbu98Jz36biE6rX5CfHGCGeuSDG+pzXkzoJIOR17K9V/xqGyo/+i+i1TJLYrjsl+1hPAvit2IMmMnTKYMT/VsVJPNOWGqxh4TegjcTgEOPOvl4FqRZmvDkR8wfmAJb8v9Q4AGpF8QN+cekIunKmLBYWvJWnk8eWDaR/krqL14ML2qMFXil7tGM8WdBUBd0z/4SeHaUYYJ3dYjKKc/rAre0j7fXgG6ZpD/AB38sITHi8IBPhoxJl2UcG/q1y1e4eYgYX/gw4eNV8Vo0r8sKdSGWg8AAYdTwiPs4m4+roT/2iiSXZpMLowX9ZQ9VCbl34B1r4kUeD1sLpKA1jkeFpTwUzWzAkaIBGYruSIG3MUzkkR9IUGZKjJ4jmlVUrFHiKjSFdW8a3EfPLANoUGxgBAjNRhgcygEhx3cDImionxHDY2IGBTQLer6p0jqlTweJ1q1e9PDdwQVN3hdReQHAaCPDpWG5DdKBpig/2uKJhSWZTemSpk7JVeuHsSjFNo8iPpgAABtQSURBVIEiWo/kQqW81h+BiA2v3KhcvHl6+Xf4eS3T5h4eBgLg2pAVoAmPZsb2Lx6Igoc+L4+ZAwPIG0FeGVajOn1kyMeJLPmYCXw3szeeFR9d8sqyNfPo2aULG2Su0j5ffV7/qGehs/7q0aq+oP/ok6v60XEbpL8aYOkNo0TEE53iHRAN/J18rKu7OoBvb9uhp328D/TFgA4vhHU0cmPRjIkO0A3eG7rWoK56PWCPWA8G3qcbY6XjCQ9oFW9cV5aVNR2096NGCbrko5wAS9SNf2XwVIxwr5MjsiIzZUU8wAGRDCpPZclZWXVpk7Jf52Dm/0yWLv59cMISgQmAQfu3WRqxz6ToZgJjozvcobO8pAZyemvp47YMpDwjeyts2aPkY7LjO0hwaSyD5DiMn6T5gqrNpl5pxtswWPYJ4g1f8tonMzwLEjcEeRgevEi8E8r2E/towy845C0c0X2/swPDfkUmabeB3xKTtquOQeez9n7V3e948SgxyGgHg0Y9ZHUEa8PY8WVcfNjDYqmc0cMIUtiRR5mh4jmcTb3LAb8mgzbJMtSENOOiw2HDBLkq/46kOxBX0SloZ0GUSjjK2qeIylHgrrMCaCAhTkEZvQKKPFMwq8JTcrRqmABYoGT3PdDAl6g8cJHfrI4xw4hgmKCLhjw+7IR2jQQ8LIcCEnngWV5twvsUjKQDSfk3BTTQkl/dJxbUu+FZu3V1TPy7bjiz9+MoAGt8m/BpzPsX8sN63WfC5Uk5vZHz1w8tlGihQpup+b0Kng7W+gY2h2KbWZgBMUoo2P/5VH7Z82zcpJm5daPYF/ldbuKzv+Tl8GT24guK//axhVvX8g3Xp0DBTzwcIe9pfe3X+oeoj3ZQqg60j8sr6qfTuJWXDU9HBP2OQU9n6CT9oTv333//+G2ZGvBHDZh0gB7i1QCMP22DF/o43UNrqsdrWZt0COXxhVYHcrzRWcZOKtyzvMUIMsGQV1vEyg0v9Ftb0XOOJ8E9+dzj7WGUuEeXhwco6YJy2kcOyng+9FaaNjEu6lEhP7E6Tb7OGWvK4xvtGiTa5bnrB+R0EDy/iSwO0k/xCSywdDH2k0wUrQaCJomufTDNfrT+CB9DwiBoYuFtnT9dPKKdWwtFGUOMDN4Ix1Fv0nlYGSV/lUmO5R1GQUUMM8Zejv0BGLbZP7cpqEcexglvjDbY08IAgKk8RuNDk2nPg8Eg+z2eiEHydy8sDBEGmcmcyZ6Nr3i4LbjIePpRuvdP71/wjBasU9fYB5N8RwUTx6dTl3b4heNhOIU/dSrOMPG8TC5916WTwCld/PBsy8uQg8EnEU6IzGK2QIEoU0ETOBRIyywl733n06A8xaO0vCbKo1dFV845hQdEFJlSF0TcR4MCo62s+h0FAEHxgYr7N+f8xkT1AZYOAAAEkKpLGkMFjfKD5jKAAhaAhg5+RKCElnJds0ZTxKd0tMvbOFn6w2BSF2BdrnMp6/aX5F5t21DqTExpHgQzk3VuvOXiLHwju06uQ9sYBX+4UP0mjp3w2wRLNn4tE5vKT4NeA1AoBbcxRbRE44NuloCkMWg+yn078t/PvXY1IKQcBWLtK2edmVJ9kRveEhobXXO9PGOa8nDofBt5biFvfVLfFhnR+lL7cWfR+p40/Us+efR7Qb9yX98S9En35TMQu9afHfX512NkoCNtOSin79EvgzlPif6tH9MFgyfjvTqxXH75Wt/FG71igKi/HiFttRlWHvTpjDpcT/u8duIXb9pADkKPdNtkAg15GSKVJ6xwrS7BwA9r2nb58CPy4mgrWvIJZGt5iIcIT8riEQ6pX3vQJmf32zYy9LE8afLXQGtbtEObiinFL23Am3qKGdNnO5gKzdMU6KSBu8sWq7gbk4jggD0Vln00weu3T8cL4hPrZvoGcUaJTZy/zMDJ2zB+PyfYQa99pv3ZTERsrrfnzDKEZZrWR7/LyxhsQxMmWLbgbeGB+Xm8EvaRyeszBOooLviZCx84Y5iMvWU5CnlUIy8vrLditCUkD+odmfKHUaUNlmu8nWgzLWNKOW8vSbd8wvOhB/Mk8w6rT7RXxuZc0X0b8HmE+yo0XLUXBabCKHs//NifiRwjYXhhcs4T0kAe6h9fzs6RgUSWjB6y463xETdy8jFMRRlpvhfDs2UzLs/McoCnXiTgzanHZDnPca7D1smEgg4looQiMJU+DZSYMlLMAkrvU0rKC2A6oNdAkLf5gUjdyoATKPSe+nqujoI1fgQK71xd+HMNhMS2Qf3uK4sfxkOBwrV74jSoCw284Ucba3gAN+fooyk4l1agk1YenTe8u792DoxbtveOdQTm+7LYVL59mmHi4z6WdLYJrG07zsdvQaRTUxK0KBVlX7WBahVdMwnGg7LlpfkG8EQhWPNcnCx/+0t8P8XH11jvDClNteG2ChMHe75ZEA9YFIzrk2FiFqKN6uBVce4evkXKnWwX8FBexvEoeW4pc33IgGYAFT1zfdngZJBsH5Kmr8nrqFz7dPuYa+loGDANfjwV7ndQN6jqq6sCuvLTs3pKDJT6cj2KDAxpaB4V2re1hUFDj/yQnTbUWKA7vB1tg2PLoV8d06apzrtHN6pPJgTaa8mWQaId2iqiIR/dr+EhzSbYqUw7IaD31Xe4gD/YpH6xz0hZz6yycE97RF4W/LlHXvjzDGuUKNtyvujrTSW4R1aOlQEaKzFgy/5FTpcq0BF6SdfqgVDXsu76DPsPMtP/3767GGwN/PZZ/B+/XbxpYgC1Z8wkg7fkV68Es4MjD2XwltfmTxvpbRp9Nnhis7rXkhknrSwsjLdN4NDwHgQr4BLDhAfE4GsAp+fKMhB4GvDP82CQNomyLDLwa78R2mUiwzPhk/MHk7Xcl6VxLDklj+UYv5HDuPJFXPswYM97ufdkjBX7RCyfMAh8osDQwDCR7ocGYSaDjCfXWzH4ZfR4w8gEjzGT7AebXPEn4gvOMjwaYB25wmXH5rPB1efveZq9XGCPyj/A+pTFqyV4e3IYa/hZDvjxnBhp46cAIseTCEcjypa1ABpK1IGbAlFoikl5KT9lZUi4BhzyVtkon3NHCgk8AB+alFk6ZUYHmAEboCMNeDTIp17p6pMXAEgXpPXaOT5EdB0HkDCN94P0L1ynPP4AiOO6oB7AgyfApw2OBTf3y+NNaRuQL29oLgOWepsuX+uflhkZtv2zT2/b7MOKTwdN/7wgpK8Phe+P+9ko+/bHZ8Zgz2AAAER1Y+J4JTcd/t4bUmoHHtRBqUSAIJpxUAj0nZvtqM++FsBB6Vj4ZhOUmAEjWFu+PooIxMwEgJZNvWYSNozh0UY+xglFM5u4OREwiK6BI7o7hS3a2+euv1ouMYh6xu3/+pR+axA3kLnvXH6BLukb8lWPpOu/yikj6PPqEtvvx43JH/c60Brc6YSAF4ZJ+7Q+vkkXJiTHqfbgz8BOpw3+2iDW2Kjud6DWrmko7/SpWMNgYGjgTzltRJts4A2DQZqgjPrbBrpJRtqLB+VEAQZpI7rqUFZ7XaPbZ1QZKy9NIFs0HQXlxOKANM9FGplIF/wumI+yacd1SV9u/8i0/Ef/yjPbRa+WSRz32oDP4yjyYNBPSxZUxCBPj6Yz9zR3zOz9wJ3Xdi1r8LA0n0GdLptoGCTp7gPRSW/R2NROt3lB6a7fxflD9NaAPX5Fd78RROHLo2MpIvQZHPADXoy9Hjny7BIbegcWRU596JFngDdiTE7Cr3K+D2Lg5ZFlNMEZfKMBE2AGfNBWXhpeGb/S62hPifZ5i4ahwZti/5t8Ij7HrxXnnOzGxv8cyYIc8U4WZOVc+8jFvg9140M6o4vMjYYjX44NyqSbD5rK8ILIb9nKPjvL2rwyr0TuJoUCjwljhEfH5/AZUQ149pzsLfFMQ37wqhsz6Hij8H7ckGacTKBclBiwACAKR3mBLIWlpCKDojOL5qeUHWgdXXcwL11pBcwCDgCRz+DuvggI3AcQ7hco2kpgIMqLtugauLRu9xqkqxdQADN1ASx5p6Chva61SV6xvJFJwat01XF90uVHS3l8AFARWNf40oYCHH7Rln9j0BOF0N4pKLdlGQqvI3sFd2w4DVAY4L1q55ryI8cin848duFHHUCGgfHzV7L2ejb1hTZgErkkKbDgsY3ll4jGjnVKCmTMCuT5NF94xRPXLbABGL+JcjeQqFkNcHIcbtLw/uf35qNLicDKTAQQHoQd5HVQZumkg61n7LnzUOgDBkADuKhvuMdQcGQsVKf0peqSvuFanxJdK6/PivpP+6L+he404MV9vNAfuqQ8+jVKHKWhv2tQZvT9lKdL6iom6OfaBTfax6c61rLSGArlgweGsYFntMhHhDsCXanhopy8dJNeagce0FCnpRh0yL84hU9ykxfvpTlOVvypbh5HPofI7SJfeU+gLx6qf4uLV6M/fivHl1Bt1uTN4OmkQ2b+Zt3TmTuSJhV08KnMtA3ev0450QArjh+9C13629dofZyR/o239EKDTsv3bOqz7BuYOAgww8CtDvQEugyD4MHDGWRNXHghTFAYE0/lfN2Ew7ec8Ok1XIaGb4X4XSDeWO0cA3h44HnxFVnLGj7TD6tMevz8xvfuWXhhvh8jwP47+MhbOzb35pyMYA5DSRkGCk+RSRQPCLjP/9FObcXzwLoctdej50XhQbL/5M9Sn2Wu/e468uMNrzwg7969oPVj2HZ/DJTwyCvOwKwhyZjSJsaJnxV4LLFhfE8l7eQNgvcvpb0Cnv3kiLeMdum+i9Jf/g2rJxOABeCj+AKAY5QAWWAB5KZg2sGdsgOEaaD8gENsAB4FYrQAj6Nf6Xz00UcHaAAPddQtq15eFQBV8C+9XY/ap368qmcKmGgBowImEAR+wFw7lamh1Hrl1/bKAYgBQ0eDhXaQH3DUTmnute4CZOldcDxOr9gR2FjlZjbcldZMn9RJo7DjbZx0cDvc7TjnhRiziQuYPDphGCYBGF+F/MfQ//dPLXbwU1weGkrLq+PjPxTTN0mGhR/DhIvUNwvMBLhuRUaU1xr9uBe3sDd23k4buHLHOnNYqhiIEIi9+0cL2hR2LAMdzfaXOUrsy5SVZ/rn1DDRNwyWonN9g1Hix97olP4gMl70M3rnXB/U3/QV0TXdoUtoGYyV05dbn3zTgBf16YMi+t1TclcGaa/hbgwb2tw+rLwBHz/4rlGhPrqNb/emQdnqH73BI13zo3f0zdKQWL3RRumifJZNyYGs0G67tbcbTsmGztFXBlJ1nhEkfyP9a3k8Np1e93zK+zbnU3rb5L8gz9JzvOD+CScYIA2uf3cuG86fXHgBfIm5yy6WGuhLB3y9TBnGgtm/j4T9p+cy4TgbQyLXJg8GZhs930w5Xgh7KWzy9K0Ur8CiYbD1tohlCYOiJWI40XrS3cekxZLFgWESjDBY8opapvGmIcNEfZaShofVyH9YFZKwmHzZk/K3L8aoCGbYLFpPrI/FaSMjzJtCvBBwicH0i8jFUtHjaYP6/vrBvb1/9UBwLLT+KXj585cXH1H7VfKhx3syPDij1t3/jNeH0zZvNDIy/izGR78KCbssozF0eKoEfP/rh/b2/pdHFs3W9N/nj6MIsxkmDD9lvGDQAPd5dhiUvj/jecDgW1IvufK65P+xw2GLYEsylJqiAg8AAbiAZ2cKJdN8wKQgBwQApTI8EOgAiqMGWkorjzqVAUZAo2BrwO5gD/Ccy2dQB2DqBDrqbyyfro8K2gC8AJt2LfOrDerVroIqwFVOcBSBpHZrjzLTgKZ24Ec+9MgV3/IXWKd0p+Uv6pwMdgQ2ndcMZLhkgUAUi5twuCijaFyvo0NHMX00yIxl10ChKIjAnfvTh6PsAYMD5YmiUQIzAd9GADwAkZVvhiVSrnpNhhETevbN/CCKa3e8GQrXJC/KJ7G2Pv08RmIAyyuFjJ0/DyiOnxzPOTflobCjzA6VnVx4vp69PutDgD3XD/Qn/UB/p0fO24f1IVE+uijon/qp/qTvdwAvLbrAEBDUUz1VjzKifuzz7Gijq6w0b6adVFCPtqCtLnyoa4op07roj/xCdZ0uiOWZjrqmO9rpHN8ius1L3tPgGn1yK7b4PIAfEZXm3jSoD794p5d9BvKiRb6eF/zxzKrLUxryaYdnwHC67777xvPHozT3DsIx9POg7CU6IUG69cfRo1e/tTAGTBjs0fiL+xcGgwGSh9Fbb7weDAizefp3Y/TWbN19TWVY2MBpRu/oeiw3RN/t6YAf9kKYEL2ZQdJEgvFic36NEk3tcozzn8YY4I1gCMEEfHijR+RBoPM8A4ybNzNIW67Am6UI2KOb2Iz6naTztvJInAsPAAguMZZ8mNGAPzytueXcV6tff2yBPyY3foAPFgm+QPu9YCUsQe9PIw/eX14e3qThBc7RIx8xZXK6CNJ6vnRkHNkw63soPBw8MA3aSKbKkiWeyBM+pykjymsSyZD6cQwoH3yTzzP0rKYB7vuGyo/zTD0Lnh/GnXb2I3HHwfvWcVjbmnrEEYBRQCBBiURKOlUkSlfAk6/LORRaPmUoNbBo2qZqCxzyVvkN2GioR7o8jsAdEBWA5Vs+d90wPV9npKBb0AQay0CFBwYHWtonKuOIpnNyw6+BAq/AzLHBOdqO6pJPfjTUB7xEedA70TDhY1u6wAAw+QlvykSigKLBmioXoc4KCMZmsR3rGYZJFOyaKMx3owifPhwlCBBw8/ogEENkLNfkfOyHydHMAGhQRsrviDduYHtFAJkZiiUiMzVg0OgNnvcDENaBGSvAy3dOGCb2m/hE9k5hi/a2D3jG+m6ftz6sj7gW9WNBH2iafidPBzO06Bsdkd6+Xz3Vb/RH/VR/rP7pZ65LV1nGAsNfuqjscr9fKYst2qwcWq0Pz62r+rVcl7zySdeeA1mFL/sytAGP5FNZkY8y1RllK+/y3mtHcpNH+ba3dTa/I3poNz98U7+60alByChhnHiWeJ4G+bSJbNFhyPS5oe/eQSBTo5TjKQqWQn6Y5QlYgDXcMebpvciwoPcG4J9kEDN4/ciAFzwwQPIQ2GBpln1nooHRTJ5+j2XVEDTQq8ekx4BroKwHVL2WV6diYYigBx/+JoYP3IBPDCB0RZMZG23pOLxgSKDBwwur0o0OljRgnM8XwBReCV4iWGACxNDxRgwex76KfX7JxJKWNuLPmzU8Krk9PhV/c+g/knosE4+lm33DxKRO2xhM+GPIifk/Hr9H73xVQN9k0Kfo7WUh+wayY5iRC6wjd9iqHXhq0A6TyLdjmDyeY+WtLdOADg+KLtln4bnAesajNg+8nxba4Xypuu1KUkgKSNEKWgWuKQVpFJKSmUFQVkpP4Sl7QWNaZtM5RRbVS2mBa0FDuoC2iHYDIFa//ACnYD29v+q8aY7oq0ub1N36mqf19nr5qAw5AHz84LZAVVqOzede+VVOvZWZPKchaIOObQZQVypQAhbAgYXOCKAQQELarkER9EQ7wwXeDCDDCGKUiBRP2FhFeAgrFwSKjn903/v0zAAK69OWd3QrM0AAQ9E30r+A8vYJnr0+xFCojujDnn0DXRL0IX1APn1CVLZBurwdnGuEoKWc/ic6V1bd+pdyzqfXyqJ9Kfpc24y2+rVLXeWh7emx+adt7T3tqW62ffJrk3Y73xR6fypLaWJ5avmmXR+enauDrPEvSnMNczxDuoyufMtBXvx57oK8yqyUefKetmCAfTSsm1EzJAxGMMEEgM50UHVtCQU+GLhc02GBfrkWzbINmLAi3WLovWsx/8fAalCkq5Z+6K463WuQNz9YvjBkwgtDQ4Ah7jUYoBkT9NpgzGCBJQyOgTnJKLv2+MYIY4aBZamaoSSffRzumwD18RjEeSK0z0AvSkNTICvRQN4wjIW0Z2yGzdHEiWdITNdeGCbJHHUcQbuXgzqG8RXa8HbaVuetd7nc9BqvDC30h+GVNjLMtH0a6qky6UtXH95lz5uhBu+1dWoYTctuc57fNtPsI4IslXqysuwZGZSPAjUW2EqtygncOshWyR3ld9w1oEXpsX6IxhKfpVugclS219P7Pd90LM/AZJfQ+hzJTkQDWInLoflqTKkXeB+3/mX6J3Wt4wz3Yzrm+1n3eDeDuhmITumXfHVesx+dXRqPxm6SO8ypmYW9JpR1eEdCbHhGQpfibUV7RR/RDslpxphJ1KXa9V7Aow0e+6E6VtA6zPFuV567Z05v9A+vjk71g86NPpF8+oM8jnTAsaG6hl5D+1D77nJdpSP/NI98rptWemuP6iSoHYN6dq5rqY62W3Jptd3jAW/Bl3LoCG3zqva3LsdGBoYooOM5iu6Tr3vT59l87k89ygwseVfVO4hv+nNM+W8iuekeA4HOezNPDyRikwSDpMGsusUD4ONh8hr8GRe8GCYAPJfy1rhBQw8aOLJPc9qjSnMM2rk/jJhphqQ1NK/r0u29TkboO1yxNMTAMMDisfkZDd4+YjR0070BeUyOcmQYTbENX90zIp3Xtd6UNWwOA045cbxynaNHmarHEc+5PAjT8ybWyMIPmRxnImV/jI9Q2lgMv2voFGdbF1nYw+N5lk/PkMdreLtS/9Qwarltj9sZJttSm/NduRK4zIB4KgR9VJuPun8qGnHCTJzWNp9Wvk5Y/DO5WQLfBAkwcr/eAeAcN1xM2ePWedxyeL1U/F4qusdt66Uqd5LtRMuUalM46v6msvO9WQKzBGYJXKESODnD5CRBf5eHcTHgfzFld+FR3uPIZ1oGr9vwq8y03DZ8bkN3GzpXUp5ZZlfS057bOktglsBllMDJGSaXkemLqmrXQfuiKtsvrM5dBrLyuEuZ8qnMtFxp9f6VfJzK5UqWwzet7dv08fnZf9Oe+tyeb7AErqw9JrsaCN/gB3/iTZtle+IinQnOEpglMEvgSpTAyXhMtpmxnAbpzrOm0/AUZh5mCXw9JHAUrh11/+vRypnLWQKnTgInY5icumbNDM0SOCUSOO7gpVzjKWnKFcfGUROZo+5fcQKbGzxL4GQkcDKGyaVQ0OMC+snIZaYyS+DiJaAPb9KN9vFVBohyjRfPyZVLoTK+FBK4lLQvBb8zzVkCXxMJHL3HhPJtAtdL0dCvos5L0Y6Z5iyBSyGBWT8W3qTLjUuX4lnONGcJzBK4QAJHe0wut/JfKaCrnXOYJXAcCVQnd+lDu+Q9Dk+Xu0xlcLnrXa7vmybX5fbN17MEvgIJHG2YXE6mKPmugDMDw/Ge0Cy348ntNJWiK9s+x13ynqY2Xgwv28rmYuq4EuV6MfKay84S2EICRy/lHEWE8u9qTBxFc9v7X2Xdm3g8rXxt4vlS35tlcqklfGXQv1L70ZXa7iujV8+tXJLA/w83F3DM60DmOgAAAABJRU5ErkJggg==;" vertex="1" parent="1">
          <mxGeometry x="290" y="370" width="206.25" height="24" as="geometry" />
        </mxCell>
        <mxCell id="JgvuabAU2myaKvdRI82M-15" value="" style="endArrow=classic;html=1;rounded=0;strokeWidth=2;" edge="1" parent="1">
          <mxGeometry width="50" height="50" relative="1" as="geometry">
            <mxPoint x="106.56000000000012" y="523.5" as="sourcePoint" />
            <mxPoint x="366.5600000000001" y="523.5" as="targetPoint" />
          </mxGeometry>
        </mxCell>
        <mxCell id="JgvuabAU2myaKvdRI82M-16" value="&lt;font style=&quot;vertical-align: inherit;&quot;&gt;&lt;font style=&quot;vertical-align: inherit;&quot;&gt;&lt;font style=&quot;vertical-align: inherit;&quot;&gt;&lt;font style=&quot;vertical-align: inherit;&quot;&gt;&lt;font style=&quot;vertical-align: inherit;&quot;&gt;&lt;font color=&quot;#cc0000&quot; style=&quot;vertical-align: inherit;&quot;&gt;“过期”&lt;/font&gt;&lt;/font&gt;&lt;/font&gt;&lt;/font&gt;&lt;/font&gt;&lt;/font&gt;" style="text;html=1;align=center;verticalAlign=middle;resizable=0;points=[];autosize=1;strokeColor=none;fillColor=none;" vertex="1" parent="1">
          <mxGeometry x="183.43" y="500" width="50" height="20" as="geometry" />
        </mxCell>
        <mxCell id="JgvuabAU2myaKvdRI82M-17" value="" style="endArrow=classic;html=1;rounded=0;strokeWidth=2;" edge="1" parent="1">
          <mxGeometry width="50" height="50" relative="1" as="geometry">
            <mxPoint x="650" y="580" as="sourcePoint" />
            <mxPoint x="103.43" y="580" as="targetPoint" />
          </mxGeometry>
        </mxCell>
        <mxCell id="JgvuabAU2myaKvdRI82M-19" value="" style="shape=image;verticalLabelPosition=bottom;labelBackgroundColor=default;verticalAlign=top;aspect=fixed;imageAspect=0;image=data:image/png,iVBORw0KGgoAAAANSUhEUgAAAgIAAAAzCAYAAADl/GDtAAABRmlDQ1BJQ0MgUHJvZmlsZQAAKJFjYGASSSwoyGFhYGDIzSspCnJ3UoiIjFJgf8bAxiDDIMrAyGCYmFxc4BgQ4ANUwgCjUcG3a0B1QHBZF2SW78UJDQLKCctWP+n8c3rVdAlM9SiAKyW1OBlI/wHitOSCohIGBsYUIFu5vKQAxO4AskWKgI4CsueA2OkQ9gYQOwnCPgJWExLkDGTfALIFkjMSgWYwvgCydZKQxNOR2FB7QYDHx9VPIcTIvFDXyICAc0kHJakVJSDaOb+gsigzPaNEwREYSqkKnnnJejoKRgZGRgwMoDCHqP58AxyWjGIcCLECMQYGSxcGBubFCLEkKQaG7UD3S3IixFSWMzDwRzAwbGsoSCxKhDuA8RtLcZqxEYTNvZ2BgXXa//+fwxkY2DUZGP5e////9/b///8uA5p/i4HhwDcABkpfFEGwzfQAAAA4ZVhJZk1NACoAAAAIAAGHaQAEAAAAAQAAABoAAAAAAAKgAgAEAAAAAQAAAgKgAwAEAAAAAQAAADMAAAAAV0VkJQAAQABJREFUeAHt3emXVNX1N/CLgogTowKCUO0YZ43GJGYiZjLDSlae58WzVt49/8nvz8hK1sqrvMyLrEyamUwmJo4xzlODgIKACooICL/9OVW7uVyqqqu7q5Emdy8uVXXvGfbZ57u/e59zb1UvOhFSTSeKLFo0Xan/3uszsc9Myv73WnT8I2/tPn6bti22Fmj96pzAwHnnxCjaQYxmAU7bSmuB1gKtBVoLzNwC88Gf89HmzEdWtYnALIzWVmkt0FqgtUBrgQVsAQF4pkF4PnbF56PNWUxLmwjMwmhtlQVogbPE4Rag5VqVWwv0t4BAupD8qh746b2QdO8/A2M72yYCYzNl29BZa4E6AZy1SraKtRZoLTCvFhgU+D8qfvio+u1j5DYR6GOU9lRrgdYCrQVaCywQC8w1oA5KEOZ7+B9Vv33G1SYCfYzSnmot0FqgtUBrgQVigbMooC4Qi52m5vSJgGyrNfRphmtPLCALtPhdQJPVqtpaoGeBua70W0OObIHpE4GRm2oLthb4L7MAomrJ6r9s0tvhTllg3Al205/G3f6U4o03c/XhudZvqPNRfFz8UXQ6oz5HMfKZAsyMFG8LL0gLwNuoeKqXGwWnaZB6vTzXvrYWONctkD4yCP+Dzs+3Xebar/oz4Y35Hs8s2j8rE4Gg4ik5UY3wi4bH6zWmqp7yJud6Ub455eocPtQA4EcaP/jgg+r999+vFi9eXC1durS8nnfeeYGTE9Xx48enrl9wwQXVRRddVLlW1+nw4cPVe++9Vy1ZsmSq/vnnnz9QwSNHjlRHjx4t7SiXx8AKvQv6cShPF/oO62e69s7UdTY8duzYVHejjneqwhjfmFO2pw/7sWMKHDjSrvlarvew8OGHHxabw8Ageb82TzChHa9E/7DmWLZsWcFLE0/NdvXp0M6wfrNe4ovd9QfTjoUoWOLI8ao69uFJ7S8I11oy2PwnC/Z5l6wTZhmLFKbr0V2T9er8AW+jzEPWUR4WzTucXHjhhTPSN9tRX1s+8zv4qePIeXhRRlm8Rs8pv5gj9yZ/8jmS3JX+MKNBzaKw/o3POI0p+TL1Mu7087pdZtFVqcKGR2LewMsY53Oc5/9PyLSKznECp22/VsCgxfVjvePDeJ32iGQhYDf0OB7XT8Q4OFi8q/U4zdtRxh5lgAEQJicnq0cffbQ6ePBgcTpgAQrgRdgvv/xyue79ZZddNuVQmQy88sor1SOPPFIdOHBgysmALq83td2zZ09p89133y06KDesfK52t23bVj3xxBOVenRMpx3UT7Pfj+ozfd96662SLEmYkNHQ8c5C0WHoSPskObL/9u3biw0vvfTSqd5ee+216rnnnit6wgY9pwg45kiAN8fnhe2XSCDgrHHQ46WXXqoef/zx6sA771QfSNyinYsjgdS/Qx+PPfZYmfuLL764zCO89RPl0370mS6g03v37t0VrLz++uvl0Pby5cv7NX/Wn8Mrb7xXVdsPVtWb71fV/sPdJOCSbl41I/21JZ/ATbhqWo4apUy0F1PU5Shw6Glk3gQgeHn11VcLxwgKibfEZHMAOd9vvvlm9eyzz1Yvvvhi8ZWVK1eWooPqNduBA762f//+KRxYRGgfd2SAouMbb7xR/GHHjh0V34D5Sy65pOCy2e5MP+sTv+JI/bwTPgHDcD8XMY5+UrcPG+Bs/e7bt6/YMf350KFDRSc8IOEyiYv7BO5R+qGHcg6+ui3aLHaMcVo4zpf0Z4xab4cD7QcjATscizDZNMCPQ2ThSyMbvzg0uCR48Pwe6vX37pFunwfCpuPq76Jw9kujn0ujv0svWFSdl1423WAGgGSqGvIOkb05kObf//73amJiolqxYkVxAJMKxO9GcvDCCy9Uf/vb36rrrruuJAJr1qwpE8yZkDOgu64+gAtyHKkpCZZdu3ZV//rXvyrtXH311QVA6mW2CrwAdV7oCZwcx8FR9dPpdEpZ7TnP4RGONuifmS398wB25cch+jE+/SShDGsXGbFxrjw2b95cxp32G1Z32LW33367chwNMjsaCd0gQaKrVq0qgRc5TMZ8PfXUU9Vtt91W7JWJH1J46KGHin3NC1LJAMp2Aqwyl19+eZk7NuDo2oQj84Zgnn766eqf//xntX79+uqqq66qOnF+UeAELvT1QpD7X/7yl1JHGXY0j02RiLKZPh2bNm2qNm7YUF3Y20mAEf1l/+p7L3gIPq6p7xVO62JsglISfp1A6+Xm830JzAHJYaj8IKZ1RyQCL77V5RWc41g5ZIHc9e5uueQMfb0bnOg4EFz1XneBOufhaf8yHNXjqWW9BAVeLDIsLiR+8M/G/FMwgoV+Akfq4AjJJMxZfHQ6XZ/vN0/m3Dyrhwu0wd8l3w5BCTY3BHbgERbsMsAX/8FvFjvwlHrBJFGWnzoSv3W99a1tY1VGPUfiDf8YO0wS44e7K664onxOO9HZGEg/+7hGVzrSW/l+Qge+jqPohnskVGzDdtrmgz47z854m32XxjV+SGc+o4yx9RNtKJt2MQ62N1/sqW/Xzg9bWAwca+jLluygjX5z2q/P5rlpEwHZ86N7YmUSzrMj3r8/mCObbff9nI61JpKbKyO+3XZ5Vd2zrqqW97AsY39mX1X9e29VPRX9HurOZ9+2ZnJyIpLgW6Kvm1dHn3FIDEaSmPBRxGQB1WQvkJv4G264oQRMAAKC9wJ4iP3hhx8uDgXgnEkw4KAAB1B//etfC3huvvnm0ma//vXl+Pe//1397Gc/q6655prymeNoL51H9mzlDyQCkcAJrM7/6U9/Ktnt6tWrpwAk6Oj/jjvuqL785S8XR+DoQA6Uxme1y1nHIbfeemt19913l2BY12NQ21bIv//974venPmLX/xiCUBIIQPRoLrDzpuT3//ud9W+mCvtcsZ+8qUvfan6xje+Ua4jEEH4l7/8ZdFHkkAPx5NPPlnOf+ITnyhkRjdzDSfq6e/nP/95SWLM3e23317deeedBScI6vnnny/2Nh/m78orr6w2btw4NX+C/rp160o/f/7zn8v7z33uc6X9pt7GgsStZn71q19VytPrU5/6VHXttddWVwcenglcPhlYOhQEVAgrcK/ezkgY7QYIBub8pSBhOxB1QVL33HNPaRP+fD6TYqbw0ntx5Mq8X//vR8B+Nrjl8eCVo8H9S2IhItiuDi4aJIvD/S+IvAdfXNi7Q2dB9OLbVfUfPBVtvbR/UO2Znb8w+rhlTVXd2uOp61acrA8zcMH2dhzZGc7ggL/3E3XwEN+FIb570003VZ/+9Ken+KFeDzYFIDsIFgn/+c9/yqrbwkAwc8CBwHPLLbcUzOIGekgQ+OZvfvOboqPghtP4kuBNcBBdBe61a9dWuTOROsAd3FtxK2Nxo0yuhDMRoBdRxoIqBT71B+uCqPG7LmmpCz5+4IEHSnKkLMz383Y6fuUrXyl+yTbsp562JRPsYIw+W/xJUD75yU+WcdLbHEmicTo/Vr+fsCH/5s/65HeZ8BmPPowld1voXBc21a8Fhz5nkwxMmwi8E6tyScCTAfgXA/iHBmS/7rt9EEfyJydzZBadimdYXX9pVV0TwXnVsqq6o5aQ2QWYfKebBDyyI3YGBiQC+rNLITsndhcuiNEMittv9bYBV0d/N3Z3xroVx/S/yROYgQIgZGgmDGA4MGfilEDMYZxDmFbmAADUJlSwVR+Q9u7dW15lnsDCkUy0IM8pgCS3jvUl2ACsQ//quS75YPdlseIEKAEFqDgdJ9MPx6WT3YXf/va35TPCAEKifckD/QF7pokA+6SNMlvXLpt1Op2ih+x7OhCzo8Bk1SEhMU71BVOOwDbTtaHfpmhTUrUrXpFaZvLal6CxTdqY07GXvjg3myAbiRtiNiZ2d968CvDOETYwP8iZHZGecWjPvJSEMYjJnCFj7dPHvNGJDuoidOf0ox1ki+CU0QasOGAs8WIrld2Mkw7m0Csin4z69GVfY01d4URgEACOR3+u7w2dSfoyQrwyxn1HJDN2ngKkgx2x1Bzvfzhg96Gq2hmLCMEeD/UTycITwWNP7u4+J7A4OONSAf7UDY6pqoayLIZix3JT8NX6XsLwYSQCe6K/FyIBePyNWLhEm/0EFx4JXexEEN0I9vrtJ5ISY7k4+tvY2wQ0P7AjQPNT8/fMM8+UHR27OoSfwxU8mLuSyMV5WOCz8OHI21X8Hi5gjnifATdXy/qQ5MIU3EgCtLsysLImeErAwj8O+NSmJAV/wG4mCHxRG8YAJxJPwRnv6LMuxkhPOltEGTsMZyJAN31lYqHNxKp24Jl/TIbPCKTKw3YzETAOAdouCXwbA1vpD4eyC67Gx+paOOU48LP+8Q3edvBH9uKLneCibCsTE+ctrpRJ/k7bGzN++djHPlb4i77qK8vvlJckiCvakwSKGctizgU7ZfGGQ99wMBv+C5gPlxVLq+qGVd2gLngfHpAI7A4n3BZZsuBMLo/bNpsjo72o0UP4VhFZuB2BTrQpiKcsjfLLY4w3RZKr70FO/Xpw1fZIUPQnF1gb7UxEfxc2+st27UCsj/6Wh7M1k5MsM9tXxk+C90rynG1YBAss+8KRd+zcWSZPALBqBBJOYyIFMiDj0IDIIQCF8wOD1bzAzDHU53yADCCcXDZupQlM2lM+ncnKzv0mpHHXXXeVPurj1S/gcRDEAJx2EJQndBSoEQDd6DgToaM6O2P8iCEFkIE9HSPPD3q1EkEoxioo0ffHP/5xdf/99xenpe9sHMGKnK3Y2mFetC2If/azn63++Mc/FmJMvcwD+yAJDmh8SJDdkQfSpodEwO4KuxFB2XidM7ewAQfm1LjMnXaRGUI174I+3dgP0VndaRtJakN78IW4vTd/5t4OhDlDuA59S+4EdYT6u9gBQabaQvR01573JPv02fwouzpWacZcF/2til0lt5488xANdi/3fKFe9pT3We6UkzP/INA+EsF96/aq2hu7r2/134EtuwVvBk+5fjzcFA8cjAXCv3b17/P8iNx4Y1Pkwl/rnEwEwowlWK8PjrtnQ3BYbeVeb0kSMBmc+HrspDKFhVEnYt+G4Kp+siTavTKuWRxJCnCIYAbn/BMmzR178yOrUPMlGMKGcrChHMlzuAI+BEA4FkhgIf0ENvjPZz7zmdK25Nc52MUDsI5f4POzsetk5wkGXNemIOc2mFtk8KmueoIq/fgRbjEeGHI+k5i6HZTVhgDNn7QBv3YGRhG20o+F1MP/+EexFd/ha3XhY1/4whcqO5B1f6ebJN91u6W4ibA3G/AnHG3M/Ie/83WJEt1xD78T1LXBXq5Lfvgx26Q9jclcGi/Ba9rXpkWJOcDTkqZO8Atdcb15NH/OaV9ZDxRKZvhrxp/S6Az+GxA2T7awIuLAdQFe99Gs4I8N4P+nYyvfbsGBru1KEnBvOMmqbhw52WDvna02bcqyPbmbon1bfBKIj8UW/qJw1vh3ijgnG38vdgs8T8DJNoaz3hq3itxf87kuPpaHDyOT9wxC43K96IzfA4+DswFHTgiwmDgBweRxhtciEH8YkwUMHFFZzkuU144g6ZrPkgjAJlabwAiUACdDtLJzHSA4jvf6I14BzQpVENoWgQWZIBB9cppMVhCG9mTjSF8mDHjAqG1CZ46fRKTOKKIfdfTJYZAPXTPT1wdi0E8S07B2OYCAxd7IyXiQEEdDZKn3KG3ph/PQh2PeFrcpchVNVw6HsCQCyEWbyMEcCYzKmgv2YjdBHQbo5DWDsld12czcqnvjjTeWgM8uyMB8ISVjM8fmIx1ekuK6+TVm88hukgf9mhtYggd9mFfnJW/0Q8zKK/fxj3+8tP/rX/+69KcfOKUj0jI2Yyfa0gZ92IitfJaopLjmHGwam2NKYsxnQtwOkAC8EmrviaC7L/KYcosg/F0wPmKx0HD6/Ph21OuGza6mFiIC9uIYBl46EIFZ2bdrO5Mn8Ei0+X60vTaSgQ2xwDhtpHHiUJTBO3Yp9L80OO+aWFS5PdlPH/0ci7btXLh1YR75jyCD8OEBjviLoCJRZG/+5dW8ue0Dh5lY4hSYlSx4hR/lzGce8CHguFUEB+ryddjHQ3wNLtQXVL/zne8UPOnXwkPyAcNwCQdWyQIh7Fk0wBf94UcgTYw2saF9CbDVPN6y6nZuVDkWY+VP+PbFSIZS96zPnnTgf4IuW/Jh5/gWW/NL+kvO+TG7sbU6yqXf8W/X+A87eM92eehLHdygL/bcHXZY2VtMSRj4KJvp11iVe/DBB8s8S0gkBxIZtjBXxmUe+Drb8mf9mmOv9DsNWDn4aV6nTQRsndmmWhNB+/CQftw3e6F260LW6/7/2gj0p0jPA2S/+bDgEl4UXsARXgxn/tWLi8qDiXYM3Jcr3NLzNDQjk/csgecHipPHOVn+tqjLkWX72iK6C9WqfVHeLsLBzXErIhIGD+WMQwAPKGzZeNrfAbyc1qTKBrds2VK21NyLuriXDQMJhwAcZOqzw+RyIo7NgbSlD2XcTzfpgMNh/hFZr2uyc2ABLuWIwCY4aotzHoxyOwNIAATgmbAAMWLQLl06nU5pS1ZLnxSZuc/aBDpAHyZAqQw7ADsbCXQATVcOJyh5yI7jITeOOZ3QgW3UFYDcn0cy7IEEtSdwjtKWvpAsG1qFIDRtcW6vbCKBs3I2BuPhjPphR8kLAuScKerRT5vKSK5+8IMflBWIZy4Qj0MwNZYtgQ3vEYbDmAj7wYe27QyZI3OWDm8OzZ3DvGuT3ogXAQrq9KgLm0g0Unfkbwv2+uuvLzhDTDA3GbYkdJCA6BPmzJ2gkNe1j+CQI9w5mn2Whub5Pz5/z/pYBCyNhUHcWjwQgRcf7IvDinxX5No4AQ8kwpIjFoeJrPzBGa9cFTnOVbGocAvRynx5tOn1xgjgKYciSP9zV1U98Ep3l/Hy4DimTvjqQ1tHo0N62LHgLfrfHRzkmYPUJ9v0GZftikTG+9XR762RMJgDtjf/MAUr5tt7AUqCCsP8kv/CDFxaOOAe+DGngiv8CCx8T+BzwDNcmDsYSk7CKfpWRrswA1f4SDupj11JbfBpCw5t4BtBjR7ujcOl87gt/R7WZy0mi7G91iUnoH6u9h5+YZnv4Gk2YRv6G5Prkmm+Dud8y62A9Bd1jdc1wm6T4Sts5ho72ZUzH/fdd18J5Oxq3Pzaw37KHg47igWH4jXtbV5zF4GtzLHPdnDoYT61q7z2fJbASfpOSZbSBmmb/FyzQ7+30yYCF8bTMoO22+sNbg9n88Bf3jrgSBPhVBsjYz5VuMlgeSMc5YnXPaV7ojov5tkWmXtyOeWLIzbJ2D1L4FwSvlsIVgUcMJMDvXByzv5qJCnP7YnsPZxcxl3qDlZj5CuCBacUAGzJcRyThVQFQRPa6XRKNghQJhcZcxLAAx5g0QaACQ6CuLIm2DmO5FUg0h8nlNkDJYBpD5nLINUj+tEO+3BoWT4A6Ue2C/zOA7C26MvR6cJJkXud1H12TCfGnjYRlCQAPhuLg070/fznP1997WtfK3qOmgToO3WyskA8gjeiNAY7A0k27Jtlh+lsDtLO2qCv4OecuWAXc8tOxCvbZULCZpyYk3qfBGmcyJSYJ4kV2zjYXX3j5tCCqXmib9pJGWUROVzRw2H+2BMe2BfhInz9O1x3sAlCMT4BI/Wjj35gEpFIGNjRmLIuGxA6GA+dtEMfZfK6dtgZ1uimHPw4d6ZE0CQWKxcHV1h9vxv+LenfEYcFB/7CAYK1XUureStvVe1KXhZB1zk8Y5v/6uAtW/S2/u1MatfOpl2GoJeySPGw4OM7o7+IZzinfIVQpA9RxvNKRLuu9y6VHUyLGElC7q4qvzg4DW+9sLe7wNl5damO4Ao28AQfxiewJQGFAXPsgEF4MmfmAN62bNkyxRMwDAOSP+cllw4CK+rqA4bNJa7xmZh3n2FA4HT/2mdlBVDzDU90gBc6WDionz5opw5WJSJ0o+Mw0Se9YEo/xHvYt6tKPD2vTP26oKkM/ZrinOv8BqfiZ3zNx4zNdfhWX7t04DvKGYdzBMewES5QXjk+zA98tnhgF3bg5+Yn+UjbB6PeW3FdQuCz63gcvyqvrPbMt0DPN12XYOkLx9ut4bfKsMtpEriZifTgOqAKY86wwQEtzfj0sgti9RIOyflkyXYciA0GW2weqPkwPnCo46HnJTESTn8kEgJkoB5ZE858VTj1wUgcOFvXTb2OR0wOJyBI1QpVIPHeCtCkCVBPRsAqAT1Ah0g5HkABHxCmA2ovV/Icy0Sb/FwxAvJkZKEcEjAFEM4nWHgFJCJQCjIJ5Efi3hNQyXCtfumgTyBzP4wO2hMMrWL1aWU9U1LnCMZvJSDr1j5nQwzuLQpaiAChOaf9TOaK4iP+R3fOxhnZhLM6J8mwlc+OF4XzTIdfDkYPW54CoxUBkqUXB3XeNxOQh2ucr/4thyQqdjUHgj59PJX/7W9/u8yHOUHAOZcIme7mi84O1/SXJMb+2mE7r+bH4b0DdpS3pQhn+raSMR5zwA5WaexiPObUjgy8sTf8sZEdFKRsbIkLOhBERg91vM/PeV2ZPUGovtKUeIZ7/Z4J4eIC7cE4no5F2vOxMfNacMWuSAB8rQ8PXBEccWMEa88PXR5weOSNeLjvzS5PWCR8ckPsEMZ1Dyj7hhSueT6C8UXBL24zbgzukBxYndsVsPuQ4quHq6J9zxBIOvYGxxDncY0ExI6Cz+hLQiCx8Ho0dHbrgOAtz1RZ9GyPBCO/KWWePBQmKMATn4Y3Qd1cTwYP2E0zh7lwyORMHZjThkDnOhziEefhG+ZwjDk2b/AFbzBsFwweYJOPOe89LnOLc0X4ir4Fdt+k0R6u8ewOnvH8gr7VhdX8Vony8JYJQtcCtf8Da/RRD49YvWub4BI+k4GPH+FBdiB8CsfCfx2j5WL8JzERbPmG24hsxDf4Tvq72yP01S8+nJiYqO69997CEezFBhIwOzEOfm+cFjV4gY3ZlI35YiZTdDAuCQQu0TYdtceP+wm/U8a8pB/2KzeOczVYD29OwBVkM8A2S1tlC9YybWI7zP37A30Sv/CDsqpfGg4QNjxFBPgrIrv3MOHV4YB+9GNnOKe+CedyK+E8msvSi07dXQv39Oh5NBjCK/HUL0f17YNt4dSrlkWmG+djw2F6aSrXpwZwpENZlSNbX2/jcJwXUN02yCBtYjmmiQUgpA70DsCWNcv2BCdZNBAAjs8AlivBdOoMDoCL9DkZp3dox7mnwzFl/xxLPY7CEZOw9U0vh760lbch+gx56CnjlEwYs/vQhJNxDLsAkhPbg/SYi9DTMxR011baDynon7MjUTYeJnRjM3YXGNmXrTiqwKcdiQv7a0uy4LPyDvPIbgKhV0TE+ZE2cmBn9Ti7vtjHoQ9YSYEXKz19Gg/CMv/wgQDVdbiWQRce1EHISBiu9Keuc+ojK33ZObETlOMy98amfqfTKXMuAJCcG23RG6GxEd0ujM+LzV2MifhhJL+7YNz0ZMPEVSkwn//x8zg8K/RyBPJ/vR4BObjijTjwkIB7RQTYzeH/t67pvrpdgE/sINqivy4WG59YFwuLIAWUYGfztWjLewF8T1x/J9pfHVxzTfDRkrhQEoD4vD7a3RzXte9bSbt6HGX3gXXKrc/geElBmK6IYI+/yq2ALB+f7Th4mPnVaI+4zZG4MQdWm/AlgTcPsEDgBtZwh6CSYu7Mo1eHthzem0sYUhd3wav32oU3ARUHSDa06ZxXgYl/wPy6OKcN+OHPsEc3GBAcldUPf5GsWlR8ccuWgo/EV9E1yiWWfGZ37WvPyppolzhHL75PjAVmvRJBFtYlSt43A6zxwzKdjdlnZR3pw51Op4yLXehvUYYLveIAfIvTXcM59DEeyRh/16a29X3KOIuGMb4Yr8MYteV9/Ne7eupLllPW3JSypxYZ2ycxcSTxsAwHksXmdly94qvhPG8HDgV/4us8z+7vbtd3z3T/DzuVr9GsiezcSj2/m+tqXCoP0vy/m7tOJID78Q8PFtq2I+Vrgr2Ar3wKLGQi4JWzEtt+66Kfy8LRPFB44+pF5VzprFtk+P8DJum0So1yvmolcwUeTrAuVpLXx/1YIAEygHRwLMBC2AIDcAE+cAMSgCoHWEAGxIKpQI8A3OdyIGKB3nXOpw9lAFY9zybkKkHm6lpdAFrSwPm9n60IcpOTk0Ufzmjs98X9MkkSQhCc0nFn24d6gr1nJBCggKYv9hYQfe3OCmRtZPx1jPTrj20cbG7VjFi0LWA6vM8neTmiOWE75IhAkJM+zQG75WoEIdoRMW9I24qLnkhWAiNZ3Lp165RK7CPBkLwp69sK5s6qTNsCu8TD3LIhYnDQ+0c/+tEUUVjNwID5J8javHc6nULmytMZubAdMqKjQGO3oy7GK9nI5AFh+QGibDvLsoly+s4Aldfm9TUmV1A9P3x/b/CNVb1t/BvjGSDBGFd4zohIEN6OYO1BZN8EkCjgiP3BV4/tjtdYzQcMqmsj2LvFKVE4EocFhSBvAYSH/K6AVf0XNnW/1bQpArdvN01GApFcJgHBQVb63qd4W/SK+r5GqH1iceM5hGtXdpMTOt4eiUutaikH3x4QhHvBUMKHG9jffMKkw7xa6cJprpjhzjzCOOxlYIcnSUDiFM7wg7a9+kogn4B1eJPMWyHDlTr8/Sc/+UkJ2q8Ef70cgZg+GyJwastXljOI+iGsYuQymt5/jN4QY5AE2IWA/+Qq+uO4TAS817/dB8IG+DMPuK8LPyfZvp0LnGtsiXE8zO/4sfL4Gl/5rF++zs/Vw7l4RzkJiMUPm/AFPsy2dXFNPOC/nU6n1OWL8xng6/0Pez9yIuD++xOxpbaPU4RzNHOYVyJg+26th3WIrxI+Gg4is60L53PcuDqy9QB/Ok+WcX+Ow3lqloPb4vO8AQcitutst0lI7ELEHFRL4/BQo2845L253Jng9Ovi4Kx3Bc+tjFdkMbLoYBSJcoJ/kSBMYLSFhlwFJGC+KIgSGKyaOAsBNA4GEA6gAvDMKl1TVz3X1AU0zishsIWXW2LqCwJAqF9ls172a2UuMCPtuiAI5+gtiM1WkJBgw3E4l8D23e9+t+iFtIxhLsJp2EQwRVI+C6Js4NC/AIwE7o6v3ywJJx7WZ15DOu595oqC85sDJGHbXNvsYy4c7CSJQ1iSJ/pIpMyBcfssIUGYDvMtEXAtbSTJQMgIHjnp02HeELG5mpycLPprw5wiVQdhB0EBWSqvnuQQ0dA18aK89gVpSQUd6KNfYl7ghn7GRb+UZmAvs9ebQ+2zhb7Ul0z4fCaFGwm6JcAGR7i3bztfIBfE8ZRFiSOg0n0iP867EPRRvRo8Vb7e11NaOx4YLA8px2AtfvxyoODv9wYM/aI47g4umYiFBY6yI+GBwZXBUwS/4SI8I9h/EJ8DSmUHwoJEW3RRjviJY7cwOtGeNumAG1Ng3PzBmwAP34ISu5vDDEi5ehecrMp9Vi79QnuZQGvTvFvNm3e4gwnYEcA6nc7UriAfyJ0A+LKtviI4iE5/+OMfS6KcgVs7fG9DtGlnSD+4x4IGrvQBN9mf1/RB/qb/XHnDoiNFoDde+CXaksjyubpoj23o4bUurqnPV/kC38VX2iLG4b2x0TvxrA925I/qsCO7sK828ad6/JS/6beZCBgf7maXiYmJUldSXfc39nLMu+gj9E4ZORHwRP6vX43MOjJfD7U0MwE7ATLnY71YKCHYGWVtv9WFvRfHcWBz91e0BPW6cBKBmxPLwjdFRu/XtjwARDio2weevvXgj9sLsmlO6MEfuvlJ5LyFcU04tXuDsnwOdlHUTwfstjie/8sERlP56jv7P+v9chxCBzxgIbmiQuR5IFH3egUQ96xkpcCkrAMhp8Now2fEb5UtKwZUIJYEaIfDChzAql46IgALoAlwbRHnAVxb4wAipwB8/dA/dya6vc3+f06MDGTl7Omeo1swnFQCxc5WTeXWRpCEJ3XTyYf1yn6cXBKkHSTJqZ03RwiHPZEU2yNfc4WUbblzZgTslX6ImC2RQZKrFZaASR/PD8CF+hIN5dg9dxUkJPSxotO3/syhlQhcGJ+HQxGLJABhSmaQTBKgeacv2zsnYUJu9HMYl3Eq0wni1z594GiQ1DGIxOHMToV+vbLZmRI0ZoXut0G+vKm7ms9dwd9ti1sFO7pcF2oWCTqJZL3LDd4TXGDVnosbK3Vc8tVOVX1uY/BOcAlOc5syzFlW6ZpbGXyCizwkuCxereblF8R1SYC2j8d1XFa+hRD8hKMsdNyqzGcEtOMHiyxW8KXDLYQU85J4d4tHAONTcGBViy/ML38zr4IYP4A/2BFAYQ5OYNT8wqnyzsOeuSPm1wGLEgntwHkGK8/+qON5n0xs1fPsD0zSg3/Ar9U1HXzWl1c+xB/oD3v4wXlCD88b2EmgM3zWxeLCeHEVMR7+3+l0yuf8j/50tFiC+abgEH5lXF75ONyqw8/omgsnHEsPPMqncaex1f1d+87Tiy/lrcOJCPZ1MY+ZUGnTXPDbuk/Vy8/r+7BRXUZOBHxlxv21PRGAu99xrTfTzcA9nMPRCEcTjJtBVzBeEr2675ZJQ6nQq2PqreY9byCbXhxOItu+tNeu+hzlrThPD+9trXlYECEcj0OiwAGJHQTteajIgz5Ho3z429gEqDJbByITbZKBFmkjS0Ee6DgGsPkM6OoSwBPArdR9/cTKVGDjLJyC43B6bZVEI5wUgGxTaQOIORRAcS4O4JVe2QcQcmw6aj+dLw0hiMiMtTuORICuxioIcSqv4xAZOBtzTDobt68SOi+Ac2qkicCMle0483TOZs6QJudkV7bn1No3FgTnME/Gw0bK6hfZJQEn8bK9OWQDtmZ7QhdzKSGQGCT5ZABVT9tIBV6SxLVrbhCQcSI4pAofDmWRmnmmN/2zP30S19hF4DBG7ZkXhGpsdLTDoO8k6lKx9l+hj8CZ8dKpvvrRxpkW/CKwfjy69tCfALsrVv9/39ldKPTTBzXgFodvOR2OOslVqyKPscpfHgH7zmivn+Ao5fFKuYUQr1b1vmVAcOySaMN19tKPZIOefqXQ7Uqc5TyRvDjK1wyj3qK4tjTaDxgEl3Rv4Zhft6hs05tDcw47eAZGYAbWvcKr+XE+8WNu4ALOzTMfwg2dTqfwhLlMUUe7/IePwbE6eAqPwbP2vPIrWNa3V5jUlqCprH6UwXnq0ztx61Ud51NfX2eVVNYThNRLkk5/PkLwnB8G8oBfXeivPXbgV8ZSb4+NlDF+/qQs29DRmBwSI/rpg37GpKy2HHRwaIfgAjygrHJ8rSnJwThDef3zQf5XF2NU1mGXmb5kOg6rtzH0vfZiTuoSkBtNbomt/P9/68n7ZT3dpiq7l//4GydvDfht/4+vC4dqRF0OEfit/I52/ceGDFXw3ha7CE/GLYhc1Vv125rLZwTCT2KC4+Gg6M9PHnvvAR/3An3/11cLM7un3JtBCu4dSiiQhh9HuiN2GDiktuYqgD45OVlWUlZTtu44DWB1wsk8HS/TdThnBeXX3ZQRzDg14nWdE0gegBbIXAdOzmLlB9gACUAI220BwRuw1ANoq+Qf/vCHxTE5gWvaAi71OLX+moEZiNPhE3hztc181BfkrYoEfAFOILIaMTZjdY3+bOfeoVWzlcp0TmRetmzZUtq1o2Cnxd8U4KQZpI1nIrJ8cyHr17etVQ8JCa6OXMn75sI3v/nNqYCaKxNzSBdzjDTy1TkHDPimgkBsrjP4W325zaK+ep6BsBpSBnEZOxyaV3Wb8ztsLthLO/DDrjCNANlOf466ID8BCdHrNzFWLzP1vg/pTF0b85swX1lJ21H8znWxk9gnkOMZAdgOp+eafF3vtbg94JaiBcQd67u/SXDTqv7K4Sgr+Sejnt9N8dmugATEQoiEGmGzbmB/MXat/ZaBHcxtoZfnlNZFwiCRmOK0KLsn7sZIFPCjpOL2SGyuuyx++z8CBcw/FE/r++lv7wUIvgrzfEBQFojhEl/wdwHXZ35gbn3zxY/UCEDa+MUvflF2AAU7/oN/UuDArgM+gz8YzYBngSEB4WcSBX5iZysXEurhNIkLHOE5uOZTdNEWXT0Dk78jAqvK00sQ1T6dJAR1oQN/lIgTumirWY7O2sONkgdltMcmRBse7hPQ9cledOFTfJ2ORMKezzXxKVwuecef6e92V4zP3yTwS4DK4Wv9NcW86dO84VvzYj6aiYBxZlJxOHTjnzCVHNFsd8afOUpDRk4E3L8CYMBv3hbQ5tadscqPRM1PeJI74h7a/70+AnQvS+6e7f0fesiA67/xjS841OtR/9HdkXB0F1Bdh4nzpdv4TzC3K+BrPvkLYu9E2fzWgkyck2lPnSyfQ3fuhsD8xd7kyZ5as3lJMFll2zazWgMsDukePkI10UALYEAiKCDPzOi9Ah2y55icG4iRMrAAsCQCIZdsMYBkG19/VnYJMADSv20qJKAdwPSkN8kgwpEEk7oIJs7R5WwU4zY+Toig2A8BWKEnEbCD4Mze7MI+7CpoI5tmQKuPExEK8mymL/W07XM9ETCHmcWbL8GYo3oeQB3EhyARzfe+972pLnLuOLP37E0nrz47TwR7264IxjZozgkcuUaU1zdiQrb6M8+EDZCL15lIwVXUQcRsBwf61JejLh8GJhGhgJEHnPaVPqTTt9yYTvJ/W+z3Rgxx1AUnWFR4MPDh18NWsWJ/J25nWomvCPOti8WE2wGf39D9xUAUkZJUYf3n10lfiuD+j+A8ohzOwY36IDhK+54/2B+LEc8ReFhRX96XRKBXXtvK4ypix8Au6MTFERAicAigVtiSfUHEfOR8wQ1Mmi/nYVDgk1DiDeXNp2Bt9YxTBGsLCRyjTOI+E0JJhgWFW1bmVXt8L99LPAR+2ON7/AMfSQByxwL+6JK+Qw+JI/9wHh9adfuML9XXpz74nECq37rwO/WSu/AYX2+WYxtjZi9l4ViZTAT4HZ7FFWk7/s+n6omAuuxrLGkn+rCbxIzN8T+7S/zd7iPquEaP9OtyIf5jY4dr+d4r+7CF8+yB57TNH0ne4kwclpNj/O/UaDCkYffi3Mvq4fy0koJ6AXO8EitzX92r3+vqXun+r706R2jX4Z6cH9zY20sobOlzHFk85/H9XrsMAr9VPcFTx+K6JKT8GeNwdNtyHDPLp5Ptj6SBgxL9zdWwQAAwAjWi5jCClETAahFwEbNJ5jj5BDrAAzYiBYIUAVwAUgcQBAoABWR9AQ2QcUYJBYcEFk4I/JxIFgvYnETbfsVKoNCGrNUKNgNH9ovYObHgQ/+zTTgHm3BuiQ7ntqoQDNPxvHY6nZLdvx22sCPAgT3lzC6cvq+ETa0cPPXLyQk7fP/73y/BOonHeYQqsUC0Xok5QZ7mgb1hwHtzk6JvNkdCjkGS5GAuzWkShm1/GEq8wARiN29uJ9FfXeWMw9zTcTaiHbqzAcw1ycx2JTsZKxxPK9HeKc4+bYWZFyhBeJpqbjf6muHTsUr/8/buXw70kN69V8U97tgBsFvoXr2vHHpWSZsphdaCLAwFt+TXml1XToLh+/84iuRDgYuiotsMbje4jamc56zKMwJRXt2AbSlvJ4D41oAd0aNh5/37ur8MmByDM2AJ35hjHDE5OVmCB/+GPdzDD2AEFiwO+I1VPJworxzfcFicaNNcwp2ALQnAB7lFrh2rVLtEtuLzXvnWrVvLzqR6MC8461s9SQL+05fApl9tCqz6VCY5SjJrN801YzOu2QquME5j5mt8ht1S+JFrEiJc5/ALfhZz7AzzRFLAhxy43Hj4Bh5nC+3wgUwI0t+1wZ6Ouq+zBV42P5kE2dVld3OE67VJH/ZW13kxgV3xh7/lcSJsNG4ZORGwZXVBHIMkM1rlCOBLBjzMNxPRjodvBHBStvnDWTyMKHu/ZGk3c3bvf00kjNmfTFvS8HYEettszpdEJEZYvnLYG6mdiKzT7WFu/5ugnFiBygHUst5cwQElZwBQQPcewQNRJhKphYAlEbAKADrtA6A+AM65JQEY52x56wswOaFtLkDjrJyJDtrZFg6oLqAhi4lY+Wamnv1yFu0AazpCXvsoXzMQCjy55Wj1YPySGomAsdHZYWxuvfwpCOrfcZuGwyMYjmcF0Axq5sIKF1EhSs6sHXYV3Dkju5k7hxWV1wzI9OPIVmzsn1t+5pwzp1iB5Dxy7EGCCMwDPZCA+ZL00BM5Oq8PNnBdIoC04U5yCAc+S1hgLW0zqD8YRDzGlGJMPjtPmjZz3fgTx1lv4OuiIcQxsNJoF8RdgbksHoIfhon7+W47+uuDj+yKWwOREFy8ofubJf5egF8nFOh3nowZpTmLCLuhfmadGA5em+KoaNfCxDNLVv14CG8tifZ8TdrtACLou30gGbDQURZHuSWhj2wP/3V/dj1Wij2+gB+3r2DMvOAIuDD/MCHQmSfBB1dIAiwI+Dl8Cu4WIXAJ2zCOn2AS55DkAL6AN+DM13+V0w9s8i+JQOJDssgv4UzfAjs/s81uVwwHKSsp176+veqXT7quXb7mGjzCFTzPVoxXe5JivotD9YE7XeNHbh1IBNhNXzlm5dmGjrhQWfrTi53phgNwCk5SV3mf09/VM1/8se7r2mabTqdTdovpaHeTntoyf/QjrhF643JjYF99Eb5NL76Y/pmvpcAM/xs5EZhhuzMuLjhLiN2buzAWWhyLeKjQQ4q28h7a3t0F8BUhXz/0bYLMon2P97lwbI5sK27jiqr6VDi5ryP6uweZkHD4FdGR/uLfnAVRmxwTzkkQsS2upgC8LJhz+voNAJUgHYQOhCnKAZCAbuJ91jZwmWg6C076kiFyQvUFBdk2B7NNpQ3gsT2uDMBzNL8iqN96pqpvwUcbDmA/W4QDcgZbme6RGiOHRoKIphnckZaMHPE9EU/zs437ob7/zDZNZzEPB4LwEIOv4VnZsLv22RBZSTZcR4ZIllgR+atrCIOOCCMPGPDHWNg5xb1FCYrVRZ0c8nq+ImpzRm/t2vX5+te/XubHHOV9W+SBXNnDnNlKVTZXOsaPyOEHdvoJO6oLr4glBakbu0QTtpN88jqyyj/wwtbDRB8OuC3fIx9WeBbXBFer65+93P1W07AmrNYFX4sFgVhA9oyAW4x/Cxe0uCic0CAGO4//54aq+tZElzf8nZLPb+xyi/60+2a061tSW4Ojno9kY2XsNPgjbTcFR13fhUz5I0V+W+W56PO9yLskBXcGR921rvuHi9b2pslixe8ZLA3brl+3NnZaF5WVu+TugQceKPMleMOlgANvfBv+zDV84SXXYAIOYYfvwzf/hkP+A+cpMKAsDGpDXQmH4J7zjDe07Zs6fEGiIQjyO5ylH6KceU/e4VsSVFiS0AiGfBeH8e8zIZkESKas/iXvbMeW7IAfjANv8ncJl/GxGe6hp+BbOKPn78rgFL8oy+eJwC0R8tyBnYSmZCKtLXPBz/k7/cwf25g7Qg+2pFMmKcqzM/tqg/Tz03JhxP8Ge3F0EiMcsZm5F9OTrHhzBG1Hii0yP2a0OJyDoxFP/8u0PxZJg/uBJBLw8vOituH8XOfN4YBf63TLeJrXttx8CKJ1CPImEIkj0ilhxxCTaZIRrPvKnNY5ZA2YdclJ9QpkgOMgyFTrua3HYYFEgFA2dwT0o/7kZHc3AHiAXl9eXauLgAbgwJh91a+f6fd0APTcCWBXW+AZpJCg4Mf29eDuh5sQlYSLY7OzekhLYOP06qSwxZsRDDMrd951xKANuw4esrJ1iAjU158AynnZjTOyGyJlZ4fr7JlCJ0QusUgxPkSgbtZH6N4jUCSUD5dKQhCX+ZaoWJ2wCfuwibbd8vHjLh7Mgitjd61fIqAP44EPSZbxajvnXh+wlFhMnb2quzSua7uJoyzHFg6ERQ+Ez67G5P24hFfY8vfb/74uOJ1YtVut2x3gmr7m7JxfIxwktvk/sb5bj2v7CvJtwS8OIhnx3IGHlt+KV88suX3pmwF+NM2vGmIBiYffYdke533l2QOKn4x2vzHR/VXBy3s7DqXR+O/EicWx6xnfeolADAeClF0rOGBDPo534FGQt1IVLGDdXLoGFwK7hBFezTk8CFSeYVImxdzDLkzaUcAxgjUx1wRn8QEBDmaU5Wd8C148K2O3yooWtrSnf/jlE26neRjWeJQ/k0JXWORjEh46wq/xSHiMScIu8TFOCQ5b8XG8yef4evo4P/CeGKPxETZlt4lYrEkUcrGgrP6VM0/emw968XfX2T13L9WThBD+aA7MNR3YmI/zsXqSUOfCUnHE/wKKZ7d4LmFVZOC+GnTshvhRo7iF+3Rk3P52wJvhcJ605YiezH0+klFJwP3Xdh9WvD5wtioc0vMIH5nExJEScAJID8VDJlZrJt25BIkyGfhyu80fpQAaW1gESAB0FNE+gAGNdoEFwLUhEQHEugA5B3EkoOvXz/R7+rNNfjuCDTiNVYwdFURmTM1A5B7akrC5MQqMVu7smc8VqG+7M+txVE7MyXLHwOpHRo5MvSItwRX5pt20b1WUwV8bkolMKNyeQSopSAYJJvEiXUQiWaAD4cT0SnKVPCBLK3ZB3xjYxHkk5jOd8itUxmasdgUEXERTT3pSF3hAPJIIfWvfdi99jcd1RJnJZZNc6LcriBG2lG+K+vSDJb89rx1Jm1WoICAAjUukswLunbGAwgnDxMrdbUPPEvklQvf0bwheuS4WFMPE1r1Fh8WIncSmcHE7k7659IXI87x/KmLCwzu6tzR9o0rCYgfgueAof1jt+tjRtFi564ruLQk81k/4ewZhQSlX5sp6LxkQJPgLv4Vh+FCWf1jVCxg4x1zDnGtWrRILnJCivARbnxnwzD1MN0XfsClR1oc+1dEG3Nktg21YSK7Ttt1K32Dw/kwLrAqssGncbGUcfIT+bIIf+b33xu06XxLY2UUbyRl8BMb5LE7BE0R9/q4t5bUjIcaxkjX+mTZ2jc30h1MkV2wu0Ducd73ux3wXH9ArucJ46Nr01VFtPDARkMESmbN7XoLtMLFyVzYfxAN63yKQPQ+TJeHJHNmzAXUf011gqGTSFq/rYxHB2f1xD39S2NaeB//U5+CeH3BLQCJwe5Rzi0ESIOsOtUpDHLbexzC9ZnoN4DmZ137iGkdxeG8COQgnF1ycBxaZJ6c12Z4FeDec1w/WAAOnVz6DmH4EFGDTHpFcaAMpaEOAck19YAFWD881V2UydquG1KM0Nov/6KM/r7MR9lNXkDIO9zWt6AEc8Vh5+FofJ2a3JvB9ZiOBh504H/uxqT8frH12tArgSPoyH85xRIHWwT6pi+vK+ewg2hfUnDde2562G31GvIK+v9uegmgc+iTKIKWcJ+1qx2E+ESWiNh62MI8OqzTnc6VNDw9NOjqdTunXWI0ndU4dvGrb+JAZHZA2crJydC3HDAcIU/9NG9NRG1710RRtwGEmE5KB7UFq+mGDsSYC4dAWC/4o0HS/GIqfBGJ/nMgsxtCqmyIR+HKnOYJTP7ut6O8MWFA0EwFwYIG41P1hoSjn209PRyLg11Vxp68q4k87DxIQde6NWwt2AzyXkF8bxGPa1xZhdwEjxfu673vvnACQCaWkwNybA/Y2P/zEqzlVR7u4Bz/AgDbU88qv+Ib6ymSCmzp4zTYkFLConLa1RY8MdnxP3zCvXf4l4ZTE66sp+uRr2uAXbmnWRdCEW32RQeXgTjl4ziQq20l78C/9aYs98KNr6YPeu+6gvyRbHeeNz9fELQ6MnT0sCiQ5xJjhXJvp4xYxyib3e6WfMWjfnEmo+DPfmozdFL6J87QlEVCfqGt85p1dcY1y9JitDE4EADcOD+G4/56/gjWoI/fnfWdfQCaejH1sd/cXtbpn+v+/NgK8n9V0H05QTyfgTJIK9/8kFL4uuC2SAPf4BPcD8botMu2Yp+LUHkxMh/Kd3ct6OLNF5w+KuJ3AoeuO1l+j2Z01qTnZwNOU+mRv2bKlTDKgm3CZn8zSPV/3hDio7b2JiYnytRHZNXABisn3PskZaAAToPSrrZ/HLxoiYqu2KFjqcDyOK7OVvdKnLhyADsCbjl6/3u99c5x0SkdO0ParN+ycesYk4/VErZ0AY+OIEhgBzxjonzbo1x7nYSurXM6IHOwumCc6CuLasuI3Zit1DmWVnc8KsKs+1JdMZCBGlA7zQ5CDMuwngUA+MnlOnYJo2T8JEImYb6tx4zVuju+VXbVpjMZAB3Nv3gVsh0SAfm5fOHKb1qpbHVudyKWe8GkXthC0vpCgthC0FQyyoR/9bU96rgIWmgTDhnR/L+Ylx5PjzFf6J6l63RN9SpQQ5rgFb9iCb/5mSbMf3yjy7JFg/EbwzfvBLX57ZNAPB2V9tyzdgjwtCYgCR8LVBXsc5ZsE/vqh3y05En3hHF+DtkBJcc7PD9PDrQRMIQGQxHhI0HW3MZMHs16/V/OHP2AG/syTwCDZlzzmThi7C6IwS+CJLyjjPjY/UIdfwSicwQo+g7OmmFsY0a824N5tBytdty7wmkClH/7FD/ihvuANZmC0KXAClw6cp+26SEyNBX6J8VskGFtd2IJf0T134Fzn5xIXOOcftv75u6/qGgPfwA1skP0YJ335Ej9jF/07LFS0qQy7p78bG3+nnzF4VU4b+VyFNo3HAoK981kkNrcgoxebWvjwaYGejkQb98WPz9mN8V7fyUWlwCz+O302eo0cCygCs1/p8r1+AXiY+CGg/ZE0uA9G/JGPx6JePszXPXv6/zdEJu9nNwVy4tsBe6Mv7bwf/Uss3Ffztw4kGq5zJMKROZFs29O3K5Z1z9OF0/t9ceTg7xD4GiNH49D+3oDyHsoZxeG6rfb/Hyk6gFEQNvHAAgwmH7g5BHCZNIR7//33FxDVH/xC6iZffQGAUwpMnItDT4bDA3aStTaJICIT55SIwHtBBqj3RVa9PPrkjMBKHwEKaOwO0JPTaFc7Ai4nB0xAzT76jVxdh8ydU3ivvJ0FAROgteFoBpJ+7eU5TmMMHJmTazd3AvxAD9Bz7lN0izJxIpsor8bnEPA5t6Qi77MrwFFL8IvAbV6stJP4kJlEig2J91bZHNe2H53MgzqpB1LRn3aN13tk0xR4YGsJzh/+8IfStjnRJjFPbIAM2dbntJ9yEhzjT3wJ9PCXO0lwYDyZRKhfF2X1b47ZlQ2QiiCRpKY/uku8vHfQmx3pBavGz+L00FazH+dhns4Osj9wxpbjFDoI1H5G3FEXFi1P6QcX+AVBnOIbBhYY6uAEXx/0M+SjCq75IOoL+oK8X1z1o2eeEXDO31vZHUOkl7+g6vaDbzSpJ5Gw4FkeeuIxi6fyNcT47EFF18o3pkIvnOihZrwo0ekn5kOCy4dhxpyYd3ORQZkf4Sa4Fajg1Vyaw/R7eCAwa84yeVTWPDZFfT6qDT7lwH0OfcEgXeDU7o8EwG9jSOaH8YF2+SAe4h/arws9M7A6D4sWTsZRF/X5A6xl8uM6nArG9JIQ8CU6019b/JsOdJTMsGn6WnKEdtgXpo1Rm/yDLzX9PVftbOo2Abt6lbTzNYHewV5sry3jsejQv/HiO3FA3UwElLWr4ncLzDfOSR6i32zk9FnutQK4gqms9eFd3Z2BYR0cCkeQFXM04k95+oNBtvyHiQd9/J1vq3lbd/94vaoeeLX7S1yyZu15uEc75UeIopzv/HIUjnYirklYfLvArQK/OfBUJJKPx3lj4PDqnh+HV7/Ydd+m7hO/vhI014cIOYQJksF6oAyAka3J96DPoQA2oKQgdwGfg3qwBmgByqQ7Z+L9SpVgzXG3bt1awAoswAEQJj/bVA8R5AoSIAEtv0IoSGdgTh28IhEHHWzdIg7tAxSQI45h4NKfcdLvpz/96VQiwlHZA9A5GkdEilPSC3hTn/NNL5BzHvXZ1ZitVqfdCejVzabqrzJtjsLBObsrSA4AAAu/SURBVBr9bOvJ7tlmZQTN5XGe8xuvV5Jj98rWDu/zfL2PmbyXXCAciYPMH0l6GJGObOZBMMTkmp0JIklgawecIYL8rI5DGYd5IZ6j8OxAroCcozusIUMrM1jRv4PdYZMYKwxcF/hDep67gDHXkdRj8bVIf2kOtgUK85zBQ339aNsrHfQJW8ZN9zMlAv4rwUMvxBb9y3H4A0OvxOFHfvDB8uAQXy0eVUAXJ3k26RevVNVfdwRHxme8haPwTeGoaNPXnO++srsj6geCjkQ5dQX+t4MnPauAW9XRrmCfHKW8v25477rujxzl1xabemZAZleBCud4DyN21GCMH+eDgTBPBEjJLpyZFz6BC8wl3sFBw0R9HJbfBLCiVh/+cJPkstPplCNvcVnYpI8Naxt+jQu+BeK6OK/99FHYdDTL+UwfbdGpKXCJC9hLfeIcGaev80v8Q+dO2EOSgw/1iQdwPz3YU0Ln64cPPvhgmRf+hPvy2YNclKSOdOdLaYui/Bz+G5gIMB8bCsSALtgOE4nj6kZrQD5dPc6qnFsB+vPLgk/tjsQjnNW1TABk0b4pIIP3B0D8+IdDiJWRT0b5FyKB9FcQbc15GvhAHOUp4V7b8VKeR7gtkgF/+7sPRoYNse81oBO0ZKAcy2TnfVzZpF8GQ4QcEmECgQyW8zkAg7Ooh2xllbZkOa33ygoKiFlg5CB1cGsPKPRp+1gddYFIMsDhEYM6QE4XoPeZowAgctcPYGoHaLXTbzWQRkgnM27bWxIS7XJWTmisgo12BJIpiTLDRLvGSU/fALgzVvTfip0AuxraTIcd1kb9mqDn0CY72dIW0OhYCCP0Jezo4FyCGAfljOyBGJV10CFJtwCoNx4Oqbx5Vr8eGKf0CZsfDT3YSv/EXH3rW98qZIEw/IlYcywhMCfs6TBfDhhJSVs4XxfzBlPIQ1sp5p8dbTXaCpZodqIcsvJHsqyK4BFujdtfkNOWel7ZkO67A7d6NE62NcfqpdBLYgOz9EB05lPixX5nSvDKW7EwsDv5TOQ4z8bC8UAEcQF5Y+wCdIJH6j9zPp1exmwH0i6AHyZ6IhYtZaES5yQAdhlXx+JCgjER7SdP+cNp6lgoeT7Bw4OSkgOhl1uc5YeIejwYL+Uvtnaivm8brHaiJ+YARmCMveHZfMBs+rXgAzcSO77E/m7HSDbxAcnEwRwJ5lbeDudhPMU8wrV+zLU2vYddc5m7ADiEXspIPOHLrQC7AQN9ITuJ1xyXssbDdyxmZosVXAqr+AyW2Yo/p9TH5Zp+2QLO4V5ZdtAODBtbPeAqx845F3hD/aZoR/8OXJiiXYsduyd5S89cmTd8yg/z20qSKkkUG7MLfcwBDurXZ/Yx09dG6D5Z3UrZdtU9kZXaTs8t/5MlxvPO9/o3B4e4j+9XuG4Knvj6td3g7n6ZWwsyZH9UyK6Be/8+08khrByNOXALYHO09c7aAHpwny1BDl/+VoHXIATPObgVoQ9/5lOSMVfhhLZ7AB8hAwVHLSvyIL3F4UhIFygA28TLuoHPexPrM8JG3EgVaLTBQfLBKuUQtnrOp3B0n227ARB99KO8w3XnHRxD4AFqdTiEvrZs2VL65jzKOyepqIM/+8tX9TmE1SS9kb36GZQ6kUxoJ/vLetO90lm/X/3qV0td9a8MmwA/fWcrbKcNToUYbbcJis7VRTmkaRz6U97h1gDiMy+c0Lko0K0aZVfFvJhn84ggvD9NorxrbGelrG99Jfk4z570QgqCfhKS1yRpuiGOlLR5fjYv8MD+7JnifJJzBhNE6CupSAZhuSepH0mC8mlzetMTMcGRa+aJvs6xSQp9YEKwEGh8vzoDkr9Tf6bEbqBnkCwYLGYEa4HbtPlrgdeHaVwbVdTzYLMV+qfXdx9StKPgLxbiH1zlXj8uq3NU+YNokSysjjJuS/oGgqTAA9aFp0I3O5n4Cc/S+1NhJryYzzrRUfDhl3zNK97AK3AjgPI/ZdjfdYEbDh0StvRncy7QOMcP4AxezGMdL7hM2U6nU34Dgy9qCxbgCH7hRH3Y0B4caMN7XJV9DrOxdmCV3niK6FMbsxH45KuSG3zIV3FtU2DemOkI5/TAvz7zdws8fqJ+3S5szkfZWD2+MBNd2VXihmv8toh++BH/k/SzAfuyt36UZ3NJlvLmebpdm+ZYp/t8MqI0SpZ7aAFyP4aRP4jRKDIvH92v0/f5EaT9cEfe018Sn+P0QCnbZycXJWWXIfyr3Itzi8J2nFe7ChzMk8bR5JzFhAKOwA80gGfyOJBrQEJckzA4L1ArA+wABnzEBAMZQCYBI1BlnZcB5vlSIf4DQG0Ai6Mp2uZgmSXTQTl6OZCJDF8AU851zq6vYU5MD+3I/o0ZOekjz+sXcOndT6+mnvmZzRzGhJzUR25zlczMjRdpLmXPsHNTOD2S1CcbIBA2Vk9WzmbG4/zUXIQtVgTpmU91kKLy/USfDo6vL2URZkoSt7lwsCtiY1uvEgBHXs/XrO+VXvQz5vocOm9OHHXRBszBpUQA6SAh41THgTQFHOTnFY4T08ahTIr22BjBWWVKCozR8xrrptl2zjbG8YpHrPhP9HIUzxZ58t/KfSLOlYeUBzLg6RoYoQUSTrqjt6uIowR9Ad6fOicnLdH9XP9fYlIXOwx2Pt3alBzYxfwgPm8KjvIDQ/UHFDMR4BNwIxiYY/MAG2yefGNHEE74kbmqi7k0vwIRvJkfGDf/dTH/6uIEybPEQh0Yh299wwPu4O8ZbOtYqLc36L1x0cM4BEKf9ZntDao36Dxfce9dMs0e+KSeqGa9tAMbGRMe0yf78nXYZQO+QbcU1zPwO2+8M9FVm/rmNxYCEm8JCR9hbzZgz+QFn41Bebd5fM7+U6e5vi4Kpw0onj3iAUEBO53OrkA+7T8TLQ3KyHzzwf05zsbBJAAeykEIwxx21L6Yj8MhbI4CJCYNWSJhW8FHI9AK8ibcOcDiPBwXAIGCaAdw6+TtnEANPI6m6N8BjP0cEEFwdOBxIHlgS8KQfSJs/Wgnr9M/yzT7rH/mdNqno4PQQzscSxv99Kq30e/9dOPuV2eUc2mHQfbMeXSdDcyP+WJH19LO5sz5lAzU+YpUm8SaZb1me7CS81+/7r35SLvmK7vktfKmVy7fe6Uj3eg+qv3hEyatouAYsSH6nDu66Nt1mIFzhG2em/orZ+vT4fYXQkX0klrl63ar6z3u9zjAToD7+DjF3zERWCUI5SFiPBCBvfyc7ww6d8uh/K2AaNsCRXIwk6f9613RsdxCjWnFUzjKZw842wElyVPmJ7f92TwxaC5cS2yo473DHLneT1yHadgyJ8rmfCtvzpO3zLk+MrHw3oHDtGNe4a1ev1+f/c7xSXpoS598L9vrV366c9rDSdoj/Fh7xlcX5WAdL+szudl7+hi78ajPPmlH9fgvX3cQvsKXR5H0a/rxDfYT9Omn3bRn6lsvbx5cxy1Nvxul70FlzrpEYJCiC/Z8ADvQNP/qn6l+ZjOSs023s02f2dj0LK6DuDyHgeQQKIL0KlC00lqgtcDZZ4E2ETgTcyLw1GWciUEb1OqWHf/71r4ztqlEwCord8Byd8VrK60FWgucfRZoE4GPak6aycEgPfolDVm337VB7bTnWwu0Fmgt0FqgtUAfC7SJQB+jtKfmwQLtynoejLpAm2yxsEAnrlX7XLVAPObSSmuBc9gCuXtyDg9xwQ2t3clacFPWKnxuW6BNBM7t+T17RnemyT8TgHH0m22dPdZc+Jq0Nl34c9iO4JyxQHtr4JyZygU0kH5BYBwBmwm0Pa62FpBJx65qfY6a9hx2beyKtA22FmgtMN8WaBOB+bZw2/5oFsjg0gw6auc175vXXWueU26hyyjjGmYX45/r9ZnacBSdZ9pmW761QGuBebdAmwjMu4nbDs4JC0wXVHOQ9XLODUpS6uXmUib7XYivbeKwEGet1fkctECbCJyDk9oOqbVAa4HWAq0FWguMaoH2YcFRLdWWay3QWqC1QGuB1gLnoAX+F5WjGmEMC2WoAAAAAElFTkSuQmCC;" vertex="1" parent="1">
          <mxGeometry x="274.08" y="554" width="201.57" height="20" as="geometry" />
        </mxCell>
        <mxCell id="JgvuabAU2myaKvdRI82M-20" value="" style="shape=image;verticalLabelPosition=bottom;labelBackgroundColor=default;verticalAlign=top;aspect=fixed;imageAspect=0;image=data:image/png,iVBORw0KGgoAAAANSUhEUgAAAdAAAAAvCAYAAABT7pt4AAABRmlDQ1BJQ0MgUHJvZmlsZQAAKJFjYGASSSwoyGFhYGDIzSspCnJ3UoiIjFJgf8bAxiDDIMrAyGCYmFxc4BgQ4ANUwgCjUcG3a0B1QHBZF2SW78UJDQLKCctWP+n8c3rVdAlM9SiAKyW1OBlI/wHitOSCohIGBsYUIFu5vKQAxO4AskWKgI4CsueA2OkQ9gYQOwnCPgJWExLkDGTfALIFkjMSgWYwvgCydZKQxNOR2FB7QYDHx9VPIcTIvFDXyICAc0kHJakVJSDaOb+gsigzPaNEwREYSqkKnnnJejoKRgZGRgwMoDCHqP58AxyWjGIcCLECMQYGSxcGBubFCLEkKQaG7UD3S3IixFSWMzDwRzAwbGsoSCxKhDuA8RtLcZqxEYTNvZ2BgXXa//+fwxkY2DUZGP5e////9/b///8uA5p/i4HhwDcABkpfFEGwzfQAAAA4ZVhJZk1NACoAAAAIAAGHaQAEAAAAAQAAABoAAAAAAAKgAgAEAAAAAQAAAdCgAwAEAAAAAQAAAC8AAAAAPHRkYgAAOaNJREFUeAHt3fmvHFV2B/DCYGywjQ0Yr9jYYGAyyWQyQ5JJNJNNiaLkx/wJ+QOjSNHkh0iR8kOkKMkITTILQ8CGh8EbNptt8MaS86n3vua66O7X3X5+4Jk68n1VdZezfM+599Strm4/8EVRN9KIwIjAiMCIwIjAiMBCCGxZqPfYeURgRGBEYERgRGBEoEdgTKBjIIwIjAiMCIwIjAgsgcCYQJcAbRwyIjAiMCIwIjAiMCbQMQZGBEYERgRGBEYElkBgTKBLgDYOGREYERgRGBEYERgT6BgDIwIjAiMCIwIjAksgMCbQJUAbh4wIjAiMCIwIjAiMCXSMgRGBEYERgRGBEYElEHhoiTG3h3z22Wfdp59+2l8/8MAD3YMPPtiXW7dudcqWLVtu1zlfhvzOw82bN7sbN250Dz30ULd169b+SJ62tl3btm3bernaQ8Zev379jvGz9KE7u1qbZvWPHHq2cuAxz7iM/7qOn3/+eceXoa9b7+Aff0cv+GqLftpbfNkhHvitrc/4HMVD4gkvfBxDfKj94Ycf7uMJvzae0i/H4Be9Uj/tGPsSv+KWrPuR/AzLlVtd93EtA85Nu8e2dt2OKouSX3TBw3EjyUrQrwb1pz+uMYc/3/GH+J/XD8ZYHzJu+/btS/kvcUM2XcSs0saR+shxjuipbAThaV5lHSdfLLbzYSPkTOMRLOnRzkP19HIMHtpnzcNpMtr68CVvI+y8qwTKsR9//HGvH+OSvBj+4Ycf9k5+5JFH+noOX9T4BMwnn3zSXbp0qcPriSeeuC1PO8dfvny5++CDD7odO3Z0e/fu7YFpZRl/8eLFfvzu3bt7fYDX9mlBpj+ebMrkmNU/Y8l5//33e/6PPfbY0naH32YdsxgILsRWvvw6iE/hf/Xq1W7nzp13LBTXrl3rPvroo94n/ELHVs/c0PHbrAR65cqVPl7wEFPixjGknR/37NnTF/xmLSjBb54FmH0StHlDX5iLSZjfj/RprekXrnXd2Std5/zBylDP7l4ygdb4z9bKaiTePSIS5pb6ozxYvJv76j5pWcPMdT7h7/XWKf4zRn+x6EbrqaeeWnfc0JLwEet4iSExkPUm8Ss+tFtbyLVmPf7443fMiyHvRa7JNdfwR+y3dj366KOLsFmqLwzMAbLpYb5nnrk2D+GbeRr9lhJWg8iLveSad5G3LM+7SqAWNImJYhYZwFNKQJ47d653wpNPPtkvZtqnJaxZygsgQJ4/f77nnYUui4+gEsjayQeIPoLROZn00W6CcIYgmUTsUPQ/e/Zsr79gRe0CJ6AVvHPHpl0gGkcOe/FCcGKDhTpBYpzJI0AUdiSB9YPu4o/gV9Zb+CNCALvhoQNc2awYn4mcvosc2QxLPJVpBBNxg2D23nvvde+++26/MPGhQhd+PnPmTI8vjOGfBGqcdjdSSYqZeHDVHr+JWYU/FPW7du3q44IcWJDDdnoZT4chsQlm9CVb/ClJ7HDle+Nb38JEAjWZ8dBHaYltdMtC5nqz6WZlsU/LbTy3FspfUeFG9Xnzw6775fvVt84fkqjqYdOeGfdfkmxB2/fduvZgSuK8UGv4+bofP1fl3Tvh+IrceSseKv4HKxcc2tl1++q4d/vqSPEQ/7lZ4nOUm6BJ/tZuHL/xF7/zo3gTJ9om+YnvjdFXTLgm2/wXP+LPWDGYNVQcRo5YpZ9x9Ire9CFP35Sh3sZYX/Bim3Yl81q7dSv2i13zJnFHL32MJ9e1tW64hrIDn/bGkH5DoicbYYYX2811WOzbt6/Xi3748Que5rq+0T03HWQ5n0RwoWP8GVn8Zl3Srs4cw4NtLRkHg6wvbVt7flcJlCLvvPNODy5Q9+/f3wu0iJ0+fboPKs6IU1rB85wzkGFAlJCd24GqB4DrAH3hwoU+ONULRMYHPMFhvHESuoCYRJFH/5WVld5xAo3TAY03og95HMo+k4cs9RIoh5Cf/pL3W2+91R04cKA7fvx4PwZfk0mQWHyVoRMn6ThPHTl8QWf6RY9pYy3o/EgfAX306NE+wI1tbxymjZ9W76nBG2+8MTFBtGOeffbZ7rnnnuv15APYvv76631cscFkgxe/wBG+fBLdjFHIO3nyZO8PPoGBsW2cwNuEtShJ3IoJzXfixrWFUQLNotjq2p5bmEzit99+uy8HDx7sDh061N980I1P2SJGFURPOCv0cq0fuS2x9/Dhw7djpW3bjPNSq7tWj2U9nu2T6Oq94FdEX6v2Vyt5vnyu6yRcCXF3Jc9DO77Sta8wgyS1h+t+ZFfdxyaBGvv6B133kwtd959nuu6VdyePX7R2e61wv3+o6/7wcJX9XybQ8JEY+Nv6YA6LF75wnET8xZf8J974zg5U/aR5pj6J0NpgLRC/5hn/JzGRLYGoEzvmnj74i0XjxIT6xB39rEHWGsVccd0Sfua3xJE++OOFtIthGCB9smlwTf/oq5+1Uzt9W9LHPIAjWYn3to9zOprr1ii85RDj8KZTbMfD3DFfySSPbvAyBvbWrCT+oRzrg/mcQpYxxtI1a0owJq8lMWA+02eSX9N3qQQKnBjCgCSS1HEYRSkNBEoyPk6L8PZISUpbzNogiAMZmKATvK4FEjCAzAH6GmsxFGhkKrnjz8IFXDYAh2OMoZs6fOluDMfpa5xAdiNgDP5k6x8H0p0u+mqDBZ0U+uGZx8/Bgb76GWfMtMTe4jQ8Dz54hARpJnXqZh3ZBCe2K/QVYPTNE4RZ46e1wRVm0Y3/FPrBCyaKhQMOsA42JjYsJU3YGBM8teGrf0j8kMcWNpCjXb8Qn0qe/MZe7VlgyHKOnOPBz/yOr75tvCRm6KvNtf4WO3xc48Eu8hxR/JUY4XM6pr3vVH/wTTwYM2sSZ8xGHm9Vwny9NmW/quR49UaVVfW/IuJmQfazSnavX1p9/Gp3KSm+d/0rXfsKy/Zj5ZInayf423u77sU9q/2+qARqN3ttbSMgwU4iO9WPivcna+Hu0eyu4rVryhPwrcXHmOtuBIo/yrwTI2KKnxS+lkjgrg/iF238hbQZo68ifsUUH/JR/MT/1jJxi+J3MvFyVMSKfoo5kVjA2zy06Ftj9BVn4kKcGUc38pLwrHlD0sccwsN81h+PNgGKz8xR9Ym76E1fc4c+2siRmFrC1/ygv/70ozO72QUPPMiBJz70MC7YaLfumJvGwhmv8E5/10gbLPBW4IOX+asvPuTQO3LppZ5f9FcPG3zojze+5MMVPxSZ/UXz58sVqKlc7xTgHMxgYLhT5xwKqIuDBZcFRRKl7DQlyNP29NNPdy+88EIPhrooPzwHLJ7kAIuxAiWLIDAByMm2//QAZADXVx/tAlfQKNrZFQfHPror+uLHTuPJN+EETe6o6BoiV6EvffAw1jlyNJYz6dTaGx6zjmwyhj8SrHAUJI6z8G75ssmkoA9d6WwnZ2eobRFeLV/Jl70wFaQWAwVWx44d606dOtVjmDF8kMkpeNmXR618wy90MQF81g1PFDvFIBvEnLtTPkp/E5M/+Yte7i5hDjv20s9YPNUZlzgjI/Ei1unoOr6000VsczeNtOPPt/rjifiLf1yT5zw29x3W/mgTG/SIfW37vT6/VYns5doN/vPJerR6tes+uPMG/bb4z2t9kczsVvu3f2pte7cewf7H6dtd7jiRYPfV2nu8EqckmQRa5nY7a1NzsPLN9totfruS6yS6UXr94mLXrdRuFUmQv/VU1z2/+knLamXz1+NkO+Ina0P5SPGHv7jim8S6a3ibz5Jh2h0tsHZ/khBKG/9Zb/ARb9rxCPHdiRMnet/yn9hWJw7FjXO+FydHjhzpn/qIFdeJO3wt/nQ2LuuUcWJZP/og/IZJTT398GAD0k+8zUtkWVvMEdjgZ+4NCV/z2tykG5nmg/55omW+wwzBxBi2mVNwJseYrIcwNh8lYH3gZpx2fdU7qoePevrCzdE812dlZaXXyfqtzuYiWFmbEgfWnOBPNp3oN2v+LZxAMSTQwuZIINAoxxjAWew4KQviJAXUUTBKAtU4/BkPeAGtcIhAsYDmUQPwXRtPBwu9AMY3BU/txtIlunOiOnIAb7w29exih/okPHxQAphtCvmIrsY44hMbOEEf/DmHg6OjcRyfOufzEr6woq9CHl3pzBewgA+5k7AfytGXfBMDXz7MXasAoyPe81KwpacC51kEOz6GVfya+AiGuRFhEx1NNDHH7vjbZHGND1zorA0+dAov5/jQyzm/GUMG/6iHozZ6uVbwggV+SF+4mdzakH7k4q8gutAZRRfHtpAVStwZH75p26yjXLC7QvJgPVmWpCQfycsj2yu1A7y6tgNcg6Lfda6i0nWS7+UyRxtYdlUCs0PcXjwerfJUJcl9VXY0q48xpy933c8rOXqDVz+IrsHam+3ajtNjWTpJ2Nvq6Fp/8qODAeR/VnqcrRuAd2vdPlyJ+1uVuPkoczbzk1/5QAzAXbv5rq8YMB/0Me/jw/hGHBgjvoyz5ogLR21Iu/HWAfXkWtvEhXhJLBsvXtzQOTcOLyVxZd013lg6ZO7rOyS6Rp4jnm2sDftPuo5NZDpXQsGC7Qq8lFAwyjXZsQ++xtALn8wT9uGhHrm2DsEI/ux1hAkejtYNdfjBgVxzWAmv4OyaLHycR2/+wc/6p24enJoQjonTjwGL493RWPgsWhZsR0rlEYhAUSfTMybKOFcYmcCkLN4x3DXQ7DJ9bsAghgpun6264/dZE+A4FXBJoOQkoI3h7ARYnKHOOGBJGsAnH3924UF/C6NjJkGchJ/CwfSkdwKaDPwFd3ThGPop+obwwwdOwSdts45wM8HoK7Doh0dwEWhkRu9ZvLTxB3J3BktYSFD484E7NvXp13ee8Yf9fMhviRN4ZGLQ310i/mSp99lJ9FUvtrQpsMkRXhYz2D/zzDP9BFFHN/50bnfJfufqWsIHbzLoiI+iPgsaPRJPYlp/fdVNIrLEomIX7Jo/wh9f8kLhBye2iZ20s8N4seF8XszDe6OOD9e6/4ODXXfksdXdpcSZt21fqce1b9Sj3bwx2ye6Emw3qkhuBX33Ra2jW+r8xXpx/oUnV5PxgXqR59Fq21kJ9enmY1+Pbn9Sm6Qfv1oyC+bDJTdvz7KJDLtXb/q+X/ett2oNr9PObYcdrzb6kB9yfr36vVWbR4+avR38o7IJwT3+gTXiB74xp7RZu8SQ2DBvrRWKfnyKh2N2NeJYMR7xnVjSz7mYcBRTCG/zwjrlmGI8PhZ/c9kYsRV9PF0xh8R2Yo5ew1jvhdzjP7CBFRzsUM15GMJI0a6Obq7FfIuPa7GvDcHKGJg4wsjaABvz3cc9fIGfY9bTrDnGBW99+FYffOCnTk6hox0zbMnRz9y1zlmzrAnz0EIJlFDGAgQIgkOScUzwMNQCwFDOFzTGcThF9XUnoB6pV8cw9QxCDGaUIOIc9YBgoP4AYyTAMhG0BxAgaqePczqFZ0COg7RHf8GND9nhpR+KDunP6fhb0PGU1BzZ60Yi58aSzZbwUseO2O56GuHDXvJgwQfwV88ufAWHRKckuKbxm1TPNjoGJ7zJEUwmqRsJ7fqtR/qEH5/iBSfj8eJD9eEHA/Vwd66eTXA0jm/4hQ55TJsx5MCUT8hR2C++9FFgpz798M0dvvrEUWKFHIuifgp99KMfPcWbkvbgQQf6RC5+4pvumZB0oI+if/ROO17Bgb8V8tm0WXSrspKEk7dwvUj0Qe0636s1zrnPME/UUzzf97SrvFAJ7FLlBONEx9FKVN56NeZq9bc7vFwbcLtFSfHxGv9QnUtudrVeKpL88D9f9xl7a3eq7uMaK3EjYfdIrVYeyUqWj1YCliBdO+qL1421zRE5O8mpdrJ9bnq51sSq7n0ETzGWuOArsS7WErv8GOITc0yiSh/roD5iLTeZ4kMdvuIciRV+NGcVcWMekykO8OHjxI1jFnPn5mGSLt2MV++GzvrrSJa2aZS4y1pJNooO4hBlPqRdXCbe8RgSmUrmBj30px8sUOa6PvqmzTWema/sghN81cMg85iv9DO2lYk/DPXXlrmlL/7qUCsTf/jDzjpvLJ7G0Jkv2vnYM5jyZ6EEypHufvL5o4ACGGHuErKoq/cGoSNl9DeWc1wbAxhGIEoDS3+GxnB3CJKwOkmKwe5COAhPu6TwwB8YShYmYOpLVsDSjr8+HBuHW+g4zxgkgFLXV9Sf7Eb1I8/jXgWxiyw2ZhzHKK5NEnLtEh0XIXzJhLGdm3OYmzh24o50YxssBcMyBJNMmNghqGFHByTI1qP4TxIS+PyE+FGxCPncx6LAJn3UOSr0gBvMFBjzh3h48cUXb9vHd3DXn9/0oa+x6jJZg0fqTSD9kDq26g8/fdlLPzEn0bJZcXMhZrIQ0ot+IfrQH09+MF6cwg5/FB0cFaQt7a6TcPEg17yYB3dj75ZoJLF9WO7+Vb2Y+b/1gtCpD1cfr16rBORFnBfrM0efUf5OlaOVKP/1dNf919nV5CVh/fHhrvuTKl5A+lW53mPZ/z6zmsw8Cn62Pq98vnalf3CgknCtsepCvgbzZO1Sn6kdKLkSM5I0PaqVhHfXpwl2uT18VW83K2HeLL0lUqTf45W/fJ3mZNkhgfZU/hUzYlTMmTtiB+Z86ZyftfGP+SAm9Od765F68ZM45/esU/zkWp/Esr7iaGVlpU/SfC3mEhfmgFjBX+x5F0RCxoNednb6uEbmEN7mg/mfJNM3TvljLNvogiceyFpi3mR+s1dd1lX1xkTXIXvYZG7Ag15ZE8mAtTVPLMMXf1ipY696upGh3cYjdlrr2YfwNj/xzHxWD0t2GQNTxfWs+dKOweNuaK4ECjyGczJnSggUZQiDGKcPAy3kgiCLTQw23hjEWAZyvP4CztF1gjJ89QO0a85wrg8ncxae+KnjDAWACQpHdZGdyZC+xhnvmmMFJV3xSCCRy7bI0pZFjj30j16uQ/gEOwFJl2UIH+NNQkFGFxjn0ZEFVmkDaxk5gpiP40v2slXCIRc+sFhPDl/BNP0ELJ5IG9KuIDz5EobBmVx98QgfvtI39a616Qtbk4+eITGo6G+c+LIw8R3f8jnf4aOINUeUnQLd1eFDN3xQsEms5JpN6hwzUemYCR2b8dTumg5p75mv/QlP/TabfHXlndoN/rISoB2czygfKNd5/OrzTLtI5w9XsdOTrOxYJUD1/S6xjurtWPXxeaQEfLGSojd1PdqV+Opft62uPeZ96Ugl5krQRyuB+txSG3LU14tH24rHF5V0A4s6xW40/fV9omQfq93w71Wi3l+J/kgVlJjiT7i7GRY/fMG/6vgkfowvxYy+iR/+0Zb5iQdfJabEF1mJLXMUj4yPLuJem6N5IF7NRcVaS6Zx0Q1f8Wg+GjcpdnpDmz/0Mo/dzOJFR0Rn6wpZiE1u+vTJdXZs+pI9JPpm3gQr8oKzumClDu5sVdikzfqQeY1/i5vzyHDekno8FDbhleTf9st59HPcCKoQX5+AC2QLlKMAQIxRKA8UxiCOBeh6SurnDS0BICDwGQLUM1z7E+MBZSE0nm4JUPIVzgdidqgCXBBEX3yMib74xQZJSQB5nBM+Ft7oZ0z4CCZtHle7a8SjJYEPL0kJdstSJih9BJok77tUZCcIZ+E2r1yYZccEW7JMGhi7cSLDhJ2H9KWvhAYDvE0q2PMFfo4ovhD8xpDnKInpk4XJORz1hzX7xU7867ONlZWVnqc/dhEKW3LDwdeeoujLFjduMORfiTgT8LXXXutlkGOMQha7HF0bn4WJbmzDw1Gc6GdBHFJw0A/pm1hMX3KywA/b0udeHT1eLYi7S7WGvlW7QMnn25XUtlV4P1L1e1bX3u6deoDkxw+8hbu3zPQo1fL2fq3FL9fO1U62zOhOVKL0MpJrfd+rhPxBlXJ3v/vsk24lxL+o5HmkwstXXNTZgdpJIgnZuZ3nluITIs+ud3vV02/bWpvHxhKot3Ofqh2rz06/Uwla/5b4S3ya7+I9mOvDP+IhN2i5OROfiUvt5rc40Z/fxBK/i1PXzrNWmLtizzwT32LB0w4lPCTN3Aw6NxfwsVsWc/iKWTzVz0OxE7823ujMbnYg/MxVMpB2OqZMSqD6GQ8TWCqZD8axE1/z1JF8R3JhGTxzc6Jeu2trOF34JbaTF9IGX5jnaYJx7N0MunPFnyIRCDHKwpHrTGzGWcwYnaDzqDELlP4t4cWRQOcs/QSPBWdI+ClI4hZ4+nNkHEAPgJGPLLiu6SUhksN5HEWOfmQlSIzHzzX7whcfwaANHw7iKAEdwst4fJWW8NMWvdq2Rc6DtyMs2OWRt2NsWITfsG8wFvQmLnslHnjBQLtA5mM6zCsT5vyciQELY+HnHM5sgJtr/RUTTsmduv58yBeSnzH8B9dMKjz4RkJkh7F0N1YbueGXyYUnHbQp7OZ/MakvnRSycqMCO/3IIl9/mCXGHdUbY2JL3ngp0yhjtRuLP3kK/sO4msZnI+rNoH73WOunr5p8r3ZvByr5SUZ9wqx7Hp9VSlrI1Lxea6/dp3Pj/ZKQl5Bcm7mSnse0kuP+SrQ+M/XSUP+Gbw0ok/sd6XO1W5Q80Sf1wOLp6u+FIUSnx6pNAvedUTvi7bUZstuV0H0muqPKldrpIgn0cOntpSU/6kAfu+aQmOb7xDwfigv+VscPSB9xok1MOiqpTzwnBlwnLhILiS8xgb9HnHhqpwd+rvlbXwmZDura2BMH+otrYxNXmUPkRn70N8a65cU6Y5SWyDBHzDtEvyT8tp96PM03MTmk6AMj8wdPuiDX0Se6qtdHMSY3CmxiH7Lm0MsYa0/mZ984+AMXOrBnM+nOFX+KZMYDEHjOGWsx41zXALVwIYtudgKec2tjGANDQAOOhRUfzuVk/FpqxzgnV+CSJaEBHh9tWWScR1+7Ds/RBeS5+gxBPRkcoX+CLTLZqI2ddKenYOc8O0xH4+iNF7vaSRgdwk/gKAmI1C97jF3kKPTdCGKHSWzSusvmDzt8tsHA4qBeUhWgmUzryWY3n8EA70wAPPHhK5gmSeijv92AGyV9Minox494meAWG0d39CYYX8KE3tlhZqLjS6ZYU7IAqceXPQq7FXoq2sWzOCIv8ZlFQBLNhE3ypy9d9BFHyKIgVucheuQFEvbBh983kzxe9RWWvz5av+JTO8+bNXU/qjXtF5e67t9XVhNeq5Gd55eze03TqvBiULm4e6R4eTHoxLe77i+Lpxd9jJGUPWpFjj6v3FkrkmR8pZaCE5XAE+Ii3WegqP86TfE4UDz3V5FAfQ76ceWA/BCD3arHwE8UT+ce8bIrJPb4RTyIb+sIvPnNtcJ/4oCPFfNeHIX4RYyJIXErBtSJQ/Xxv/7kKeJDXIkH45CnMeqtVdZB58g5PuJMTJkX1iMxSU5int76iU9jHRMzzn2OKIbJHxJe1kY4IPabA1nP2/6xjV5DIhc2uVl2Djtj4Bxd6ameLvpYV9hFfjvftVsD1Jt71ns2KC2Raz63Y/nBPNoMmiuBcgInCYxMaAtZnERZwFtwKQ8w7QFav/SNUa71BxCexgEWL/UKHoo+gAoP4Crq9CMbD9f4AFNw4mdBdZ5HNHGmoGQPwguRZSLoowgubXjSgaMEggkQ+XgLBOOGTjNeoWNk9ILu4k+wzPEuWN0eyi620xWG8OQ7OGpLIoEJO2EnqNcjcWMRManwMnlMBPVwDJmsWXTgSTY96AN7+MKPj+3oMgmjA9z5Gg+60dECGBnsMYYdKPXqtAVL/MiIz/iN7gjv+NdRYQe98NBOd3qnXZ0+iWVzSJlG7CQbH3zpFV2njbkX9XKaZONHDSQp3/n0y0JeHLq0CuFtsVmSJUtvuV6ufu/XZtux1O93qk9VcvNmru9h+l3aIeHhDV6/g+uxsQQqyX5YSbvg7EkfidNnsx4R28WGtNHZuPS/VRUeL0vUdp92rpKtHe4XtYW9WXFt8ZY8JDNxHv/yIexbH/Bj62eyxan41l+cijn+Q1nL+ov6g5f5Q5Y+xqhD4kMbfRI/ePM9ncI/6yFdkaSvjV5ily7i1xwgn07pqz3694PX/oi59sZAP7Ktmy2Rg1d0gQ9MFOQaf/Gdm0X6SHixQz9zjn7Bk77mvz74K8HQWO344hVZ+ISsK+xEmX+uyWkJ1nA2J+PXtn3Z87kSKGcwJg5noMAbknqLFwOMURidwEx/9QDRN4AZCyhtxktY7kBydwQcYObVZv3iMDsjnyFkobJTUfSx4JJDD7IEoSBJQNGNXRzh7s5vt9KFPAuugDExHPFTMrnUJcngq74ldij0+iYTO01G+Ag8kwBuwcUdMtIPRur1G9o7tJGP3c2aoHxpYvp1I75oJwNersWYMfwJMwuKAn/6ebM7v1TFb/yPooc6pZ2w2sm1U9WPX9nJL+RpU2+cRcM1wsOiRrY2Ey9y+g7r/Al2meAWKrzZhoa89IctjBM34uvrJhHtcajHsH93ouv+7PCdGkkBiuT2Sr2/5a1bv4vrp/18xcVj1x8erXFHKgHXZ6GTSJL7pBLmz9/ruv+pUMOP6RKiR7XI1KILOSdLju92+srLSt3HPbOWnAvCPmGm/5nLqzcCXn7yK0c/PFSxsK3mesUWnMWkX47KDZp5z18WeEVcmu+O6nPzZj0RR55KicmsO/wmtjJ/Ep/00d+aJo71F+98rogtMSbW6GXHKBbNG7KMU6wxdE1c4CVZiSXrmRhX8BO/xhtDtmt2DG/gyGejdmSs62E/tuFFP33ZJvFlHhtnbSbL2qu/d0PYgh/7kLF01T886Myudq6z6fnnn+/tMUah/5BgAXNyHV3Dd9g36zS+zpFz5W5orgRK+QBAIEAmCaY4hwIvScq4YV+gC1AA4s14zsFXGwPV4aPEYKBwkn7G4QswgS9YjLHo0UNg6KMvOfRRD2TjBIj6Vjdj8FDIxFudYmx0jezwT2J33ZKgoI+gY983jdjFRrpZvNmduz5+CL7sUw8Tiw5MJQOToMVvaB/+xgRD2FsI8G6xSqw48jG+zvkVfq7FkTZ6hNTRnw4p2qJTjok3fOiCEs9sTp16trnOTZQ6MZj4dL0I0S8xJYaUyG75tP1azNo+m30OKXBZYuzivMWaN1mji53npdp0+bUf39m0O/TLQ8/XfUL/5ms9RvV1le/Wtd2fZIn6ZWtt7XKbIFmeKR5+pAHpJnnerJIxHuGWq/vf5lXXv6RU8i7UtLv93dVKxGsi+u+NSvzII2lv/X5eBt24sfpUQzzyBxKP4kRBWXsSV2JPAjUXzOusI8YlhhK31hbrmzaxxLfiSWKRJPhfHFsrycfXuiZZ4m2OqE8CNRYPsvVN/NBRW2LVzVn01d+6QyYd2GVsO+/YmbmVuYK3umE/7eTQUR/zMzca+CAyldhMPlsiQx982/kezNXjz2b9kX50DumDd3RVTxfruMJH5McfMISROuewII8chJ/xLb++YYE/cyVQ/OYRIqgATGHOBgAFh6SOsdoZrr9xrjmFrPSxIwEI3llAAZzgt8Am6MjRFwEnBDT6AE5//AU5frGLPLpIDPoFeLzVu9uyuCraOIQedHandfz48duTL3IzYezgyP2mUQJL0EqgJjVbYA6X+AF2PhM24T0Kz84SZi3OQ/tgZ8FwRGTgMRzjsa7JbxHJDi268adzE0diSfDjx694KfGj+mnEb2yNbSZ44ghvvidHLLJTO3Kku3ih67JEdzGBhvqSK0Zi67IyNnJcqdR/jjmLpwR3qj7e/emFrvu30/U56fn6bdp99T3QI/XWaz0FtOv0vc3da7tYCbenSoT5/znJ8fUWyffc6hPzXq7HwD7XlBzRE8XHD8fbUe6pc5+bKr77+UntNi9XmF2p/pJrhW//FZrda5uWa9Xfjzp8Xo18LibFr3WAX+AuzvlYjIhTdeY331gDLOb6eMeDr/SxXjk3Rn/XWdf42FjyxBDfK2LcXBOP2sW9naw4tqv0Aqa2tONJtn7GWXeMk5zML+uLvnTU17ygCxvpJbbZlbVxFc3F/oZf5i+e1sCQazeZdKILm/ObAXAOWT/Zn/luLUH6G4cPWQj/zHfYqGd7yy9rOz/Cxhi8jFP0TZ05nWv9nRs/nIu98Dn/zJ1AZ/FjGCU5DIgCCDCUnKQcxRUOF5CIo40RGIwyFpgAc8ydjzEI3yyenIKPsXGCMSH86CSIAprzLLzG4YeHRGFCsIVNAoYuHJ4xbDQRjBOU+upH15b0wwsffb8pRBdFsCtsYQMbJQj2hoKLxyywNVnZ6ijhCNqhj8VDfCbxwCB9tPEHnyXQHcn3CEtffejH5zBU4Gyx8N+ZhcSLhYVf+Hca4Y9XEia9FTrim9jVrh/7FPHhhoLuZMPGGDEUe4Yy6Q0n9gwXLPwyYfFoic2Jx2m82/738rxM6P9nlJ9e7Lr/q8els0hyO1n3BKeqvFqPX/3wvJd6fP/Tm7r9DxtUMqt/d5AXe3ytxK4Q+RrK8dpsfP/g6rXvjHrb13dGT9f7LX5QQQK1k9xbT9kfX3O3xNv3q3ud9+rcLnhfLSneHLYDfmotlD3C9Ubulsq4D9Y8FTMSEj/k0am4l4DUiU9+4G/z2rUY066fdUisWpQt1GKM/8SkfvEvv4oFMYxX1iJ88CVD/zahmjP4kUOufvS1Pol312LM3BVjeCpZc+lBFtn6ORqjblkS12Qp+DmqU1zDIGsJmezXhsh2rY82R/PMvDOv9FMvByjakadd+iA82AeDdq7Dj+3wgRc+7KeT+Yz00Q5LpE0fhV7a6RD7FsHpzhW/Z7/4H4IFUwoDc7dGyWnEcP0YKsAcGcdQ4/Cx0AnASZ+5AhVoFn7fJ6UHB3CKEtJPwCbJuSbbEQFQ0cfEiD50Uk+GBEIfgJs0eHFWFnfX+rbE+fo4suubQnSBlbtdn/myVwAJMkkC/q0tghYuJgjM2Jz/dcTEHxLebDZJJFrX/Alfk4BP7ejJVxLYzvEWwMY7tkUMWOxC7tp9DoVfO6nSniP7LErxFdk+XxGvYgsldunLTmN8fsvv/K3eeHqxRfxMIwuAeBhSYhW24qil2EyPFvu2T3vOX/P0a8fMe+4ZjheCfnyq6/7hldmjSo3+c0mPU6/Vuy3+2zO//OPzRz+yIFFOIj+u8PffXf19Wt879X+D/vnT9aMHtXtFpotHwyvF5x9fqxvsdyqBVgJ8rhLuH1WS/e5aPwnT/yHqc1f/Y4wd60vV/lfHVl9a8rUZtLWmprd+t1YC3fFofYeyhCYWYc9nfCrW1ZsjfMgfYl6MKlmTxIckZ70xx5F4MX/Mo1B4izNzSOyZB3glBvhRm889xUi79pFnHpGhX5INvcwXca2PeUhv4/EldzOIPuYE+6y55ifsYEkferGZTfTVD57s0d+19UGhcwrdV1ZW+l2sc3aZ7zY4WbfVt5SxdHLOR4gu1gi5BoYSM4xS9KFzErex+qVon0YbkkAJtovJ5BccwBNICZJJCgia3HkJEmBGeUYDPcHLmCEFKPIFMifQgUO1hfDEO/X6xZHkhLdzJQmGbG2OgpQ9+NIrFJAdh7amTV/nXzfRXZEgLA6SgiM/SBQCfZLP2K/wlUku+E0GQZ1JC59Q6wd1xooJ/S0e5JgI+klK2tMPH/7iB/7K4pRJiUcIT75o/cE+ffHAn0/4On4jGw9j9DHJ9IeBOLIgqWerGzO46GNhwIM++k4i4yyqFgayg41xiD1k0GkYD9E3fafxx8NcoRNfKYnNSWOWrROuPvfMV0em8WGZYie4tdzIO14cyo8tTBvnBaP+88mSYWZ461eyS8LzGPZQJce9FVZ+Eclbub4L6jum52s3erAKuX6Y4Vztev0wg13n0dqd/uBwff3mQO0+6fEVV9U7HBVbD5YPkDgQazlPnPIPjONvPtdPrFqIxZSFOOuONmPFTRsf+GjjI2PFmvPEpnZFTPAlfcgUo3i5Ttzwu/VNjIgj59olB3Eq3lxvJmVO0Idt7Mh8N9fdkNjpw0Afca5dP3UIFkrme+YAHIMlbPQ3ru1rviFj4aGNHARX461ZCDbZ2bsOPzxhbt7qT37WlvhH/0m0IQlUMAkkBlAAcALAOQWmkXbBaEHHg+GAiCOmjUs9o8lUGM9wDiKzDSS8tedu0bVg5Ehllo6R5Yg33RyRsWwQ6B71cURL9JIgFPK+bqK7AJP8VuruLjuqfIZrIrJhiEeu2em7anafuftlvwAV4OmXYMbLpFbPHxYOgekoRhwFMRyRiSZu6MmXMOMzR4Ucb1uHslsgGxmTGMjESl/15Ik3OrtxsADmblSbMWKDzuTARcKFi0JXtjkOCX9tFl1FIs5bmuxB6uE2iYzXzj/p3/bTLt718Rjb50t2O5J88G/73825Jdgj1ZcqCUlks8gv/LxdoX2mktzZOvrZv+/UuO/vnzWqXhApCL9Vj3D94pDEOCSfbXrseri+euIXivx/nv/yZu00z6z+ru1r9YAJrL73+UY9Pv6odp9/eqze9j1afOsr6f6nF7wnkXhMzA3nvzbxpJ4fzGHxoE4MqxdD/OSmKnEmJsSVuA5vso0Rp9rb9WPSekC2fnxKtrHkmEdiK+tkbNKfLna+dmeZB2nfjCM9YSA2zW1Y0TfzHCbJBfQTv7Ezcyqx3c51urNJjCOYxg/684t8oeCpDsGYLuSSZ/7CH8kB+muDrRIyxlpAb0RnMuk6izYkgQJMIZQCgKGkOsQ4QMfIKBTABV0CFACKsRk3aSweASF89ANEFiGOtVAmuQODLP3svsjIIt4CpV3ARq5F1YKI8OQwbcYLeI4V9O3E0Zds/Yxp+WtbhILDEL95eRinmLSeFOQxJdwkCbvBPHqapSfstLOfbbD2QgUb+UI7POGQ4FUv2GEYLCRui0ESOJ7GiJ/cLeobPMnRF870DdFfSb/csLCT/9gcP+LnBiATXBv/GW+CKSYXX0nkiv7862iRsliRZVxLmbT0JA9P8a8v24KperjkuuVBn/XihA34wz+fwRuXBaLldzfnpXL/6PX52s1JpLPI27M/q12e5cvnnXaifij+T+px7CzKW72SHHktedFIYvZYOD8ObycsmV+tBP1mJc+Ltess0/t+HuP6vNWO1qNgyddYMkqdPpGqi5gW/9Y/dEjMWEP4k2/5TGyry404/PlLLISHGDW3Ek+JTTGUxRo//ptE0StHcwZPRWxbx9SJLXNFPIpTc5fMjBvyJlNsm7N0aiky2ILYY25mTqWvfvQWf+wJZQ7BxxqIv76wUpzTm3znxsMCf3ORDeIa1uqjK/6SX+a7tuge/vqEF9v5LnLVwwgu/Mc++ivwoy9+5IWPOjppl8Ncr0cbkkApQtEEkwXHeYhhQFKchzhCPyAaY/FF6aM/A3OdcTlyAiOB7PuFQBIkgtydPqAlPnUcBxh6AtnnaeRzOrCVEJlZDNVZkP0/pPgLhgQw3enAUQK5DSzj8BH8LW/1ixL78YLHMmQcm2Hx5ptv9jqxT7I6Xm8Pwx+Orc8myWE3e2FmvDtwOOKveIwkWHNTAheTWx+J1hgLAVv4Jkk0QZ44imyTTn8y6UY+XUPqTJwsHBY1bzA68reircUtMafeJCHT0WRNAoUFnfgN9trYpW8wiA6O5LCHfXCGax6pRXfyTE531c6VloIhe6f5QR/YJRb0xYesjSSa+czQV1b2ffnEfKKIa5WovPl6vhLa2VpXr9Y08hN8L62zAyUjX0tpkbA6SMr49i8H1c7yrdrZ+s+2b1Wd37v9sOp8BxTlJ/68tCRpvr1WL9lKpv1/5F1j3Ajg3crqGQz+8Lc5y6figS+yEFt8rQU+E7fG8LWYiD/Va3dDak0SN3wuBrKG6TvNv1TRL4s9XlnP6KTeeLFpDvK7o9iMDgNz+tg3TnzST8y0JGbbnW3WRra2pJ95hU+rv3P6mBdstT6a79YGfckWr/qxxXXmhHXCWARrxfisl9rb+a6eX8wDeuLDNwoMXONhDYCHeUwnMmEpJ8DRHMwmL3iQ5T2afG+VX5X1aEMSaMDL4iQIBBhDGeyujOJZfBiaQHIEEsUBQekEEaM5LbwASAa+iFPwUhfwgBVwyc5nV4IZoIDDT4AA2xGfBCG+xuNDDpl0xCvB4qhO0R4d6IEEgWAhu03e+q1HbDdGUJNPBgzwohN8yFyEYk8WAHqa5O3Ocx6e7Fbc7NBTSeLgY0EIZ/zpyV64whslHpJIHU0ufBDexrAZ4UMv9ch5MO4r1v6Er3jxGCb2xUfaFfbDAj9t5PMr+Y4pJhX8o5exzk3GTOgWL7xcaxfDwTZ2RFdtbrSiF9vpQy84kk+WdjbE7oyHTTA2xvihjPS92yMX+AGFYf6UmC7WR0ySW/+LQLUe++/KJDmfU/o92t21I21/d3aWLjwvYfrt21frUexKvXvlsaxdpf971K8g2YVeqQ2S5Pls7W6Fi3He1HVu56nN/z/68oWu83jX41/6+z9Etbn2H2r7eb9dda1tEsFUXJhr8Ic334sJC7BYds4X7U1/4stYffjVuMRs4tb10K/0MB5ffhV71oAkFXFhPlm/HMWQeebmVMytFwOJMzE2pLQlnvFig7nUUtYQ/eka0j82sZHNsHEMBq71ganx2oyDQ3BRr0944e887ZGHlzwCCzeq5iMfwQVPeluLMpfiN+snfcxBYzKPw5csyRyuZEzyUfq2xwqluyfKS0yMZYRAs+OQSHJXIYFSjvHpR7L+CcQABmiGu5PxeQ9QOM04CzIgjAuRASCBS642cjhFnYDzmRY5QNKeBEUO/fUPT7IEEUdrI5OTjBew7CJvEhlrp3fy5Mn+piH88WhlTBpLnuJO8dVXX71tp2CACR0EDj7zOpgcOMAID7zcHfsskz34LcILv9xxOhdssGAzfmSg6AjTSfzVB+9+wF38CT7ihL/tqo8dO9brRj9JlX5uRMQhCtaO4k7hu1y3uqlz7Q5Vcc6+kLg0MWGpiHPzAeYWxJBYglF4a7eo0Ums52YLXnyNbygy6elmU7sYNhbfzaJblbDerCT3s0qav6wp8FoV3930831eHjpUu89pb95O0rGg7XeO52tt/6eT9TnnqdXr/AKR/6LMG7u+tuLrKR4P++UhPzF4fS3J+h9jTpcOvkLzaukl+fq/QctNt78rurt0+9sTXfc3x1f/r9FpCZSvzX2Fj2ErpsWQhVmM8aHF2zziZyQGzVtxlhtoPhN/WRsn2Z86a5p5hIf1UywYLwbElGSpkC3WrCd0SyyFz7SjNYAMZUj4DGNt2M9480OZRPQQt+JzqFOuc5w0ft46MuDBN+YZvchE/MRv+qg3t2CaHCJpBkfreNYqY+nGV3BYRM+lEijAOZLinJlAixMook1hjD7GUF4yc60+ZFzGqtNmrDqBgp86jyvIcq4eCIDCL32zuGsTBAAlk2zAGwd4jz+Mc01WS3TNHYo+Cn65cyEfXzJNHItZQHeM/uFNJ3gZr209ii30F7Dsx8t4k5EukbceL+1k4mmsxxfZecJyaPs8/IxR4EgP+in0U9/q5pwcbXwVf8UX2oKx83YsnWELPz6EwSSKDvqJEb52jJ4whAFeShYCi6UybVEYyiKfTvi2RK7FlE1K4gpfccJf9Hc0nr5KZLM7/oGTvniKw5air7gQd/TRh02bRW5bfW7Z/m8sfshd0vQGrATnBZ55qWDoH8M+XEf/o4pEl4f0HvHa0drNeonIo+Gnq/FoHSVQO16Pj/1m76FK6v63GI+S/WCCnask7HuqdqoSpl9IsiNtXy7iB/4yP+M7mIrTxIXYhj3fOM8iLP7VaeMPR+3GuznCj1/bOU+e+OE7MrU5V2+sc/qg+BYfsWP+RodhDA7xxk9ckEEH9oipZWNFzNFLPONBH/q2FBv0oyuZ6ugf28JHH3qF4ODtaPVsROwfEn6Z121bfGU8v8CRnnioQ256+A4OZBujHUZ0jR9avuud34nAer3X2ilmwWA05QDUBok6izSQBRJiNMUZR+m2/xrb2wfGAYrBgE/AGW+xMTaLEVn4aXMOfNfaBTSHGQMcvIzlXDIUbamPAuzBg3wgGxM9HPFWb9Lg75qOdEauvYGpDdGNk+gwy27jFU52xJ9jkWt64UNn1/MSW+jniDc9YDVLl3l404cuScziYpKN7HfDQmdFP2PtnuzQ6MYXdGqJvsYicjKx2j7OjeUXMvCGkSMij83G8kf8FmzhK05COdevJVjxK95khfBnPz3ZoZ8jcoSHhIgvHfQP0RvhSY/YgZ8SPulP59xV26lkFzTELf3vxdFnjn6cwA8geNnHj7Qjj1FfqLoX6g1YCW5egoak5usqPzq0etwh2UmclUz9cEL/n2jXfafvlW6vo88znXPbvhp3qELke/VumYTqt3IV/8WaN4I9Bnak6+/WtxmO1dosMYdgDH/+5p/EtHo+ETPxgzhyrY/44i/+VMRqbnz0s7vBV99hvCSurZH6iCt9rI3i3DFyxA/52hXnbQzFjuFRP/aIR7YZI0bxW4ZgkSeK9MAnc6zlR67YZSOZ+sKAHuY6XNSxUwkZl7nrHE3in/7DYyvLOgC/fD6MH/3hDIP4jR6u9YfRMvOoCaWhStOvGSZYgAIoQDgPUZBi2hjCuAAE+LZvxrRH7eGRczIYHHD1d42fI1mK6+hELuCMaWVqVzesjw74KQiPIdFFcAIdf3ikn6OAsWBmMaZTgij9hjzba/xMQvyDn3b1kTUPn/Bku8Jeuhjb4pF+ix6DIV+xbxpfMk2qtMMvPnCuXnHeEr6COnqTMYky3gQxhrzWPrKUEJ+lwDcUf7luz12TMeSjHk2rF0P45KaRfgivHOkrltiov2s+dmwJH0VMsM/CC1PHIW7tuI0+p/keUFbSci7x2dFJcnaI/u9NCXER8oasMT6j9PmpBGpX6yUgn10isiZSydW/JZ/TetTss1M7UTtSu1HfE8VzDf5+CNzhD3s4Bnv4iw14x1/a+IC/jWtJH+O1GetmJ9dtP+fGimu8yHBuPL/Sw1GbI37LUGTgh/Cn/7L84BC78MM/vF2H1Jmn5JiDro3TP+PpkuuMC36cEx0XjWs8YSY30VcOIj/X2uiA4Ks/TMxP14vKw+eBGlihthhRLgsPJRjfLlhY6qOEfUBr+60n1XgLnTHGp+CZok/a8VOffi1/dS21erX185wbG/v0h0Frl7bg07YPdZgma8g//YL1vHwyrj0Gn7ZuI85n8W39SFb8pd64UOpz3eKgr8kAg2kUfvBp/THsH5mOOR/2mXS9Ht/hmPBPss5CMuyX9vDPse2Hl6c57uD1d23yWxSGuLXj7sW53ZxHo3Z8XgAytdw+e4wrkdqlSoqLkCiwc8TX42HjJeZJ3xFdj28fUfXHV2HoWqHTv3Rkl+wHG1rV4JhECccUPtDWUq61KdMocTjNL/go8aO41jf1kTNt/DS5w/ro4djaNew3z3V0ozNeaJJ+6RcbWqzSZmzqWxw/F9fVRgYKLv3FHH/Cv8UV/9QP9U195A3X8TlELpdA52E89hkRGBHYWAR8/mSxtxCY7MtM+I3VaOQ2IrCBCLhhmXFjsoGSNozVUjvQDZM+MhoRGBGYG4HcMRuQO/cc52YydvxmI3AfJpENA/Q+tH3BTys2DKqR0YjAiMCCCEiWY8JcELSx+4jAPURg9WH2PRQwsh4RGBEYERgRmBOB++wR5pxW/dp2GxPor61rR8NGBEYE7isEPMIc6b5CYEyg95W7RmVHBEYERgRGBL4pCIwJ9JviiVGPEYERgRGB32QE7sPH119/Ah0fW/wmT5nR9hGBEYERgfsWgf8Hga96NYhwD10AAAAASUVORK5CYII=;" vertex="1" parent="1">
          <mxGeometry x="281.15" y="585" width="177.7" height="18" as="geometry" />
        </mxCell>
        <mxCell id="JgvuabAU2myaKvdRI82M-22" value="" style="endArrow=classic;html=1;rounded=0;strokeWidth=2;" edge="1" parent="1">
          <mxGeometry width="50" height="50" relative="1" as="geometry">
            <mxPoint x="106.56000000000017" y="693.5" as="sourcePoint" />
            <mxPoint x="366.5600000000002" y="693.5" as="targetPoint" />
          </mxGeometry>
        </mxCell>
        <mxCell id="JgvuabAU2myaKvdRI82M-23" value="&lt;font style=&quot;vertical-align: inherit;&quot;&gt;&lt;font style=&quot;vertical-align: inherit;&quot;&gt;&lt;font style=&quot;vertical-align: inherit;&quot;&gt;&lt;font style=&quot;vertical-align: inherit;&quot;&gt;&lt;font style=&quot;vertical-align: inherit;&quot;&gt;&lt;font color=&quot;#cc0000&quot; style=&quot;vertical-align: inherit;&quot;&gt;“撤销邀请”&lt;/font&gt;&lt;/font&gt;&lt;/font&gt;&lt;/font&gt;&lt;/font&gt;&lt;/font&gt;" style="text;html=1;align=center;verticalAlign=middle;resizable=0;points=[];autosize=1;strokeColor=none;fillColor=none;" vertex="1" parent="1">
          <mxGeometry x="173.43" y="670" width="70" height="20" as="geometry" />
        </mxCell>
        <mxCell id="JgvuabAU2myaKvdRI82M-24" value="" style="endArrow=classic;html=1;rounded=0;strokeWidth=2;" edge="1" parent="1">
          <mxGeometry width="50" height="50" relative="1" as="geometry">
            <mxPoint x="640" y="750" as="sourcePoint" />
            <mxPoint x="103.43000000000006" y="750" as="targetPoint" />
          </mxGeometry>
        </mxCell>
        <mxCell id="JgvuabAU2myaKvdRI82M-25" value="" style="shape=image;verticalLabelPosition=bottom;labelBackgroundColor=default;verticalAlign=top;aspect=fixed;imageAspect=0;image=data:image/png,iVBORw0KGgoAAAANSUhEUgAAAgIAAAAzCAYAAADl/GDtAAABRmlDQ1BJQ0MgUHJvZmlsZQAAKJFjYGASSSwoyGFhYGDIzSspCnJ3UoiIjFJgf8bAxiDDIMrAyGCYmFxc4BgQ4ANUwgCjUcG3a0B1QHBZF2SW78UJDQLKCctWP+n8c3rVdAlM9SiAKyW1OBlI/wHitOSCohIGBsYUIFu5vKQAxO4AskWKgI4CsueA2OkQ9gYQOwnCPgJWExLkDGTfALIFkjMSgWYwvgCydZKQxNOR2FB7QYDHx9VPIcTIvFDXyICAc0kHJakVJSDaOb+gsigzPaNEwREYSqkKnnnJejoKRgZGRgwMoDCHqP58AxyWjGIcCLECMQYGSxcGBubFCLEkKQaG7UD3S3IixFSWMzDwRzAwbGsoSCxKhDuA8RtLcZqxEYTNvZ2BgXXa//+fwxkY2DUZGP5e////9/b///8uA5p/i4HhwDcABkpfFEGwzfQAAAA4ZVhJZk1NACoAAAAIAAGHaQAEAAAAAQAAABoAAAAAAAKgAgAEAAAAAQAAAgKgAwAEAAAAAQAAADMAAAAAV0VkJQAAQABJREFUeAHt3emXVNX1N/CLgogTowKCUO0YZ43GJGYiZjLDSlae58WzVt49/8nvz8hK1sqrvMyLrEyamUwmJo4xzlODgIKACooICL/9OVW7uVyqqqu7q5Emdy8uVXXvGfbZ57u/e59zb1UvOhFSTSeKLFo0Xan/3uszsc9Myv73WnT8I2/tPn6bti22Fmj96pzAwHnnxCjaQYxmAU7bSmuB1gKtBVoLzNwC88Gf89HmzEdWtYnALIzWVmkt0FqgtUBrgQVsAQF4pkF4PnbF56PNWUxLmwjMwmhtlQVogbPE4Rag5VqVWwv0t4BAupD8qh746b2QdO8/A2M72yYCYzNl29BZa4E6AZy1SraKtRZoLTCvFhgU+D8qfvio+u1j5DYR6GOU9lRrgdYCrQVaCywQC8w1oA5KEOZ7+B9Vv33G1SYCfYzSnmot0FqgtUBrgQVigbMooC4Qi52m5vSJgGyrNfRphmtPLCALtPhdQJPVqtpaoGeBua70W0OObIHpE4GRm2oLthb4L7MAomrJ6r9s0tvhTllg3Al205/G3f6U4o03c/XhudZvqPNRfFz8UXQ6oz5HMfKZAsyMFG8LL0gLwNuoeKqXGwWnaZB6vTzXvrYWONctkD4yCP+Dzs+3Xebar/oz4Y35Hs8s2j8rE4Gg4ik5UY3wi4bH6zWmqp7yJud6Ub455eocPtQA4EcaP/jgg+r999+vFi9eXC1durS8nnfeeYGTE9Xx48enrl9wwQXVRRddVLlW1+nw4cPVe++9Vy1ZsmSq/vnnnz9QwSNHjlRHjx4t7SiXx8AKvQv6cShPF/oO62e69s7UdTY8duzYVHejjneqwhjfmFO2pw/7sWMKHDjSrvlarvew8OGHHxabw8Ageb82TzChHa9E/7DmWLZsWcFLE0/NdvXp0M6wfrNe4ovd9QfTjoUoWOLI8ao69uFJ7S8I11oy2PwnC/Z5l6wTZhmLFKbr0V2T9er8AW+jzEPWUR4WzTucXHjhhTPSN9tRX1s+8zv4qePIeXhRRlm8Rs8pv5gj9yZ/8jmS3JX+MKNBzaKw/o3POI0p+TL1Mu7087pdZtFVqcKGR2LewMsY53Oc5/9PyLSKznECp22/VsCgxfVjvePDeJ32iGQhYDf0OB7XT8Q4OFi8q/U4zdtRxh5lgAEQJicnq0cffbQ6ePBgcTpgAQrgRdgvv/xyue79ZZddNuVQmQy88sor1SOPPFIdOHBgysmALq83td2zZ09p89133y06KDesfK52t23bVj3xxBOVenRMpx3UT7Pfj+ozfd96662SLEmYkNHQ8c5C0WHoSPskObL/9u3biw0vvfTSqd5ee+216rnnnit6wgY9pwg45kiAN8fnhe2XSCDgrHHQ46WXXqoef/zx6sA771QfSNyinYsjgdS/Qx+PPfZYmfuLL764zCO89RPl0370mS6g03v37t0VrLz++uvl0Pby5cv7NX/Wn8Mrb7xXVdsPVtWb71fV/sPdJOCSbl41I/21JZ/ATbhqWo4apUy0F1PU5Shw6Glk3gQgeHn11VcLxwgKibfEZHMAOd9vvvlm9eyzz1Yvvvhi8ZWVK1eWooPqNduBA762f//+KRxYRGgfd2SAouMbb7xR/GHHjh0V34D5Sy65pOCy2e5MP+sTv+JI/bwTPgHDcD8XMY5+UrcPG+Bs/e7bt6/YMf350KFDRSc8IOEyiYv7BO5R+qGHcg6+ui3aLHaMcVo4zpf0Z4xab4cD7QcjATscizDZNMCPQ2ThSyMbvzg0uCR48Pwe6vX37pFunwfCpuPq76Jw9kujn0ujv0svWFSdl1423WAGgGSqGvIOkb05kObf//73amJiolqxYkVxAJMKxO9GcvDCCy9Uf/vb36rrrruuJAJr1qwpE8yZkDOgu64+gAtyHKkpCZZdu3ZV//rXvyrtXH311QVA6mW2CrwAdV7oCZwcx8FR9dPpdEpZ7TnP4RGONuifmS398wB25cch+jE+/SShDGsXGbFxrjw2b95cxp32G1Z32LW33367chwNMjsaCd0gQaKrVq0qgRc5TMZ8PfXUU9Vtt91W7JWJH1J46KGHin3NC1LJAMp2Aqwyl19+eZk7NuDo2oQj84Zgnn766eqf//xntX79+uqqq66qOnF+UeAELvT1QpD7X/7yl1JHGXY0j02RiLKZPh2bNm2qNm7YUF3Y20mAEf1l/+p7L3gIPq6p7xVO62JsglISfp1A6+Xm830JzAHJYaj8IKZ1RyQCL77V5RWc41g5ZIHc9e5uueQMfb0bnOg4EFz1XneBOufhaf8yHNXjqWW9BAVeLDIsLiR+8M/G/FMwgoV+Akfq4AjJJMxZfHQ6XZ/vN0/m3Dyrhwu0wd8l3w5BCTY3BHbgERbsMsAX/8FvFjvwlHrBJFGWnzoSv3W99a1tY1VGPUfiDf8YO0wS44e7K664onxOO9HZGEg/+7hGVzrSW/l+Qge+jqPohnskVGzDdtrmgz47z854m32XxjV+SGc+o4yx9RNtKJt2MQ62N1/sqW/Xzg9bWAwca+jLluygjX5z2q/P5rlpEwHZ86N7YmUSzrMj3r8/mCObbff9nI61JpKbKyO+3XZ5Vd2zrqqW97AsY39mX1X9e29VPRX9HurOZ9+2ZnJyIpLgW6Kvm1dHn3FIDEaSmPBRxGQB1WQvkJv4G264oQRMAAKC9wJ4iP3hhx8uDgXgnEkw4KAAB1B//etfC3huvvnm0ma//vXl+Pe//1397Gc/q6655prymeNoL51H9mzlDyQCkcAJrM7/6U9/Ktnt6tWrpwAk6Oj/jjvuqL785S8XR+DoQA6Uxme1y1nHIbfeemt19913l2BY12NQ21bIv//974venPmLX/xiCUBIIQPRoLrDzpuT3//ud9W+mCvtcsZ+8qUvfan6xje+Ua4jEEH4l7/8ZdFHkkAPx5NPPlnOf+ITnyhkRjdzDSfq6e/nP/95SWLM3e23317deeedBScI6vnnny/2Nh/m78orr6w2btw4NX+C/rp160o/f/7zn8v7z33uc6X9pt7GgsStZn71q19VytPrU5/6VHXttddWVwcenglcPhlYOhQEVAgrcK/ezkgY7QYIBub8pSBhOxB1QVL33HNPaRP+fD6TYqbw0ntx5Mq8X//vR8B+Nrjl8eCVo8H9S2IhItiuDi4aJIvD/S+IvAdfXNi7Q2dB9OLbVfUfPBVtvbR/UO2Znb8w+rhlTVXd2uOp61acrA8zcMH2dhzZGc7ggL/3E3XwEN+FIb570003VZ/+9Ken+KFeDzYFIDsIFgn/+c9/yqrbwkAwc8CBwHPLLbcUzOIGekgQ+OZvfvOboqPghtP4kuBNcBBdBe61a9dWuTOROsAd3FtxK2Nxo0yuhDMRoBdRxoIqBT71B+uCqPG7LmmpCz5+4IEHSnKkLMz383Y6fuUrXyl+yTbsp562JRPsYIw+W/xJUD75yU+WcdLbHEmicTo/Vr+fsCH/5s/65HeZ8BmPPowld1voXBc21a8Fhz5nkwxMmwi8E6tyScCTAfgXA/iHBmS/7rt9EEfyJydzZBadimdYXX9pVV0TwXnVsqq6o5aQ2QWYfKebBDyyI3YGBiQC+rNLITsndhcuiNEMittv9bYBV0d/N3Z3xroVx/S/yROYgQIgZGgmDGA4MGfilEDMYZxDmFbmAADUJlSwVR+Q9u7dW15lnsDCkUy0IM8pgCS3jvUl2ACsQ//quS75YPdlseIEKAEFqDgdJ9MPx6WT3YXf/va35TPCAEKifckD/QF7pokA+6SNMlvXLpt1Op2ih+x7OhCzo8Bk1SEhMU71BVOOwDbTtaHfpmhTUrUrXpFaZvLal6CxTdqY07GXvjg3myAbiRtiNiZ2d968CvDOETYwP8iZHZGecWjPvJSEMYjJnCFj7dPHvNGJDuoidOf0ox1ki+CU0QasOGAs8WIrld2Mkw7m0Csin4z69GVfY01d4URgEACOR3+u7w2dSfoyQrwyxn1HJDN2ngKkgx2x1Bzvfzhg96Gq2hmLCMEeD/UTycITwWNP7u4+J7A4OONSAf7UDY6pqoayLIZix3JT8NX6XsLwYSQCe6K/FyIBePyNWLhEm/0EFx4JXexEEN0I9vrtJ5ISY7k4+tvY2wQ0P7AjQPNT8/fMM8+UHR27OoSfwxU8mLuSyMV5WOCz8OHI21X8Hi5gjnifATdXy/qQ5MIU3EgCtLsysLImeErAwj8O+NSmJAV/wG4mCHxRG8YAJxJPwRnv6LMuxkhPOltEGTsMZyJAN31lYqHNxKp24Jl/TIbPCKTKw3YzETAOAdouCXwbA1vpD4eyC67Gx+paOOU48LP+8Q3edvBH9uKLneCibCsTE+ctrpRJ/k7bGzN++djHPlb4i77qK8vvlJckiCvakwSKGctizgU7ZfGGQ99wMBv+C5gPlxVLq+qGVd2gLngfHpAI7A4n3BZZsuBMLo/bNpsjo72o0UP4VhFZuB2BTrQpiKcsjfLLY4w3RZKr70FO/Xpw1fZIUPQnF1gb7UxEfxc2+st27UCsj/6Wh7M1k5MsM9tXxk+C90rynG1YBAss+8KRd+zcWSZPALBqBBJOYyIFMiDj0IDIIQCF8wOD1bzAzDHU53yADCCcXDZupQlM2lM+ncnKzv0mpHHXXXeVPurj1S/gcRDEAJx2EJQndBSoEQDd6DgToaM6O2P8iCEFkIE9HSPPD3q1EkEoxioo0ffHP/5xdf/99xenpe9sHMGKnK3Y2mFetC2If/azn63++Mc/FmJMvcwD+yAJDmh8SJDdkQfSpodEwO4KuxFB2XidM7ewAQfm1LjMnXaRGUI174I+3dgP0VndaRtJakN78IW4vTd/5t4OhDlDuA59S+4EdYT6u9gBQabaQvR01573JPv02fwouzpWacZcF/2til0lt5488xANdi/3fKFe9pT3We6UkzP/INA+EsF96/aq2hu7r2/134EtuwVvBk+5fjzcFA8cjAXCv3b17/P8iNx4Y1Pkwl/rnEwEwowlWK8PjrtnQ3BYbeVeb0kSMBmc+HrspDKFhVEnYt+G4Kp+siTavTKuWRxJCnCIYAbn/BMmzR178yOrUPMlGMKGcrChHMlzuAI+BEA4FkhgIf0ENvjPZz7zmdK25Nc52MUDsI5f4POzsetk5wkGXNemIOc2mFtk8KmueoIq/fgRbjEeGHI+k5i6HZTVhgDNn7QBv3YGRhG20o+F1MP/+EexFd/ha3XhY1/4whcqO5B1f6ebJN91u6W4ibA3G/AnHG3M/Ie/83WJEt1xD78T1LXBXq5Lfvgx26Q9jclcGi/Ba9rXpkWJOcDTkqZO8Atdcb15NH/OaV9ZDxRKZvhrxp/S6Az+GxA2T7awIuLAdQFe99Gs4I8N4P+nYyvfbsGBru1KEnBvOMmqbhw52WDvna02bcqyPbmbon1bfBKIj8UW/qJw1vh3ijgnG38vdgs8T8DJNoaz3hq3itxf87kuPpaHDyOT9wxC43K96IzfA4+DswFHTgiwmDgBweRxhtciEH8YkwUMHFFZzkuU144g6ZrPkgjAJlabwAiUACdDtLJzHSA4jvf6I14BzQpVENoWgQWZIBB9cppMVhCG9mTjSF8mDHjAqG1CZ46fRKTOKKIfdfTJYZAPXTPT1wdi0E8S07B2OYCAxd7IyXiQEEdDZKn3KG3ph/PQh2PeFrcpchVNVw6HsCQCyEWbyMEcCYzKmgv2YjdBHQbo5DWDsld12czcqnvjjTeWgM8uyMB8ISVjM8fmIx1ekuK6+TVm88hukgf9mhtYggd9mFfnJW/0Q8zKK/fxj3+8tP/rX/+69KcfOKUj0jI2Yyfa0gZ92IitfJaopLjmHGwam2NKYsxnQtwOkAC8EmrviaC7L/KYcosg/F0wPmKx0HD6/Ph21OuGza6mFiIC9uIYBl46EIFZ2bdrO5Mn8Ei0+X60vTaSgQ2xwDhtpHHiUJTBO3Yp9L80OO+aWFS5PdlPH/0ci7btXLh1YR75jyCD8OEBjviLoCJRZG/+5dW8ue0Dh5lY4hSYlSx4hR/lzGce8CHguFUEB+ryddjHQ3wNLtQXVL/zne8UPOnXwkPyAcNwCQdWyQIh7Fk0wBf94UcgTYw2saF9CbDVPN6y6nZuVDkWY+VP+PbFSIZS96zPnnTgf4IuW/Jh5/gWW/NL+kvO+TG7sbU6yqXf8W/X+A87eM92eehLHdygL/bcHXZY2VtMSRj4KJvp11iVe/DBB8s8S0gkBxIZtjBXxmUe+Drb8mf9mmOv9DsNWDn4aV6nTQRsndmmWhNB+/CQftw3e6F260LW6/7/2gj0p0jPA2S/+bDgEl4UXsARXgxn/tWLi8qDiXYM3Jcr3NLzNDQjk/csgecHipPHOVn+tqjLkWX72iK6C9WqfVHeLsLBzXErIhIGD+WMQwAPKGzZeNrfAbyc1qTKBrds2VK21NyLuriXDQMJhwAcZOqzw+RyIo7NgbSlD2XcTzfpgMNh/hFZr2uyc2ABLuWIwCY4aotzHoxyOwNIAATgmbAAMWLQLl06nU5pS1ZLnxSZuc/aBDpAHyZAqQw7ADsbCXQATVcOJyh5yI7jITeOOZ3QgW3UFYDcn0cy7IEEtSdwjtKWvpAsG1qFIDRtcW6vbCKBs3I2BuPhjPphR8kLAuScKerRT5vKSK5+8IMflBWIZy4Qj0MwNZYtgQ3vEYbDmAj7wYe27QyZI3OWDm8OzZ3DvGuT3ogXAQrq9KgLm0g0Unfkbwv2+uuvLzhDTDA3GbYkdJCA6BPmzJ2gkNe1j+CQI9w5mn2Whub5Pz5/z/pYBCyNhUHcWjwQgRcf7IvDinxX5No4AQ8kwpIjFoeJrPzBGa9cFTnOVbGocAvRynx5tOn1xgjgKYciSP9zV1U98Ep3l/Hy4DimTvjqQ1tHo0N62LHgLfrfHRzkmYPUJ9v0GZftikTG+9XR762RMJgDtjf/MAUr5tt7AUqCCsP8kv/CDFxaOOAe+DGngiv8CCx8T+BzwDNcmDsYSk7CKfpWRrswA1f4SDupj11JbfBpCw5t4BtBjR7ujcOl87gt/R7WZy0mi7G91iUnoH6u9h5+YZnv4Gk2YRv6G5Prkmm+Dud8y62A9Bd1jdc1wm6T4Sts5ho72ZUzH/fdd18J5Oxq3Pzaw37KHg47igWH4jXtbV5zF4GtzLHPdnDoYT61q7z2fJbASfpOSZbSBmmb/FyzQ7+30yYCF8bTMoO22+sNbg9n88Bf3jrgSBPhVBsjYz5VuMlgeSMc5YnXPaV7ojov5tkWmXtyOeWLIzbJ2D1L4FwSvlsIVgUcMJMDvXByzv5qJCnP7YnsPZxcxl3qDlZj5CuCBacUAGzJcRyThVQFQRPa6XRKNghQJhcZcxLAAx5g0QaACQ6CuLIm2DmO5FUg0h8nlNkDJYBpD5nLINUj+tEO+3BoWT4A6Ue2C/zOA7C26MvR6cJJkXud1H12TCfGnjYRlCQAPhuLg070/fznP1997WtfK3qOmgToO3WyskA8gjeiNAY7A0k27Jtlh+lsDtLO2qCv4OecuWAXc8tOxCvbZULCZpyYk3qfBGmcyJSYJ4kV2zjYXX3j5tCCqXmib9pJGWUROVzRw2H+2BMe2BfhInz9O1x3sAlCMT4BI/Wjj35gEpFIGNjRmLIuGxA6GA+dtEMfZfK6dtgZ1uimHPw4d6ZE0CQWKxcHV1h9vxv+LenfEYcFB/7CAYK1XUureStvVe1KXhZB1zk8Y5v/6uAtW/S2/u1MatfOpl2GoJeySPGw4OM7o7+IZzinfIVQpA9RxvNKRLuu9y6VHUyLGElC7q4qvzg4DW+9sLe7wNl5damO4Ao28AQfxiewJQGFAXPsgEF4MmfmAN62bNkyxRMwDAOSP+cllw4CK+rqA4bNJa7xmZh3n2FA4HT/2mdlBVDzDU90gBc6WDionz5opw5WJSJ0o+Mw0Se9YEo/xHvYt6tKPD2vTP26oKkM/ZrinOv8BqfiZ3zNx4zNdfhWX7t04DvKGYdzBMewES5QXjk+zA98tnhgF3bg5+Yn+UjbB6PeW3FdQuCz63gcvyqvrPbMt0DPN12XYOkLx9ut4bfKsMtpEriZifTgOqAKY86wwQEtzfj0sgti9RIOyflkyXYciA0GW2weqPkwPnCo46HnJTESTn8kEgJkoB5ZE858VTj1wUgcOFvXTb2OR0wOJyBI1QpVIPHeCtCkCVBPRsAqAT1Ah0g5HkABHxCmA2ovV/Icy0Sb/FwxAvJkZKEcEjAFEM4nWHgFJCJQCjIJ5Efi3hNQyXCtfumgTyBzP4wO2hMMrWL1aWU9U1LnCMZvJSDr1j5nQwzuLQpaiAChOaf9TOaK4iP+R3fOxhnZhLM6J8mwlc+OF4XzTIdfDkYPW54CoxUBkqUXB3XeNxOQh2ucr/4thyQqdjUHgj59PJX/7W9/u8yHOUHAOZcIme7mi84O1/SXJMb+2mE7r+bH4b0DdpS3pQhn+raSMR5zwA5WaexiPObUjgy8sTf8sZEdFKRsbIkLOhBERg91vM/PeV2ZPUGovtKUeIZ7/Z4J4eIC7cE4no5F2vOxMfNacMWuSAB8rQ8PXBEccWMEa88PXR5weOSNeLjvzS5PWCR8ckPsEMZ1Dyj7hhSueT6C8UXBL24zbgzukBxYndsVsPuQ4quHq6J9zxBIOvYGxxDncY0ExI6Cz+hLQiCx8Ho0dHbrgOAtz1RZ9GyPBCO/KWWePBQmKMATn4Y3Qd1cTwYP2E0zh7lwyORMHZjThkDnOhziEefhG+ZwjDk2b/AFbzBsFwweYJOPOe89LnOLc0X4ir4Fdt+k0R6u8ewOnvH8gr7VhdX8Vony8JYJQtcCtf8Da/RRD49YvWub4BI+k4GPH+FBdiB8CsfCfx2j5WL8JzERbPmG24hsxDf4Tvq72yP01S8+nJiYqO69997CEezFBhIwOzEOfm+cFjV4gY3ZlI35YiZTdDAuCQQu0TYdtceP+wm/U8a8pB/2KzeOczVYD29OwBVkM8A2S1tlC9YybWI7zP37A30Sv/CDsqpfGg4QNjxFBPgrIrv3MOHV4YB+9GNnOKe+CedyK+E8msvSi07dXQv39Oh5NBjCK/HUL0f17YNt4dSrlkWmG+djw2F6aSrXpwZwpENZlSNbX2/jcJwXUN02yCBtYjmmiQUgpA70DsCWNcv2BCdZNBAAjs8AlivBdOoMDoCL9DkZp3dox7mnwzFl/xxLPY7CEZOw9U0vh760lbch+gx56CnjlEwYs/vQhJNxDLsAkhPbg/SYi9DTMxR011baDynon7MjUTYeJnRjM3YXGNmXrTiqwKcdiQv7a0uy4LPyDvPIbgKhV0TE+ZE2cmBn9Ti7vtjHoQ9YSYEXKz19Gg/CMv/wgQDVdbiWQRce1EHISBiu9Keuc+ojK33ZObETlOMy98amfqfTKXMuAJCcG23RG6GxEd0ujM+LzV2MifhhJL+7YNz0ZMPEVSkwn//x8zg8K/RyBPJ/vR4BObjijTjwkIB7RQTYzeH/t67pvrpdgE/sINqivy4WG59YFwuLIAWUYGfztWjLewF8T1x/J9pfHVxzTfDRkrhQEoD4vD7a3RzXte9bSbt6HGX3gXXKrc/geElBmK6IYI+/yq2ALB+f7Th4mPnVaI+4zZG4MQdWm/AlgTcPsEDgBtZwh6CSYu7Mo1eHthzem0sYUhd3wav32oU3ARUHSDa06ZxXgYl/wPy6OKcN+OHPsEc3GBAcldUPf5GsWlR8ccuWgo/EV9E1yiWWfGZ37WvPyppolzhHL75PjAVmvRJBFtYlSt43A6zxwzKdjdlnZR3pw51Op4yLXehvUYYLveIAfIvTXcM59DEeyRh/16a29X3KOIuGMb4Yr8MYteV9/Ne7eupLllPW3JSypxYZ2ycxcSTxsAwHksXmdly94qvhPG8HDgV/4us8z+7vbtd3z3T/DzuVr9GsiezcSj2/m+tqXCoP0vy/m7tOJID78Q8PFtq2I+Vrgr2Ar3wKLGQi4JWzEtt+66Kfy8LRPFB44+pF5VzprFtk+P8DJum0So1yvmolcwUeTrAuVpLXx/1YIAEygHRwLMBC2AIDcAE+cAMSgCoHWEAGxIKpQI8A3OdyIGKB3nXOpw9lAFY9zybkKkHm6lpdAFrSwPm9n60IcpOTk0Ufzmjs98X9MkkSQhCc0nFn24d6gr1nJBCggKYv9hYQfe3OCmRtZPx1jPTrj20cbG7VjFi0LWA6vM8neTmiOWE75IhAkJM+zQG75WoEIdoRMW9I24qLnkhWAiNZ3Lp165RK7CPBkLwp69sK5s6qTNsCu8TD3LIhYnDQ+0c/+tEUUVjNwID5J8javHc6nULmytMZubAdMqKjQGO3oy7GK9nI5AFh+QGibDvLsoly+s4Aldfm9TUmV1A9P3x/b/CNVb1t/BvjGSDBGFd4zohIEN6OYO1BZN8EkCjgiP3BV4/tjtdYzQcMqmsj2LvFKVE4EocFhSBvAYSH/K6AVf0XNnW/1bQpArdvN01GApFcJgHBQVb63qd4W/SK+r5GqH1iceM5hGtXdpMTOt4eiUutaikH3x4QhHvBUMKHG9jffMKkw7xa6cJprpjhzjzCOOxlYIcnSUDiFM7wg7a9+kogn4B1eJPMWyHDlTr8/Sc/+UkJ2q8Ef70cgZg+GyJwastXljOI+iGsYuQymt5/jN4QY5AE2IWA/+Qq+uO4TAS817/dB8IG+DMPuK8LPyfZvp0LnGtsiXE8zO/4sfL4Gl/5rF++zs/Vw7l4RzkJiMUPm/AFPsy2dXFNPOC/nU6n1OWL8xng6/0Pez9yIuD++xOxpbaPU4RzNHOYVyJg+26th3WIrxI+Gg4is60L53PcuDqy9QB/Ok+WcX+Ow3lqloPb4vO8AQcitutst0lI7ELEHFRL4/BQo2845L253Jng9Ovi4Kx3Bc+tjFdkMbLoYBSJcoJ/kSBMYLSFhlwFJGC+KIgSGKyaOAsBNA4GEA6gAvDMKl1TVz3X1AU0zishsIWXW2LqCwJAqF9ls172a2UuMCPtuiAI5+gtiM1WkJBgw3E4l8D23e9+t+iFtIxhLsJp2EQwRVI+C6Js4NC/AIwE7o6v3ywJJx7WZ15DOu595oqC85sDJGHbXNvsYy4c7CSJQ1iSJ/pIpMyBcfssIUGYDvMtEXAtbSTJQMgIHjnp02HeELG5mpycLPprw5wiVQdhB0EBWSqvnuQQ0dA18aK89gVpSQUd6KNfYl7ghn7GRb+UZmAvs9ebQ+2zhb7Ul0z4fCaFGwm6JcAGR7i3bztfIBfE8ZRFiSOg0n0iP867EPRRvRo8Vb7e11NaOx4YLA8px2AtfvxyoODv9wYM/aI47g4umYiFBY6yI+GBwZXBUwS/4SI8I9h/EJ8DSmUHwoJEW3RRjviJY7cwOtGeNumAG1Ng3PzBmwAP34ISu5vDDEi5ehecrMp9Vi79QnuZQGvTvFvNm3e4gwnYEcA6nc7UriAfyJ0A+LKtviI4iE5/+OMfS6KcgVs7fG9DtGlnSD+4x4IGrvQBN9mf1/RB/qb/XHnDoiNFoDde+CXaksjyubpoj23o4bUurqnPV/kC38VX2iLG4b2x0TvxrA925I/qsCO7sK828ad6/JS/6beZCBgf7maXiYmJUldSXfc39nLMu+gj9E4ZORHwRP6vX43MOjJfD7U0MwE7ATLnY71YKCHYGWVtv9WFvRfHcWBz91e0BPW6cBKBmxPLwjdFRu/XtjwARDio2weevvXgj9sLsmlO6MEfuvlJ5LyFcU04tXuDsnwOdlHUTwfstjie/8sERlP56jv7P+v9chxCBzxgIbmiQuR5IFH3egUQ96xkpcCkrAMhp8Now2fEb5UtKwZUIJYEaIfDChzAql46IgALoAlwbRHnAVxb4wAipwB8/dA/dya6vc3+f06MDGTl7Omeo1swnFQCxc5WTeXWRpCEJ3XTyYf1yn6cXBKkHSTJqZ03RwiHPZEU2yNfc4WUbblzZgTslX6ImC2RQZKrFZaASR/PD8CF+hIN5dg9dxUkJPSxotO3/syhlQhcGJ+HQxGLJABhSmaQTBKgeacv2zsnYUJu9HMYl3Eq0wni1z594GiQ1DGIxOHMToV+vbLZmRI0ZoXut0G+vKm7ms9dwd9ti1sFO7pcF2oWCTqJZL3LDd4TXGDVnosbK3Vc8tVOVX1uY/BOcAlOc5syzFlW6ZpbGXyCizwkuCxereblF8R1SYC2j8d1XFa+hRD8hKMsdNyqzGcEtOMHiyxW8KXDLYQU85J4d4tHAONTcGBViy/ML38zr4IYP4A/2BFAYQ5OYNT8wqnyzsOeuSPm1wGLEgntwHkGK8/+qON5n0xs1fPsD0zSg3/Ar9U1HXzWl1c+xB/oD3v4wXlCD88b2EmgM3zWxeLCeHEVMR7+3+l0yuf8j/50tFiC+abgEH5lXF75ONyqw8/omgsnHEsPPMqncaex1f1d+87Tiy/lrcOJCPZ1MY+ZUGnTXPDbuk/Vy8/r+7BRXUZOBHxlxv21PRGAu99xrTfTzcA9nMPRCEcTjJtBVzBeEr2675ZJQ6nQq2PqreY9byCbXhxOItu+tNeu+hzlrThPD+9trXlYECEcj0OiwAGJHQTteajIgz5Ho3z429gEqDJbByITbZKBFmkjS0Ee6DgGsPkM6OoSwBPArdR9/cTKVGDjLJyC43B6bZVEI5wUgGxTaQOIORRAcS4O4JVe2QcQcmw6aj+dLw0hiMiMtTuORICuxioIcSqv4xAZOBtzTDobt68SOi+Ac2qkicCMle0483TOZs6QJudkV7bn1No3FgTnME/Gw0bK6hfZJQEn8bK9OWQDtmZ7QhdzKSGQGCT5ZABVT9tIBV6SxLVrbhCQcSI4pAofDmWRmnmmN/2zP30S19hF4DBG7ZkXhGpsdLTDoO8k6lKx9l+hj8CZ8dKpvvrRxpkW/CKwfjy69tCfALsrVv9/39ldKPTTBzXgFodvOR2OOslVqyKPscpfHgH7zmivn+Ao5fFKuYUQr1b1vmVAcOySaMN19tKPZIOefqXQ7Uqc5TyRvDjK1wyj3qK4tjTaDxgEl3Rv4Zhft6hs05tDcw47eAZGYAbWvcKr+XE+8WNu4ALOzTMfwg2dTqfwhLlMUUe7/IePwbE6eAqPwbP2vPIrWNa3V5jUlqCprH6UwXnq0ztx61Ud51NfX2eVVNYThNRLkk5/PkLwnB8G8oBfXeivPXbgV8ZSb4+NlDF+/qQs29DRmBwSI/rpg37GpKy2HHRwaIfgAjygrHJ8rSnJwThDef3zQf5XF2NU1mGXmb5kOg6rtzH0vfZiTuoSkBtNbomt/P9/68n7ZT3dpiq7l//4GydvDfht/4+vC4dqRF0OEfit/I52/ceGDFXw3ha7CE/GLYhc1Vv125rLZwTCT2KC4+Gg6M9PHnvvAR/3An3/11cLM7un3JtBCu4dSiiQhh9HuiN2GDiktuYqgD45OVlWUlZTtu44DWB1wsk8HS/TdThnBeXX3ZQRzDg14nWdE0gegBbIXAdOzmLlB9gACUAI220BwRuw1ANoq+Qf/vCHxTE5gWvaAi71OLX+moEZiNPhE3hztc181BfkrYoEfAFOILIaMTZjdY3+bOfeoVWzlcp0TmRetmzZUtq1o2Cnxd8U4KQZpI1nIrJ8cyHr17etVQ8JCa6OXMn75sI3v/nNqYCaKxNzSBdzjDTy1TkHDPimgkBsrjP4W325zaK+ep6BsBpSBnEZOxyaV3Wb8ztsLthLO/DDrjCNANlOf466ID8BCdHrNzFWLzP1vg/pTF0b85swX1lJ21H8znWxk9gnkOMZAdgOp+eafF3vtbg94JaiBcQd67u/SXDTqv7K4Sgr+Sejnt9N8dmugATEQoiEGmGzbmB/MXat/ZaBHcxtoZfnlNZFwiCRmOK0KLsn7sZIFPCjpOL2SGyuuyx++z8CBcw/FE/r++lv7wUIvgrzfEBQFojhEl/wdwHXZ35gbn3zxY/UCEDa+MUvflF2AAU7/oN/UuDArgM+gz8YzYBngSEB4WcSBX5iZysXEurhNIkLHOE5uOZTdNEWXT0Dk78jAqvK00sQ1T6dJAR1oQN/lIgTumirWY7O2sONkgdltMcmRBse7hPQ9cledOFTfJ2ORMKezzXxKVwuecef6e92V4zP3yTwS4DK4Wv9NcW86dO84VvzYj6aiYBxZlJxOHTjnzCVHNFsd8afOUpDRk4E3L8CYMBv3hbQ5tadscqPRM1PeJI74h7a/70+AnQvS+6e7f0fesiA67/xjS841OtR/9HdkXB0F1Bdh4nzpdv4TzC3K+BrPvkLYu9E2fzWgkyck2lPnSyfQ3fuhsD8xd7kyZ5as3lJMFll2zazWgMsDukePkI10UALYEAiKCDPzOi9Ah2y55icG4iRMrAAsCQCIZdsMYBkG19/VnYJMADSv20qJKAdwPSkN8kgwpEEk7oIJs7R5WwU4zY+Toig2A8BWKEnEbCD4Mze7MI+7CpoI5tmQKuPExEK8mymL/W07XM9ETCHmcWbL8GYo3oeQB3EhyARzfe+972pLnLuOLP37E0nrz47TwR7264IxjZozgkcuUaU1zdiQrb6M8+EDZCL15lIwVXUQcRsBwf61JejLh8GJhGhgJEHnPaVPqTTt9yYTvJ/W+z3Rgxx1AUnWFR4MPDh18NWsWJ/J25nWomvCPOti8WE2wGf39D9xUAUkZJUYf3n10lfiuD+j+A8ohzOwY36IDhK+54/2B+LEc8ReFhRX96XRKBXXtvK4ypix8Au6MTFERAicAigVtiSfUHEfOR8wQ1Mmi/nYVDgk1DiDeXNp2Bt9YxTBGsLCRyjTOI+E0JJhgWFW1bmVXt8L99LPAR+2ON7/AMfSQByxwL+6JK+Qw+JI/9wHh9adfuML9XXpz74nECq37rwO/WSu/AYX2+WYxtjZi9l4ViZTAT4HZ7FFWk7/s+n6omAuuxrLGkn+rCbxIzN8T+7S/zd7iPquEaP9OtyIf5jY4dr+d4r+7CF8+yB57TNH0ne4kwclpNj/O/UaDCkYffi3Mvq4fy0koJ6AXO8EitzX92r3+vqXun+r706R2jX4Z6cH9zY20sobOlzHFk85/H9XrsMAr9VPcFTx+K6JKT8GeNwdNtyHDPLp5Ptj6SBgxL9zdWwQAAwAjWi5jCClETAahFwEbNJ5jj5BDrAAzYiBYIUAVwAUgcQBAoABWR9AQ2QcUYJBYcEFk4I/JxIFgvYnETbfsVKoNCGrNUKNgNH9ovYObHgQ/+zTTgHm3BuiQ7ntqoQDNPxvHY6nZLdvx22sCPAgT3lzC6cvq+ETa0cPPXLyQk7fP/73y/BOonHeYQqsUC0Xok5QZ7mgb1hwHtzk6JvNkdCjkGS5GAuzWkShm1/GEq8wARiN29uJ9FfXeWMw9zTcTaiHbqzAcw1ycx2JTsZKxxPK9HeKc4+bYWZFyhBeJpqbjf6muHTsUr/8/buXw70kN69V8U97tgBsFvoXr2vHHpWSZsphdaCLAwFt+TXml1XToLh+/84iuRDgYuiotsMbje4jamc56zKMwJRXt2AbSlvJ4D41oAd0aNh5/37ur8MmByDM2AJ35hjHDE5OVmCB/+GPdzDD2AEFiwO+I1VPJworxzfcFicaNNcwp2ALQnAB7lFrh2rVLtEtuLzXvnWrVvLzqR6MC8461s9SQL+05fApl9tCqz6VCY5SjJrN801YzOu2QquME5j5mt8ht1S+JFrEiJc5/ALfhZz7AzzRFLAhxy43Hj4Bh5nC+3wgUwI0t+1wZ6Ouq+zBV42P5kE2dVld3OE67VJH/ZW13kxgV3xh7/lcSJsNG4ZORGwZXVBHIMkM1rlCOBLBjzMNxPRjodvBHBStvnDWTyMKHu/ZGk3c3bvf00kjNmfTFvS8HYEettszpdEJEZYvnLYG6mdiKzT7WFu/5ugnFiBygHUst5cwQElZwBQQPcewQNRJhKphYAlEbAKADrtA6A+AM65JQEY52x56wswOaFtLkDjrJyJDtrZFg6oLqAhi4lY+Wamnv1yFu0AazpCXvsoXzMQCjy55Wj1YPySGomAsdHZYWxuvfwpCOrfcZuGwyMYjmcF0Axq5sIKF1EhSs6sHXYV3Dkju5k7hxWV1wzI9OPIVmzsn1t+5pwzp1iB5Dxy7EGCCMwDPZCA+ZL00BM5Oq8PNnBdIoC04U5yCAc+S1hgLW0zqD8YRDzGlGJMPjtPmjZz3fgTx1lv4OuiIcQxsNJoF8RdgbksHoIfhon7+W47+uuDj+yKWwOREFy8ofubJf5egF8nFOh3nowZpTmLCLuhfmadGA5em+KoaNfCxDNLVv14CG8tifZ8TdrtACLou30gGbDQURZHuSWhj2wP/3V/dj1Wij2+gB+3r2DMvOAIuDD/MCHQmSfBB1dIAiwI+Dl8Cu4WIXAJ2zCOn2AS55DkAL6AN+DM13+V0w9s8i+JQOJDssgv4UzfAjs/s81uVwwHKSsp176+veqXT7quXb7mGjzCFTzPVoxXe5JivotD9YE7XeNHbh1IBNhNXzlm5dmGjrhQWfrTi53phgNwCk5SV3mf09/VM1/8se7r2mabTqdTdovpaHeTntoyf/QjrhF643JjYF99Eb5NL76Y/pmvpcAM/xs5EZhhuzMuLjhLiN2buzAWWhyLeKjQQ4q28h7a3t0F8BUhXz/0bYLMon2P97lwbI5sK27jiqr6VDi5ryP6uweZkHD4FdGR/uLfnAVRmxwTzkkQsS2upgC8LJhz+voNAJUgHYQOhCnKAZCAbuJ91jZwmWg6C076kiFyQvUFBdk2B7NNpQ3gsT2uDMBzNL8iqN96pqpvwUcbDmA/W4QDcgZbme6RGiOHRoKIphnckZaMHPE9EU/zs437ob7/zDZNZzEPB4LwEIOv4VnZsLv22RBZSTZcR4ZIllgR+atrCIOOCCMPGPDHWNg5xb1FCYrVRZ0c8nq+ImpzRm/t2vX5+te/XubHHOV9W+SBXNnDnNlKVTZXOsaPyOEHdvoJO6oLr4glBakbu0QTtpN88jqyyj/wwtbDRB8OuC3fIx9WeBbXBFer65+93P1W07AmrNYFX4sFgVhA9oyAW4x/Cxe0uCic0CAGO4//54aq+tZElzf8nZLPb+xyi/60+2a061tSW4Ojno9kY2XsNPgjbTcFR13fhUz5I0V+W+W56PO9yLskBXcGR921rvuHi9b2pslixe8ZLA3brl+3NnZaF5WVu+TugQceKPMleMOlgANvfBv+zDV84SXXYAIOYYfvwzf/hkP+A+cpMKAsDGpDXQmH4J7zjDe07Zs6fEGiIQjyO5ylH6KceU/e4VsSVFiS0AiGfBeH8e8zIZkESKas/iXvbMeW7IAfjANv8ncJl/GxGe6hp+BbOKPn78rgFL8oy+eJwC0R8tyBnYSmZCKtLXPBz/k7/cwf25g7Qg+2pFMmKcqzM/tqg/Tz03JhxP8Ge3F0EiMcsZm5F9OTrHhzBG1Hii0yP2a0OJyDoxFP/8u0PxZJg/uBJBLw8vOituH8XOfN4YBf63TLeJrXttx8CKJ1CPImEIkj0ilhxxCTaZIRrPvKnNY5ZA2YdclJ9QpkgOMgyFTrua3HYYFEgFA2dwT0o/7kZHc3AHiAXl9eXauLgAbgwJh91a+f6fd0APTcCWBXW+AZpJCg4Mf29eDuh5sQlYSLY7OzekhLYOP06qSwxZsRDDMrd951xKANuw4esrJ1iAjU158AynnZjTOyGyJlZ4fr7JlCJ0QusUgxPkSgbtZH6N4jUCSUD5dKQhCX+ZaoWJ2wCfuwibbd8vHjLh7Mgitjd61fIqAP44EPSZbxajvnXh+wlFhMnb2quzSua7uJoyzHFg6ERQ+Ez67G5P24hFfY8vfb/74uOJ1YtVut2x3gmr7m7JxfIxwktvk/sb5bj2v7CvJtwS8OIhnx3IGHlt+KV88suX3pmwF+NM2vGmIBiYffYdke533l2QOKn4x2vzHR/VXBy3s7DqXR+O/EicWx6xnfeolADAeClF0rOGBDPo534FGQt1IVLGDdXLoGFwK7hBFezTk8CFSeYVImxdzDLkzaUcAxgjUx1wRn8QEBDmaU5Wd8C148K2O3yooWtrSnf/jlE26neRjWeJQ/k0JXWORjEh46wq/xSHiMScIu8TFOCQ5b8XG8yef4evo4P/CeGKPxETZlt4lYrEkUcrGgrP6VM0/emw968XfX2T13L9WThBD+aA7MNR3YmI/zsXqSUOfCUnHE/wKKZ7d4LmFVZOC+GnTshvhRo7iF+3Rk3P52wJvhcJ605YiezH0+klFJwP3Xdh9WvD5wtioc0vMIH5nExJEScAJID8VDJlZrJt25BIkyGfhyu80fpQAaW1gESAB0FNE+gAGNdoEFwLUhEQHEugA5B3EkoOvXz/R7+rNNfjuCDTiNVYwdFURmTM1A5B7akrC5MQqMVu7smc8VqG+7M+txVE7MyXLHwOpHRo5MvSItwRX5pt20b1WUwV8bkolMKNyeQSopSAYJJvEiXUQiWaAD4cT0SnKVPCBLK3ZB3xjYxHkk5jOd8itUxmasdgUEXERTT3pSF3hAPJIIfWvfdi99jcd1RJnJZZNc6LcriBG2lG+K+vSDJb89rx1Jm1WoICAAjUukswLunbGAwgnDxMrdbUPPEvklQvf0bwheuS4WFMPE1r1Fh8WIncSmcHE7k7659IXI87x/KmLCwzu6tzR9o0rCYgfgueAof1jt+tjRtFi564ruLQk81k/4ewZhQSlX5sp6LxkQJPgLv4Vh+FCWf1jVCxg4x1zDnGtWrRILnJCivARbnxnwzD1MN0XfsClR1oc+1dEG3Nktg21YSK7Ttt1K32Dw/kwLrAqssGncbGUcfIT+bIIf+b33xu06XxLY2UUbyRl8BMb5LE7BE0R9/q4t5bUjIcaxkjX+mTZ2jc30h1MkV2wu0Ducd73ux3wXH9ArucJ46Nr01VFtPDARkMESmbN7XoLtMLFyVzYfxAN63yKQPQ+TJeHJHNmzAXUf011gqGTSFq/rYxHB2f1xD39S2NaeB//U5+CeH3BLQCJwe5Rzi0ESIOsOtUpDHLbexzC9ZnoN4DmZ137iGkdxeG8COQgnF1ycBxaZJ6c12Z4FeDec1w/WAAOnVz6DmH4EFGDTHpFcaAMpaEOAck19YAFWD881V2UydquG1KM0Nov/6KM/r7MR9lNXkDIO9zWt6AEc8Vh5+FofJ2a3JvB9ZiOBh504H/uxqT8frH12tArgSPoyH85xRIHWwT6pi+vK+ewg2hfUnDde2562G31GvIK+v9uegmgc+iTKIKWcJ+1qx2E+ESWiNh62MI8OqzTnc6VNDw9NOjqdTunXWI0ndU4dvGrb+JAZHZA2crJydC3HDAcIU/9NG9NRG1710RRtwGEmE5KB7UFq+mGDsSYC4dAWC/4o0HS/GIqfBGJ/nMgsxtCqmyIR+HKnOYJTP7ut6O8MWFA0EwFwYIG41P1hoSjn209PRyLg11Vxp68q4k87DxIQde6NWwt2AzyXkF8bxGPa1xZhdwEjxfu673vvnACQCaWkwNybA/Y2P/zEqzlVR7u4Bz/AgDbU88qv+Ib6ymSCmzp4zTYkFLConLa1RY8MdnxP3zCvXf4l4ZTE66sp+uRr2uAXbmnWRdCEW32RQeXgTjl4ziQq20l78C/9aYs98KNr6YPeu+6gvyRbHeeNz9fELQ6MnT0sCiQ5xJjhXJvp4xYxyib3e6WfMWjfnEmo+DPfmozdFL6J87QlEVCfqGt85p1dcY1y9JitDE4EADcOD+G4/56/gjWoI/fnfWdfQCaejH1sd/cXtbpn+v+/NgK8n9V0H05QTyfgTJIK9/8kFL4uuC2SAPf4BPcD8botMu2Yp+LUHkxMh/Kd3ct6OLNF5w+KuJ3AoeuO1l+j2Z01qTnZwNOU+mRv2bKlTDKgm3CZn8zSPV/3hDio7b2JiYnytRHZNXABisn3PskZaAAToPSrrZ/HLxoiYqu2KFjqcDyOK7OVvdKnLhyADsCbjl6/3u99c5x0SkdO0ParN+ycesYk4/VErZ0AY+OIEhgBzxjonzbo1x7nYSurXM6IHOwumCc6CuLasuI3Zit1DmWVnc8KsKs+1JdMZCBGlA7zQ5CDMuwngUA+MnlOnYJo2T8JEImYb6tx4zVuju+VXbVpjMZAB3Nv3gVsh0SAfm5fOHKb1qpbHVudyKWe8GkXthC0vpCgthC0FQyyoR/9bU96rgIWmgTDhnR/L+Ylx5PjzFf6J6l63RN9SpQQ5rgFb9iCb/5mSbMf3yjy7JFg/EbwzfvBLX57ZNAPB2V9tyzdgjwtCYgCR8LVBXsc5ZsE/vqh3y05En3hHF+DtkBJcc7PD9PDrQRMIQGQxHhI0HW3MZMHs16/V/OHP2AG/syTwCDZlzzmThi7C6IwS+CJLyjjPjY/UIdfwSicwQo+g7OmmFsY0a824N5tBytdty7wmkClH/7FD/ihvuANZmC0KXAClw6cp+26SEyNBX6J8VskGFtd2IJf0T134Fzn5xIXOOcftv75u6/qGgPfwA1skP0YJ335Ej9jF/07LFS0qQy7p78bG3+nnzF4VU4b+VyFNo3HAoK981kkNrcgoxebWvjwaYGejkQb98WPz9mN8V7fyUWlwCz+O302eo0cCygCs1/p8r1+AXiY+CGg/ZE0uA9G/JGPx6JePszXPXv6/zdEJu9nNwVy4tsBe6Mv7bwf/Uss3Ffztw4kGq5zJMKROZFs29O3K5Z1z9OF0/t9ceTg7xD4GiNH49D+3oDyHsoZxeG6rfb/Hyk6gFEQNvHAAgwmH7g5BHCZNIR7//33FxDVH/xC6iZffQGAUwpMnItDT4bDA3aStTaJICIT55SIwHtBBqj3RVa9PPrkjMBKHwEKaOwO0JPTaFc7Ai4nB0xAzT76jVxdh8ydU3ivvJ0FAROgteFoBpJ+7eU5TmMMHJmTazd3AvxAD9Bz7lN0izJxIpsor8bnEPA5t6Qi77MrwFFL8IvAbV6stJP4kJlEig2J91bZHNe2H53MgzqpB1LRn3aN13tk0xR4YGsJzh/+8IfStjnRJjFPbIAM2dbntJ9yEhzjT3wJ9PCXO0lwYDyZRKhfF2X1b47ZlQ2QiiCRpKY/uku8vHfQmx3pBavGz+L00FazH+dhns4Osj9wxpbjFDoI1H5G3FEXFi1P6QcX+AVBnOIbBhYY6uAEXx/0M+SjCq75IOoL+oK8X1z1o2eeEXDO31vZHUOkl7+g6vaDbzSpJ5Gw4FkeeuIxi6fyNcT47EFF18o3pkIvnOihZrwo0ekn5kOCy4dhxpyYd3ORQZkf4Sa4Fajg1Vyaw/R7eCAwa84yeVTWPDZFfT6qDT7lwH0OfcEgXeDU7o8EwG9jSOaH8YF2+SAe4h/arws9M7A6D4sWTsZRF/X5A6xl8uM6nArG9JIQ8CU6019b/JsOdJTMsGn6WnKEdtgXpo1Rm/yDLzX9PVftbOo2Abt6lbTzNYHewV5sry3jsejQv/HiO3FA3UwElLWr4ncLzDfOSR6i32zk9FnutQK4gqms9eFd3Z2BYR0cCkeQFXM04k95+oNBtvyHiQd9/J1vq3lbd/94vaoeeLX7S1yyZu15uEc75UeIopzv/HIUjnYirklYfLvArQK/OfBUJJKPx3lj4PDqnh+HV7/Ydd+m7hO/vhI014cIOYQJksF6oAyAka3J96DPoQA2oKQgdwGfg3qwBmgByqQ7Z+L9SpVgzXG3bt1awAoswAEQJj/bVA8R5AoSIAEtv0IoSGdgTh28IhEHHWzdIg7tAxSQI45h4NKfcdLvpz/96VQiwlHZA9A5GkdEilPSC3hTn/NNL5BzHvXZ1ZitVqfdCejVzabqrzJtjsLBObsrSA4AAAu/SURBVBr9bOvJ7tlmZQTN5XGe8xuvV5Jj98rWDu/zfL2PmbyXXCAciYPMH0l6GJGObOZBMMTkmp0JIklgawecIYL8rI5DGYd5IZ6j8OxAroCcozusIUMrM1jRv4PdYZMYKwxcF/hDep67gDHXkdRj8bVIf2kOtgUK85zBQ339aNsrHfQJW8ZN9zMlAv4rwUMvxBb9y3H4A0OvxOFHfvDB8uAQXy0eVUAXJ3k26RevVNVfdwRHxme8haPwTeGoaNPXnO++srsj6geCjkQ5dQX+t4MnPauAW9XRrmCfHKW8v25477rujxzl1xabemZAZleBCud4DyN21GCMH+eDgTBPBEjJLpyZFz6BC8wl3sFBw0R9HJbfBLCiVh/+cJPkstPplCNvcVnYpI8Naxt+jQu+BeK6OK/99FHYdDTL+UwfbdGpKXCJC9hLfeIcGaev80v8Q+dO2EOSgw/1iQdwPz3YU0Ln64cPPvhgmRf+hPvy2YNclKSOdOdLaYui/Bz+G5gIMB8bCsSALtgOE4nj6kZrQD5dPc6qnFsB+vPLgk/tjsQjnNW1TABk0b4pIIP3B0D8+IdDiJWRT0b5FyKB9FcQbc15GvhAHOUp4V7b8VKeR7gtkgF/+7sPRoYNse81oBO0ZKAcy2TnfVzZpF8GQ4QcEmECgQyW8zkAg7Ooh2xllbZkOa33ygoKiFlg5CB1cGsPKPRp+1gddYFIMsDhEYM6QE4XoPeZowAgctcPYGoHaLXTbzWQRkgnM27bWxIS7XJWTmisgo12BJIpiTLDRLvGSU/fALgzVvTfip0AuxraTIcd1kb9mqDn0CY72dIW0OhYCCP0Jezo4FyCGAfljOyBGJV10CFJtwCoNx4Oqbx5Vr8eGKf0CZsfDT3YSv/EXH3rW98qZIEw/IlYcywhMCfs6TBfDhhJSVs4XxfzBlPIQ1sp5p8dbTXaCpZodqIcsvJHsqyK4BFujdtfkNOWel7ZkO67A7d6NE62NcfqpdBLYgOz9EB05lPixX5nSvDKW7EwsDv5TOQ4z8bC8UAEcQF5Y+wCdIJH6j9zPp1exmwH0i6AHyZ6IhYtZaES5yQAdhlXx+JCgjER7SdP+cNp6lgoeT7Bw4OSkgOhl1uc5YeIejwYL+Uvtnaivm8brHaiJ+YARmCMveHZfMBs+rXgAzcSO77E/m7HSDbxAcnEwRwJ5lbeDudhPMU8wrV+zLU2vYddc5m7ADiEXspIPOHLrQC7AQN9ITuJ1xyXssbDdyxmZosVXAqr+AyW2Yo/p9TH5Zp+2QLO4V5ZdtAODBtbPeAqx845F3hD/aZoR/8OXJiiXYsduyd5S89cmTd8yg/z20qSKkkUG7MLfcwBDurXZ/Yx09dG6D5Z3UrZdtU9kZXaTs8t/5MlxvPO9/o3B4e4j+9XuG4Knvj6td3g7n6ZWwsyZH9UyK6Be/8+08khrByNOXALYHO09c7aAHpwny1BDl/+VoHXIATPObgVoQ9/5lOSMVfhhLZ7AB8hAwVHLSvyIL3F4UhIFygA28TLuoHPexPrM8JG3EgVaLTBQfLBKuUQtnrOp3B0n227ARB99KO8w3XnHRxD4AFqdTiEvrZs2VL65jzKOyepqIM/+8tX9TmE1SS9kb36GZQ6kUxoJ/vLetO90lm/X/3qV0td9a8MmwA/fWcrbKcNToUYbbcJis7VRTmkaRz6U97h1gDiMy+c0Lko0K0aZVfFvJhn84ggvD9NorxrbGelrG99Jfk4z570QgqCfhKS1yRpuiGOlLR5fjYv8MD+7JnifJJzBhNE6CupSAZhuSepH0mC8mlzetMTMcGRa+aJvs6xSQp9YEKwEGh8vzoDkr9Tf6bEbqBnkCwYLGYEa4HbtPlrgdeHaVwbVdTzYLMV+qfXdx9StKPgLxbiH1zlXj8uq3NU+YNokSysjjJuS/oGgqTAA9aFp0I3O5n4Cc/S+1NhJryYzzrRUfDhl3zNK97AK3AjgPI/ZdjfdYEbDh0StvRncy7QOMcP4AxezGMdL7hM2U6nU34Dgy9qCxbgCH7hRH3Y0B4caMN7XJV9DrOxdmCV3niK6FMbsxH45KuSG3zIV3FtU2DemOkI5/TAvz7zdws8fqJ+3S5szkfZWD2+MBNd2VXihmv8toh++BH/k/SzAfuyt36UZ3NJlvLmebpdm+ZYp/t8MqI0SpZ7aAFyP4aRP4jRKDIvH92v0/f5EaT9cEfe018Sn+P0QCnbZycXJWWXIfyr3Itzi8J2nFe7ChzMk8bR5JzFhAKOwA80gGfyOJBrQEJckzA4L1ArA+wABnzEBAMZQCYBI1BlnZcB5vlSIf4DQG0Ai6Mp2uZgmSXTQTl6OZCJDF8AU851zq6vYU5MD+3I/o0ZOekjz+sXcOndT6+mnvmZzRzGhJzUR25zlczMjRdpLmXPsHNTOD2S1CcbIBA2Vk9WzmbG4/zUXIQtVgTpmU91kKLy/USfDo6vL2URZkoSt7lwsCtiY1uvEgBHXs/XrO+VXvQz5vocOm9OHHXRBszBpUQA6SAh41THgTQFHOTnFY4T08ahTIr22BjBWWVKCozR8xrrptl2zjbG8YpHrPhP9HIUzxZ58t/KfSLOlYeUBzLg6RoYoQUSTrqjt6uIowR9Ad6fOicnLdH9XP9fYlIXOwx2Pt3alBzYxfwgPm8KjvIDQ/UHFDMR4BNwIxiYY/MAG2yefGNHEE74kbmqi7k0vwIRvJkfGDf/dTH/6uIEybPEQh0Yh299wwPu4O8ZbOtYqLc36L1x0cM4BEKf9ZntDao36Dxfce9dMs0e+KSeqGa9tAMbGRMe0yf78nXYZQO+QbcU1zPwO2+8M9FVm/rmNxYCEm8JCR9hbzZgz+QFn41Bebd5fM7+U6e5vi4Kpw0onj3iAUEBO53OrkA+7T8TLQ3KyHzzwf05zsbBJAAeykEIwxx21L6Yj8MhbI4CJCYNWSJhW8FHI9AK8ibcOcDiPBwXAIGCaAdw6+TtnEANPI6m6N8BjP0cEEFwdOBxIHlgS8KQfSJs/Wgnr9M/yzT7rH/mdNqno4PQQzscSxv99Kq30e/9dOPuV2eUc2mHQfbMeXSdDcyP+WJH19LO5sz5lAzU+YpUm8SaZb1me7CS81+/7r35SLvmK7vktfKmVy7fe6Uj3eg+qv3hEyatouAYsSH6nDu66Nt1mIFzhG2em/orZ+vT4fYXQkX0klrl63ar6z3u9zjAToD7+DjF3zERWCUI5SFiPBCBvfyc7ww6d8uh/K2AaNsCRXIwk6f9613RsdxCjWnFUzjKZw842wElyVPmJ7f92TwxaC5cS2yo473DHLneT1yHadgyJ8rmfCtvzpO3zLk+MrHw3oHDtGNe4a1ev1+f/c7xSXpoS598L9vrV366c9rDSdoj/Fh7xlcX5WAdL+szudl7+hi78ajPPmlH9fgvX3cQvsKXR5H0a/rxDfYT9Omn3bRn6lsvbx5cxy1Nvxul70FlzrpEYJCiC/Z8ADvQNP/qn6l+ZjOSs023s02f2dj0LK6DuDyHgeQQKIL0KlC00lqgtcDZZ4E2ETgTcyLw1GWciUEb1OqWHf/71r4ztqlEwCord8Byd8VrK60FWgucfRZoE4GPak6aycEgPfolDVm337VB7bTnWwu0Fmgt0FqgtUAfC7SJQB+jtKfmwQLtynoejLpAm2yxsEAnrlX7XLVAPObSSmuBc9gCuXtyDg9xwQ2t3clacFPWKnxuW6BNBM7t+T17RnemyT8TgHH0m22dPdZc+Jq0Nl34c9iO4JyxQHtr4JyZygU0kH5BYBwBmwm0Pa62FpBJx65qfY6a9hx2beyKtA22FmgtMN8WaBOB+bZw2/5oFsjg0gw6auc175vXXWueU26hyyjjGmYX45/r9ZnacBSdZ9pmW761QGuBebdAmwjMu4nbDs4JC0wXVHOQ9XLODUpS6uXmUib7XYivbeKwEGet1fkctECbCJyDk9oOqbVAa4HWAq0FWguMaoH2YcFRLdWWay3QWqC1QGuB1gLnoAX+F5WjGmEMC2WoAAAAAElFTkSuQmCC;" vertex="1" parent="1">
          <mxGeometry x="134.68" y="724" width="201.57" height="20" as="geometry" />
        </mxCell>
        <mxCell id="JgvuabAU2myaKvdRI82M-26" value="" style="shape=image;verticalLabelPosition=bottom;labelBackgroundColor=default;verticalAlign=top;aspect=fixed;imageAspect=0;image=data:image/png,iVBORw0KGgoAAAANSUhEUgAAAdAAAAAvCAYAAABT7pt4AAABRmlDQ1BJQ0MgUHJvZmlsZQAAKJFjYGASSSwoyGFhYGDIzSspCnJ3UoiIjFJgf8bAxiDDIMrAyGCYmFxc4BgQ4ANUwgCjUcG3a0B1QHBZF2SW78UJDQLKCctWP+n8c3rVdAlM9SiAKyW1OBlI/wHitOSCohIGBsYUIFu5vKQAxO4AskWKgI4CsueA2OkQ9gYQOwnCPgJWExLkDGTfALIFkjMSgWYwvgCydZKQxNOR2FB7QYDHx9VPIcTIvFDXyICAc0kHJakVJSDaOb+gsigzPaNEwREYSqkKnnnJejoKRgZGRgwMoDCHqP58AxyWjGIcCLECMQYGSxcGBubFCLEkKQaG7UD3S3IixFSWMzDwRzAwbGsoSCxKhDuA8RtLcZqxEYTNvZ2BgXXa//+fwxkY2DUZGP5e////9/b///8uA5p/i4HhwDcABkpfFEGwzfQAAAA4ZVhJZk1NACoAAAAIAAGHaQAEAAAAAQAAABoAAAAAAAKgAgAEAAAAAQAAAdCgAwAEAAAAAQAAAC8AAAAAPHRkYgAAOaNJREFUeAHt3fmvHFV2B/DCYGywjQ0Yr9jYYGAyyWQyQ5JJNJNNiaLkx/wJ+QOjSNHkh0iR8kOkKMkITTILQ8CGh8EbNptt8MaS86n3vua66O7X3X5+4Jk68n1VdZezfM+599Strm4/8EVRN9KIwIjAiMCIwIjAiMBCCGxZqPfYeURgRGBEYERgRGBEoEdgTKBjIIwIjAiMCIwIjAgsgcCYQJcAbRwyIjAiMCIwIjAiMCbQMQZGBEYERgRGBEYElkBgTKBLgDYOGREYERgRGBEYERgT6BgDIwIjAiMCIwIjAksgMCbQJUAbh4wIjAiMCIwIjAiMCXSMgRGBEYERgRGBEYElEHhoiTG3h3z22Wfdp59+2l8/8MAD3YMPPtiXW7dudcqWLVtu1zlfhvzOw82bN7sbN250Dz30ULd169b+SJ62tl3btm3bernaQ8Zev379jvGz9KE7u1qbZvWPHHq2cuAxz7iM/7qOn3/+eceXoa9b7+Aff0cv+GqLftpbfNkhHvitrc/4HMVD4gkvfBxDfKj94Ycf7uMJvzae0i/H4Be9Uj/tGPsSv+KWrPuR/AzLlVtd93EtA85Nu8e2dt2OKouSX3TBw3EjyUrQrwb1pz+uMYc/3/GH+J/XD8ZYHzJu+/btS/kvcUM2XcSs0saR+shxjuipbAThaV5lHSdfLLbzYSPkTOMRLOnRzkP19HIMHtpnzcNpMtr68CVvI+y8qwTKsR9//HGvH+OSvBj+4Ycf9k5+5JFH+noOX9T4BMwnn3zSXbp0qcPriSeeuC1PO8dfvny5++CDD7odO3Z0e/fu7YFpZRl/8eLFfvzu3bt7fYDX9mlBpj+ebMrkmNU/Y8l5//33e/6PPfbY0naH32YdsxgILsRWvvw6iE/hf/Xq1W7nzp13LBTXrl3rPvroo94n/ELHVs/c0PHbrAR65cqVPl7wEFPixjGknR/37NnTF/xmLSjBb54FmH0StHlDX5iLSZjfj/RprekXrnXd2Std5/zBylDP7l4ygdb4z9bKaiTePSIS5pb6ozxYvJv76j5pWcPMdT7h7/XWKf4zRn+x6EbrqaeeWnfc0JLwEet4iSExkPUm8Ss+tFtbyLVmPf7443fMiyHvRa7JNdfwR+y3dj366KOLsFmqLwzMAbLpYb5nnrk2D+GbeRr9lhJWg8iLveSad5G3LM+7SqAWNImJYhYZwFNKQJ47d653wpNPPtkvZtqnJaxZygsgQJ4/f77nnYUui4+gEsjayQeIPoLROZn00W6CcIYgmUTsUPQ/e/Zsr79gRe0CJ6AVvHPHpl0gGkcOe/FCcGKDhTpBYpzJI0AUdiSB9YPu4o/gV9Zb+CNCALvhoQNc2awYn4mcvosc2QxLPJVpBBNxg2D23nvvde+++26/MPGhQhd+PnPmTI8vjOGfBGqcdjdSSYqZeHDVHr+JWYU/FPW7du3q44IcWJDDdnoZT4chsQlm9CVb/ClJ7HDle+Nb38JEAjWZ8dBHaYltdMtC5nqz6WZlsU/LbTy3FspfUeFG9Xnzw6775fvVt84fkqjqYdOeGfdfkmxB2/fduvZgSuK8UGv4+bofP1fl3Tvh+IrceSseKv4HKxcc2tl1++q4d/vqSPEQ/7lZ4nOUm6BJ/tZuHL/xF7/zo3gTJ9om+YnvjdFXTLgm2/wXP+LPWDGYNVQcRo5YpZ9x9Ire9CFP35Sh3sZYX/Bim3Yl81q7dSv2i13zJnFHL32MJ9e1tW64hrIDn/bGkH5DoicbYYYX2811WOzbt6/Xi3748Que5rq+0T03HWQ5n0RwoWP8GVn8Zl3Srs4cw4NtLRkHg6wvbVt7flcJlCLvvPNODy5Q9+/f3wu0iJ0+fboPKs6IU1rB85wzkGFAlJCd24GqB4DrAH3hwoU+ONULRMYHPMFhvHESuoCYRJFH/5WVld5xAo3TAY03og95HMo+k4cs9RIoh5Cf/pL3W2+91R04cKA7fvx4PwZfk0mQWHyVoRMn6ThPHTl8QWf6RY9pYy3o/EgfAX306NE+wI1tbxymjZ9W76nBG2+8MTFBtGOeffbZ7rnnnuv15APYvv76631cscFkgxe/wBG+fBLdjFHIO3nyZO8PPoGBsW2cwNuEtShJ3IoJzXfixrWFUQLNotjq2p5bmEzit99+uy8HDx7sDh061N980I1P2SJGFURPOCv0cq0fuS2x9/Dhw7djpW3bjPNSq7tWj2U9nu2T6Oq94FdEX6v2Vyt5vnyu6yRcCXF3Jc9DO77Sta8wgyS1h+t+ZFfdxyaBGvv6B133kwtd959nuu6VdyePX7R2e61wv3+o6/7wcJX9XybQ8JEY+Nv6YA6LF75wnET8xZf8J974zg5U/aR5pj6J0NpgLRC/5hn/JzGRLYGoEzvmnj74i0XjxIT6xB39rEHWGsVccd0Sfua3xJE++OOFtIthGCB9smlwTf/oq5+1Uzt9W9LHPIAjWYn3to9zOprr1ii85RDj8KZTbMfD3DFfySSPbvAyBvbWrCT+oRzrg/mcQpYxxtI1a0owJq8lMWA+02eSX9N3qQQKnBjCgCSS1HEYRSkNBEoyPk6L8PZISUpbzNogiAMZmKATvK4FEjCAzAH6GmsxFGhkKrnjz8IFXDYAh2OMoZs6fOluDMfpa5xAdiNgDP5k6x8H0p0u+mqDBZ0U+uGZx8/Bgb76GWfMtMTe4jQ8Dz54hARpJnXqZh3ZBCe2K/QVYPTNE4RZ46e1wRVm0Y3/FPrBCyaKhQMOsA42JjYsJU3YGBM8teGrf0j8kMcWNpCjXb8Qn0qe/MZe7VlgyHKOnOPBz/yOr75tvCRm6KvNtf4WO3xc48Eu8hxR/JUY4XM6pr3vVH/wTTwYM2sSZ8xGHm9Vwny9NmW/quR49UaVVfW/IuJmQfazSnavX1p9/Gp3KSm+d/0rXfsKy/Zj5ZInayf423u77sU9q/2+qARqN3ttbSMgwU4iO9WPivcna+Hu0eyu4rVryhPwrcXHmOtuBIo/yrwTI2KKnxS+lkjgrg/iF238hbQZo68ifsUUH/JR/MT/1jJxi+J3MvFyVMSKfoo5kVjA2zy06Ftj9BVn4kKcGUc38pLwrHlD0sccwsN81h+PNgGKz8xR9Ym76E1fc4c+2siRmFrC1/ygv/70ozO72QUPPMiBJz70MC7YaLfumJvGwhmv8E5/10gbLPBW4IOX+asvPuTQO3LppZ5f9FcPG3zojze+5MMVPxSZ/UXz58sVqKlc7xTgHMxgYLhT5xwKqIuDBZcFRRKl7DQlyNP29NNPdy+88EIPhrooPzwHLJ7kAIuxAiWLIDAByMm2//QAZADXVx/tAlfQKNrZFQfHPror+uLHTuPJN+EETe6o6BoiV6EvffAw1jlyNJYz6dTaGx6zjmwyhj8SrHAUJI6z8G75ssmkoA9d6WwnZ2eobRFeLV/Jl70wFaQWAwVWx44d606dOtVjmDF8kMkpeNmXR618wy90MQF81g1PFDvFIBvEnLtTPkp/E5M/+Yte7i5hDjv20s9YPNUZlzgjI/Ei1unoOr6000VsczeNtOPPt/rjifiLf1yT5zw29x3W/mgTG/SIfW37vT6/VYns5doN/vPJerR6tes+uPMG/bb4z2t9kczsVvu3f2pte7cewf7H6dtd7jiRYPfV2nu8EqckmQRa5nY7a1NzsPLN9totfruS6yS6UXr94mLXrdRuFUmQv/VU1z2/+knLamXz1+NkO+Ina0P5SPGHv7jim8S6a3ibz5Jh2h0tsHZ/khBKG/9Zb/ARb9rxCPHdiRMnet/yn9hWJw7FjXO+FydHjhzpn/qIFdeJO3wt/nQ2LuuUcWJZP/og/IZJTT398GAD0k+8zUtkWVvMEdjgZ+4NCV/z2tykG5nmg/55omW+wwzBxBi2mVNwJseYrIcwNh8lYH3gZpx2fdU7qoePevrCzdE812dlZaXXyfqtzuYiWFmbEgfWnOBPNp3oN2v+LZxAMSTQwuZIINAoxxjAWew4KQviJAXUUTBKAtU4/BkPeAGtcIhAsYDmUQPwXRtPBwu9AMY3BU/txtIlunOiOnIAb7w29exih/okPHxQAphtCvmIrsY44hMbOEEf/DmHg6OjcRyfOufzEr6woq9CHl3pzBewgA+5k7AfytGXfBMDXz7MXasAoyPe81KwpacC51kEOz6GVfya+AiGuRFhEx1NNDHH7vjbZHGND1zorA0+dAov5/jQyzm/GUMG/6iHozZ6uVbwggV+SF+4mdzakH7k4q8gutAZRRfHtpAVStwZH75p26yjXLC7QvJgPVmWpCQfycsj2yu1A7y6tgNcg6Lfda6i0nWS7+UyRxtYdlUCs0PcXjwerfJUJcl9VXY0q48xpy933c8rOXqDVz+IrsHam+3ajtNjWTpJ2Nvq6Fp/8qODAeR/VnqcrRuAd2vdPlyJ+1uVuPkoczbzk1/5QAzAXbv5rq8YMB/0Me/jw/hGHBgjvoyz5ogLR21Iu/HWAfXkWtvEhXhJLBsvXtzQOTcOLyVxZd013lg6ZO7rOyS6Rp4jnm2sDftPuo5NZDpXQsGC7Qq8lFAwyjXZsQ++xtALn8wT9uGhHrm2DsEI/ux1hAkejtYNdfjBgVxzWAmv4OyaLHycR2/+wc/6p24enJoQjonTjwGL493RWPgsWhZsR0rlEYhAUSfTMybKOFcYmcCkLN4x3DXQ7DJ9bsAghgpun6264/dZE+A4FXBJoOQkoI3h7ARYnKHOOGBJGsAnH3924UF/C6NjJkGchJ/CwfSkdwKaDPwFd3ThGPop+obwwwdOwSdts45wM8HoK7Doh0dwEWhkRu9ZvLTxB3J3BktYSFD484E7NvXp13ee8Yf9fMhviRN4ZGLQ310i/mSp99lJ9FUvtrQpsMkRXhYz2D/zzDP9BFFHN/50bnfJfufqWsIHbzLoiI+iPgsaPRJPYlp/fdVNIrLEomIX7Jo/wh9f8kLhBye2iZ20s8N4seF8XszDe6OOD9e6/4ODXXfksdXdpcSZt21fqce1b9Sj3bwx2ye6Emw3qkhuBX33Ra2jW+r8xXpx/oUnV5PxgXqR59Fq21kJ9enmY1+Pbn9Sm6Qfv1oyC+bDJTdvz7KJDLtXb/q+X/ett2oNr9PObYcdrzb6kB9yfr36vVWbR4+avR38o7IJwT3+gTXiB74xp7RZu8SQ2DBvrRWKfnyKh2N2NeJYMR7xnVjSz7mYcBRTCG/zwjrlmGI8PhZ/c9kYsRV9PF0xh8R2Yo5ew1jvhdzjP7CBFRzsUM15GMJI0a6Obq7FfIuPa7GvDcHKGJg4wsjaABvz3cc9fIGfY9bTrDnGBW99+FYffOCnTk6hox0zbMnRz9y1zlmzrAnz0EIJlFDGAgQIgkOScUzwMNQCwFDOFzTGcThF9XUnoB6pV8cw9QxCDGaUIOIc9YBgoP4AYyTAMhG0BxAgaqePczqFZ0COg7RHf8GND9nhpR+KDunP6fhb0PGU1BzZ60Yi58aSzZbwUseO2O56GuHDXvJgwQfwV88ufAWHRKckuKbxm1TPNjoGJ7zJEUwmqRsJ7fqtR/qEH5/iBSfj8eJD9eEHA/Vwd66eTXA0jm/4hQ55TJsx5MCUT8hR2C++9FFgpz798M0dvvrEUWKFHIuifgp99KMfPcWbkvbgQQf6RC5+4pvumZB0oI+if/ROO17Bgb8V8tm0WXSrspKEk7dwvUj0Qe0636s1zrnPME/UUzzf97SrvFAJ7FLlBONEx9FKVN56NeZq9bc7vFwbcLtFSfHxGv9QnUtudrVeKpL88D9f9xl7a3eq7uMaK3EjYfdIrVYeyUqWj1YCliBdO+qL1421zRE5O8mpdrJ9bnq51sSq7n0ETzGWuOArsS7WErv8GOITc0yiSh/roD5iLTeZ4kMdvuIciRV+NGcVcWMekykO8OHjxI1jFnPn5mGSLt2MV++GzvrrSJa2aZS4y1pJNooO4hBlPqRdXCbe8RgSmUrmBj30px8sUOa6PvqmzTWema/sghN81cMg85iv9DO2lYk/DPXXlrmlL/7qUCsTf/jDzjpvLJ7G0Jkv2vnYM5jyZ6EEypHufvL5o4ACGGHuErKoq/cGoSNl9DeWc1wbAxhGIEoDS3+GxnB3CJKwOkmKwe5COAhPu6TwwB8YShYmYOpLVsDSjr8+HBuHW+g4zxgkgFLXV9Sf7Eb1I8/jXgWxiyw2ZhzHKK5NEnLtEh0XIXzJhLGdm3OYmzh24o50YxssBcMyBJNMmNghqGFHByTI1qP4TxIS+PyE+FGxCPncx6LAJn3UOSr0gBvMFBjzh3h48cUXb9vHd3DXn9/0oa+x6jJZg0fqTSD9kDq26g8/fdlLPzEn0bJZcXMhZrIQ0ot+IfrQH09+MF6cwg5/FB0cFaQt7a6TcPEg17yYB3dj75ZoJLF9WO7+Vb2Y+b/1gtCpD1cfr16rBORFnBfrM0efUf5OlaOVKP/1dNf919nV5CVh/fHhrvuTKl5A+lW53mPZ/z6zmsw8Cn62Pq98vnalf3CgknCtsepCvgbzZO1Sn6kdKLkSM5I0PaqVhHfXpwl2uT18VW83K2HeLL0lUqTf45W/fJ3mZNkhgfZU/hUzYlTMmTtiB+Z86ZyftfGP+SAm9Od765F68ZM45/esU/zkWp/Esr7iaGVlpU/SfC3mEhfmgFjBX+x5F0RCxoNednb6uEbmEN7mg/mfJNM3TvljLNvogiceyFpi3mR+s1dd1lX1xkTXIXvYZG7Ag15ZE8mAtTVPLMMXf1ipY696upGh3cYjdlrr2YfwNj/xzHxWD0t2GQNTxfWs+dKOweNuaK4ECjyGczJnSggUZQiDGKcPAy3kgiCLTQw23hjEWAZyvP4CztF1gjJ89QO0a85wrg8ncxae+KnjDAWACQpHdZGdyZC+xhnvmmMFJV3xSCCRy7bI0pZFjj30j16uQ/gEOwFJl2UIH+NNQkFGFxjn0ZEFVmkDaxk5gpiP40v2slXCIRc+sFhPDl/BNP0ELJ5IG9KuIDz5EobBmVx98QgfvtI39a616Qtbk4+eITGo6G+c+LIw8R3f8jnf4aOINUeUnQLd1eFDN3xQsEms5JpN6hwzUemYCR2b8dTumg5p75mv/QlP/TabfHXlndoN/rISoB2czygfKNd5/OrzTLtI5w9XsdOTrOxYJUD1/S6xjurtWPXxeaQEfLGSojd1PdqV+Opft62uPeZ96Ugl5krQRyuB+txSG3LU14tH24rHF5V0A4s6xW40/fV9omQfq93w71Wi3l+J/kgVlJjiT7i7GRY/fMG/6vgkfowvxYy+iR/+0Zb5iQdfJabEF1mJLXMUj4yPLuJem6N5IF7NRcVaS6Zx0Q1f8Wg+GjcpdnpDmz/0Mo/dzOJFR0Rn6wpZiE1u+vTJdXZs+pI9JPpm3gQr8oKzumClDu5sVdikzfqQeY1/i5vzyHDekno8FDbhleTf9st59HPcCKoQX5+AC2QLlKMAQIxRKA8UxiCOBeh6SurnDS0BICDwGQLUM1z7E+MBZSE0nm4JUPIVzgdidqgCXBBEX3yMib74xQZJSQB5nBM+Ft7oZ0z4CCZtHle7a8SjJYEPL0kJdstSJih9BJok77tUZCcIZ+E2r1yYZccEW7JMGhi7cSLDhJ2H9KWvhAYDvE0q2PMFfo4ovhD8xpDnKInpk4XJORz1hzX7xU7867ONlZWVnqc/dhEKW3LDwdeeoujLFjduMORfiTgT8LXXXutlkGOMQha7HF0bn4WJbmzDw1Gc6GdBHFJw0A/pm1hMX3KywA/b0udeHT1eLYi7S7WGvlW7QMnn25XUtlV4P1L1e1bX3u6deoDkxw+8hbu3zPQo1fL2fq3FL9fO1U62zOhOVKL0MpJrfd+rhPxBlXJ3v/vsk24lxL+o5HmkwstXXNTZgdpJIgnZuZ3nluITIs+ud3vV02/bWpvHxhKot3Ofqh2rz06/Uwla/5b4S3ya7+I9mOvDP+IhN2i5OROfiUvt5rc40Z/fxBK/i1PXzrNWmLtizzwT32LB0w4lPCTN3Aw6NxfwsVsWc/iKWTzVz0OxE7823ujMbnYg/MxVMpB2OqZMSqD6GQ8TWCqZD8axE1/z1JF8R3JhGTxzc6Jeu2trOF34JbaTF9IGX5jnaYJx7N0MunPFnyIRCDHKwpHrTGzGWcwYnaDzqDELlP4t4cWRQOcs/QSPBWdI+ClI4hZ4+nNkHEAPgJGPLLiu6SUhksN5HEWOfmQlSIzHzzX7whcfwaANHw7iKAEdwst4fJWW8NMWvdq2Rc6DtyMs2OWRt2NsWITfsG8wFvQmLnslHnjBQLtA5mM6zCsT5vyciQELY+HnHM5sgJtr/RUTTsmduv58yBeSnzH8B9dMKjz4RkJkh7F0N1YbueGXyYUnHbQp7OZ/MakvnRSycqMCO/3IIl9/mCXGHdUbY2JL3ngp0yhjtRuLP3kK/sO4msZnI+rNoH73WOunr5p8r3ZvByr5SUZ9wqx7Hp9VSlrI1Lxea6/dp3Pj/ZKQl5Bcm7mSnse0kuP+SrQ+M/XSUP+Gbw0ok/sd6XO1W5Q80Sf1wOLp6u+FIUSnx6pNAvedUTvi7bUZstuV0H0muqPKldrpIgn0cOntpSU/6kAfu+aQmOb7xDwfigv+VscPSB9xok1MOiqpTzwnBlwnLhILiS8xgb9HnHhqpwd+rvlbXwmZDura2BMH+otrYxNXmUPkRn70N8a65cU6Y5SWyDBHzDtEvyT8tp96PM03MTmk6AMj8wdPuiDX0Se6qtdHMSY3CmxiH7Lm0MsYa0/mZ984+AMXOrBnM+nOFX+KZMYDEHjOGWsx41zXALVwIYtudgKec2tjGANDQAOOhRUfzuVk/FpqxzgnV+CSJaEBHh9tWWScR1+7Ds/RBeS5+gxBPRkcoX+CLTLZqI2ddKenYOc8O0xH4+iNF7vaSRgdwk/gKAmI1C97jF3kKPTdCGKHSWzSusvmDzt8tsHA4qBeUhWgmUzryWY3n8EA70wAPPHhK5gmSeijv92AGyV9Minox494meAWG0d39CYYX8KE3tlhZqLjS6ZYU7IAqceXPQq7FXoq2sWzOCIv8ZlFQBLNhE3ypy9d9BFHyKIgVucheuQFEvbBh983kzxe9RWWvz5av+JTO8+bNXU/qjXtF5e67t9XVhNeq5Gd55eze03TqvBiULm4e6R4eTHoxLe77i+Lpxd9jJGUPWpFjj6v3FkrkmR8pZaCE5XAE+Ii3WegqP86TfE4UDz3V5FAfQ76ceWA/BCD3arHwE8UT+ce8bIrJPb4RTyIb+sIvPnNtcJ/4oCPFfNeHIX4RYyJIXErBtSJQ/Xxv/7kKeJDXIkH45CnMeqtVdZB58g5PuJMTJkX1iMxSU5int76iU9jHRMzzn2OKIbJHxJe1kY4IPabA1nP2/6xjV5DIhc2uVl2Djtj4Bxd6ameLvpYV9hFfjvftVsD1Jt71ns2KC2Raz63Y/nBPNoMmiuBcgInCYxMaAtZnERZwFtwKQ8w7QFav/SNUa71BxCexgEWL/UKHoo+gAoP4Crq9CMbD9f4AFNw4mdBdZ5HNHGmoGQPwguRZSLoowgubXjSgaMEggkQ+XgLBOOGTjNeoWNk9ILu4k+wzPEuWN0eyi620xWG8OQ7OGpLIoEJO2EnqNcjcWMRManwMnlMBPVwDJmsWXTgSTY96AN7+MKPj+3oMgmjA9z5Gg+60dECGBnsMYYdKPXqtAVL/MiIz/iN7gjv+NdRYQe98NBOd3qnXZ0+iWVzSJlG7CQbH3zpFV2njbkX9XKaZONHDSQp3/n0y0JeHLq0CuFtsVmSJUtvuV6ufu/XZtux1O93qk9VcvNmru9h+l3aIeHhDV6/g+uxsQQqyX5YSbvg7EkfidNnsx4R28WGtNHZuPS/VRUeL0vUdp92rpKtHe4XtYW9WXFt8ZY8JDNxHv/yIexbH/Bj62eyxan41l+cijn+Q1nL+ov6g5f5Q5Y+xqhD4kMbfRI/ePM9ncI/6yFdkaSvjV5ily7i1xwgn07pqz3694PX/oi59sZAP7Ktmy2Rg1d0gQ9MFOQaf/Gdm0X6SHixQz9zjn7Bk77mvz74K8HQWO344hVZ+ISsK+xEmX+uyWkJ1nA2J+PXtn3Z87kSKGcwJg5noMAbknqLFwOMURidwEx/9QDRN4AZCyhtxktY7kBydwQcYObVZv3iMDsjnyFkobJTUfSx4JJDD7IEoSBJQNGNXRzh7s5vt9KFPAuugDExHPFTMrnUJcngq74ldij0+iYTO01G+Ag8kwBuwcUdMtIPRur1G9o7tJGP3c2aoHxpYvp1I75oJwNersWYMfwJMwuKAn/6ebM7v1TFb/yPooc6pZ2w2sm1U9WPX9nJL+RpU2+cRcM1wsOiRrY2Ey9y+g7r/Al2meAWKrzZhoa89IctjBM34uvrJhHtcajHsH93ouv+7PCdGkkBiuT2Sr2/5a1bv4vrp/18xcVj1x8erXFHKgHXZ6GTSJL7pBLmz9/ruv+pUMOP6RKiR7XI1KILOSdLju92+srLSt3HPbOWnAvCPmGm/5nLqzcCXn7yK0c/PFSxsK3mesUWnMWkX47KDZp5z18WeEVcmu+O6nPzZj0RR55KicmsO/wmtjJ/Ep/00d+aJo71F+98rogtMSbW6GXHKBbNG7KMU6wxdE1c4CVZiSXrmRhX8BO/xhtDtmt2DG/gyGejdmSs62E/tuFFP33ZJvFlHhtnbSbL2qu/d0PYgh/7kLF01T886Myudq6z6fnnn+/tMUah/5BgAXNyHV3Dd9g36zS+zpFz5W5orgRK+QBAIEAmCaY4hwIvScq4YV+gC1AA4s14zsFXGwPV4aPEYKBwkn7G4QswgS9YjLHo0UNg6KMvOfRRD2TjBIj6Vjdj8FDIxFudYmx0jezwT2J33ZKgoI+gY983jdjFRrpZvNmduz5+CL7sUw8Tiw5MJQOToMVvaB/+xgRD2FsI8G6xSqw48jG+zvkVfq7FkTZ6hNTRnw4p2qJTjok3fOiCEs9sTp16trnOTZQ6MZj4dL0I0S8xJYaUyG75tP1azNo+m30OKXBZYuzivMWaN1mji53npdp0+bUf39m0O/TLQ8/XfUL/5ms9RvV1le/Wtd2fZIn6ZWtt7XKbIFmeKR5+pAHpJnnerJIxHuGWq/vf5lXXv6RU8i7UtLv93dVKxGsi+u+NSvzII2lv/X5eBt24sfpUQzzyBxKP4kRBWXsSV2JPAjUXzOusI8YlhhK31hbrmzaxxLfiSWKRJPhfHFsrycfXuiZZ4m2OqE8CNRYPsvVN/NBRW2LVzVn01d+6QyYd2GVsO+/YmbmVuYK3umE/7eTQUR/zMzca+CAyldhMPlsiQx982/kezNXjz2b9kX50DumDd3RVTxfruMJH5McfMISROuewII8chJ/xLb++YYE/cyVQ/OYRIqgATGHOBgAFh6SOsdoZrr9xrjmFrPSxIwEI3llAAZzgt8Am6MjRFwEnBDT6AE5//AU5frGLPLpIDPoFeLzVu9uyuCraOIQedHandfz48duTL3IzYezgyP2mUQJL0EqgJjVbYA6X+AF2PhM24T0Kz84SZi3OQ/tgZ8FwRGTgMRzjsa7JbxHJDi268adzE0diSfDjx694KfGj+mnEb2yNbSZ44ghvvidHLLJTO3Kku3ih67JEdzGBhvqSK0Zi67IyNnJcqdR/jjmLpwR3qj7e/emFrvu30/U56fn6bdp99T3QI/XWaz0FtOv0vc3da7tYCbenSoT5/znJ8fUWyffc6hPzXq7HwD7XlBzRE8XHD8fbUe6pc5+bKr77+UntNi9XmF2p/pJrhW//FZrda5uWa9Xfjzp8Xo18LibFr3WAX+AuzvlYjIhTdeY331gDLOb6eMeDr/SxXjk3Rn/XWdf42FjyxBDfK2LcXBOP2sW9naw4tqv0Aqa2tONJtn7GWXeMk5zML+uLvnTU17ygCxvpJbbZlbVxFc3F/oZf5i+e1sCQazeZdKILm/ObAXAOWT/Zn/luLUH6G4cPWQj/zHfYqGd7yy9rOz/Cxhi8jFP0TZ05nWv9nRs/nIu98Dn/zJ1AZ/FjGCU5DIgCCDCUnKQcxRUOF5CIo40RGIwyFpgAc8ydjzEI3yyenIKPsXGCMSH86CSIAprzLLzG4YeHRGFCsIVNAoYuHJ4xbDQRjBOU+upH15b0wwsffb8pRBdFsCtsYQMbJQj2hoKLxyywNVnZ6ijhCNqhj8VDfCbxwCB9tPEHnyXQHcn3CEtffejH5zBU4Gyx8N+ZhcSLhYVf+Hca4Y9XEia9FTrim9jVrh/7FPHhhoLuZMPGGDEUe4Yy6Q0n9gwXLPwyYfFoic2Jx2m82/738rxM6P9nlJ9e7Lr/q8els0hyO1n3BKeqvFqPX/3wvJd6fP/Tm7r9DxtUMqt/d5AXe3ytxK4Q+RrK8dpsfP/g6rXvjHrb13dGT9f7LX5QQQK1k9xbT9kfX3O3xNv3q3ud9+rcLnhfLSneHLYDfmotlD3C9Ubulsq4D9Y8FTMSEj/k0am4l4DUiU9+4G/z2rUY066fdUisWpQt1GKM/8SkfvEvv4oFMYxX1iJ88CVD/zahmjP4kUOufvS1Pol312LM3BVjeCpZc+lBFtn6ORqjblkS12Qp+DmqU1zDIGsJmezXhsh2rY82R/PMvDOv9FMvByjakadd+iA82AeDdq7Dj+3wgRc+7KeT+Yz00Q5LpE0fhV7a6RD7FsHpzhW/Z7/4H4IFUwoDc7dGyWnEcP0YKsAcGcdQ4/Cx0AnASZ+5AhVoFn7fJ6UHB3CKEtJPwCbJuSbbEQFQ0cfEiD50Uk+GBEIfgJs0eHFWFnfX+rbE+fo4suubQnSBlbtdn/myVwAJMkkC/q0tghYuJgjM2Jz/dcTEHxLebDZJJFrX/Alfk4BP7ejJVxLYzvEWwMY7tkUMWOxC7tp9DoVfO6nSniP7LErxFdk+XxGvYgsldunLTmN8fsvv/K3eeHqxRfxMIwuAeBhSYhW24qil2EyPFvu2T3vOX/P0a8fMe+4ZjheCfnyq6/7hldmjSo3+c0mPU6/Vuy3+2zO//OPzRz+yIFFOIj+u8PffXf19Wt879X+D/vnT9aMHtXtFpotHwyvF5x9fqxvsdyqBVgJ8rhLuH1WS/e5aPwnT/yHqc1f/Y4wd60vV/lfHVl9a8rUZtLWmprd+t1YC3fFofYeyhCYWYc9nfCrW1ZsjfMgfYl6MKlmTxIckZ70xx5F4MX/Mo1B4izNzSOyZB3glBvhRm889xUi79pFnHpGhX5INvcwXca2PeUhv4/EldzOIPuYE+6y55ifsYEkferGZTfTVD57s0d+19UGhcwrdV1ZW+l2sc3aZ7zY4WbfVt5SxdHLOR4gu1gi5BoYSM4xS9KFzErex+qVon0YbkkAJtovJ5BccwBNICZJJCgia3HkJEmBGeUYDPcHLmCEFKPIFMifQgUO1hfDEO/X6xZHkhLdzJQmGbG2OgpQ9+NIrFJAdh7amTV/nXzfRXZEgLA6SgiM/SBQCfZLP2K/wlUku+E0GQZ1JC59Q6wd1xooJ/S0e5JgI+klK2tMPH/7iB/7K4pRJiUcIT75o/cE+ffHAn0/4On4jGw9j9DHJ9IeBOLIgqWerGzO46GNhwIM++k4i4yyqFgayg41xiD1k0GkYD9E3fafxx8NcoRNfKYnNSWOWrROuPvfMV0em8WGZYie4tdzIO14cyo8tTBvnBaP+88mSYWZ461eyS8LzGPZQJce9FVZ+Eclbub4L6jum52s3erAKuX6Y4Vztev0wg13n0dqd/uBwff3mQO0+6fEVV9U7HBVbD5YPkDgQazlPnPIPjONvPtdPrFqIxZSFOOuONmPFTRsf+GjjI2PFmvPEpnZFTPAlfcgUo3i5Ttzwu/VNjIgj59olB3Eq3lxvJmVO0Idt7Mh8N9fdkNjpw0Afca5dP3UIFkrme+YAHIMlbPQ3ru1rviFj4aGNHARX461ZCDbZ2bsOPzxhbt7qT37WlvhH/0m0IQlUMAkkBlAAcALAOQWmkXbBaEHHg+GAiCOmjUs9o8lUGM9wDiKzDSS8tedu0bVg5Ehllo6R5Yg33RyRsWwQ6B71cURL9JIgFPK+bqK7AJP8VuruLjuqfIZrIrJhiEeu2em7anafuftlvwAV4OmXYMbLpFbPHxYOgekoRhwFMRyRiSZu6MmXMOMzR4Ucb1uHslsgGxmTGMjESl/15Ik3OrtxsADmblSbMWKDzuTARcKFi0JXtjkOCX9tFl1FIs5bmuxB6uE2iYzXzj/p3/bTLt718Rjb50t2O5J88G/73825Jdgj1ZcqCUlks8gv/LxdoX2mktzZOvrZv+/UuO/vnzWqXhApCL9Vj3D94pDEOCSfbXrseri+euIXivx/nv/yZu00z6z+ru1r9YAJrL73+UY9Pv6odp9/eqze9j1afOsr6f6nF7wnkXhMzA3nvzbxpJ4fzGHxoE4MqxdD/OSmKnEmJsSVuA5vso0Rp9rb9WPSekC2fnxKtrHkmEdiK+tkbNKfLna+dmeZB2nfjCM9YSA2zW1Y0TfzHCbJBfQTv7Ezcyqx3c51urNJjCOYxg/684t8oeCpDsGYLuSSZ/7CH8kB+muDrRIyxlpAb0RnMuk6izYkgQJMIZQCgKGkOsQ4QMfIKBTABV0CFACKsRk3aSweASF89ANEFiGOtVAmuQODLP3svsjIIt4CpV3ARq5F1YKI8OQwbcYLeI4V9O3E0Zds/Yxp+WtbhILDEL95eRinmLSeFOQxJdwkCbvBPHqapSfstLOfbbD2QgUb+UI7POGQ4FUv2GEYLCRui0ESOJ7GiJ/cLeobPMnRF870DdFfSb/csLCT/9gcP+LnBiATXBv/GW+CKSYXX0nkiv7862iRsliRZVxLmbT0JA9P8a8v24KperjkuuVBn/XihA34wz+fwRuXBaLldzfnpXL/6PX52s1JpLPI27M/q12e5cvnnXaifij+T+px7CzKW72SHHktedFIYvZYOD8ObycsmV+tBP1mJc+Ltess0/t+HuP6vNWO1qNgyddYMkqdPpGqi5gW/9Y/dEjMWEP4k2/5TGyry404/PlLLISHGDW3Ek+JTTGUxRo//ptE0StHcwZPRWxbx9SJLXNFPIpTc5fMjBvyJlNsm7N0aiky2ILYY25mTqWvfvQWf+wJZQ7BxxqIv76wUpzTm3znxsMCf3ORDeIa1uqjK/6SX+a7tuge/vqEF9v5LnLVwwgu/Mc++ivwoy9+5IWPOjppl8Ncr0cbkkApQtEEkwXHeYhhQFKchzhCPyAaY/FF6aM/A3OdcTlyAiOB7PuFQBIkgtydPqAlPnUcBxh6AtnnaeRzOrCVEJlZDNVZkP0/pPgLhgQw3enAUQK5DSzj8BH8LW/1ixL78YLHMmQcm2Hx5ptv9jqxT7I6Xm8Pwx+Orc8myWE3e2FmvDtwOOKveIwkWHNTAheTWx+J1hgLAVv4Jkk0QZ44imyTTn8y6UY+XUPqTJwsHBY1bzA68reircUtMafeJCHT0WRNAoUFnfgN9trYpW8wiA6O5LCHfXCGax6pRXfyTE531c6VloIhe6f5QR/YJRb0xYesjSSa+czQV1b2ffnEfKKIa5WovPl6vhLa2VpXr9Y08hN8L62zAyUjX0tpkbA6SMr49i8H1c7yrdrZ+s+2b1Wd37v9sOp8BxTlJ/68tCRpvr1WL9lKpv1/5F1j3Ajg3crqGQz+8Lc5y6figS+yEFt8rQU+E7fG8LWYiD/Va3dDak0SN3wuBrKG6TvNv1TRL4s9XlnP6KTeeLFpDvK7o9iMDgNz+tg3TnzST8y0JGbbnW3WRra2pJ95hU+rv3P6mBdstT6a79YGfckWr/qxxXXmhHXCWARrxfisl9rb+a6eX8wDeuLDNwoMXONhDYCHeUwnMmEpJ8DRHMwmL3iQ5T2afG+VX5X1aEMSaMDL4iQIBBhDGeyujOJZfBiaQHIEEsUBQekEEaM5LbwASAa+iFPwUhfwgBVwyc5nV4IZoIDDT4AA2xGfBCG+xuNDDpl0xCvB4qhO0R4d6IEEgWAhu03e+q1HbDdGUJNPBgzwohN8yFyEYk8WAHqa5O3Ocx6e7Fbc7NBTSeLgY0EIZ/zpyV64whslHpJIHU0ufBDexrAZ4UMv9ch5MO4r1v6Er3jxGCb2xUfaFfbDAj9t5PMr+Y4pJhX8o5exzk3GTOgWL7xcaxfDwTZ2RFdtbrSiF9vpQy84kk+WdjbE7oyHTTA2xvihjPS92yMX+AGFYf6UmC7WR0ySW/+LQLUe++/KJDmfU/o92t21I21/d3aWLjwvYfrt21frUexKvXvlsaxdpf971K8g2YVeqQ2S5Pls7W6Fi3He1HVu56nN/z/68oWu83jX41/6+z9Etbn2H2r7eb9dda1tEsFUXJhr8Ic334sJC7BYds4X7U1/4stYffjVuMRs4tb10K/0MB5ffhV71oAkFXFhPlm/HMWQeebmVMytFwOJMzE2pLQlnvFig7nUUtYQ/eka0j82sZHNsHEMBq71ganx2oyDQ3BRr0944e887ZGHlzwCCzeq5iMfwQVPeluLMpfiN+snfcxBYzKPw5csyRyuZEzyUfq2xwqluyfKS0yMZYRAs+OQSHJXIYFSjvHpR7L+CcQABmiGu5PxeQ9QOM04CzIgjAuRASCBS642cjhFnYDzmRY5QNKeBEUO/fUPT7IEEUdrI5OTjBew7CJvEhlrp3fy5Mn+piH88WhlTBpLnuJO8dVXX71tp2CACR0EDj7zOpgcOMAID7zcHfsskz34LcILv9xxOhdssGAzfmSg6AjTSfzVB+9+wF38CT7ihL/tqo8dO9brRj9JlX5uRMQhCtaO4k7hu1y3uqlz7Q5Vcc6+kLg0MWGpiHPzAeYWxJBYglF4a7eo0Ums52YLXnyNbygy6elmU7sYNhbfzaJblbDerCT3s0qav6wp8FoV3930831eHjpUu89pb95O0rGg7XeO52tt/6eT9TnnqdXr/AKR/6LMG7u+tuLrKR4P++UhPzF4fS3J+h9jTpcOvkLzaukl+fq/QctNt78rurt0+9sTXfc3x1f/r9FpCZSvzX2Fj2ErpsWQhVmM8aHF2zziZyQGzVtxlhtoPhN/WRsn2Z86a5p5hIf1UywYLwbElGSpkC3WrCd0SyyFz7SjNYAMZUj4DGNt2M9480OZRPQQt+JzqFOuc5w0ft46MuDBN+YZvchE/MRv+qg3t2CaHCJpBkfreNYqY+nGV3BYRM+lEijAOZLinJlAixMook1hjD7GUF4yc60+ZFzGqtNmrDqBgp86jyvIcq4eCIDCL32zuGsTBAAlk2zAGwd4jz+Mc01WS3TNHYo+Cn65cyEfXzJNHItZQHeM/uFNJ3gZr209ii30F7Dsx8t4k5EukbceL+1k4mmsxxfZecJyaPs8/IxR4EgP+in0U9/q5pwcbXwVf8UX2oKx83YsnWELPz6EwSSKDvqJEb52jJ4whAFeShYCi6UybVEYyiKfTvi2RK7FlE1K4gpfccJf9Hc0nr5KZLM7/oGTvniKw5air7gQd/TRh02bRW5bfW7Z/m8sfshd0vQGrATnBZ55qWDoH8M+XEf/o4pEl4f0HvHa0drNeonIo+Gnq/FoHSVQO16Pj/1m76FK6v63GI+S/WCCnask7HuqdqoSpl9IsiNtXy7iB/4yP+M7mIrTxIXYhj3fOM8iLP7VaeMPR+3GuznCj1/bOU+e+OE7MrU5V2+sc/qg+BYfsWP+RodhDA7xxk9ckEEH9oipZWNFzNFLPONBH/q2FBv0oyuZ6ugf28JHH3qF4ODtaPVsROwfEn6Z121bfGU8v8CRnnioQ256+A4OZBujHUZ0jR9avuud34nAer3X2ilmwWA05QDUBok6izSQBRJiNMUZR+m2/xrb2wfGAYrBgE/AGW+xMTaLEVn4aXMOfNfaBTSHGQMcvIzlXDIUbamPAuzBg3wgGxM9HPFWb9Lg75qOdEauvYGpDdGNk+gwy27jFU52xJ9jkWt64UNn1/MSW+jniDc9YDVLl3l404cuScziYpKN7HfDQmdFP2PtnuzQ6MYXdGqJvsYicjKx2j7OjeUXMvCGkSMij83G8kf8FmzhK05COdevJVjxK95khfBnPz3ZoZ8jcoSHhIgvHfQP0RvhSY/YgZ8SPulP59xV26lkFzTELf3vxdFnjn6cwA8geNnHj7Qjj1FfqLoX6g1YCW5egoak5usqPzq0etwh2UmclUz9cEL/n2jXfafvlW6vo88znXPbvhp3qELke/VumYTqt3IV/8WaN4I9Bnak6+/WtxmO1dosMYdgDH/+5p/EtHo+ETPxgzhyrY/44i/+VMRqbnz0s7vBV99hvCSurZH6iCt9rI3i3DFyxA/52hXnbQzFjuFRP/aIR7YZI0bxW4ZgkSeK9MAnc6zlR67YZSOZ+sKAHuY6XNSxUwkZl7nrHE3in/7DYyvLOgC/fD6MH/3hDIP4jR6u9YfRMvOoCaWhStOvGSZYgAIoQDgPUZBi2hjCuAAE+LZvxrRH7eGRczIYHHD1d42fI1mK6+hELuCMaWVqVzesjw74KQiPIdFFcAIdf3ikn6OAsWBmMaZTgij9hjzba/xMQvyDn3b1kTUPn/Bku8Jeuhjb4pF+ix6DIV+xbxpfMk2qtMMvPnCuXnHeEr6COnqTMYky3gQxhrzWPrKUEJ+lwDcUf7luz12TMeSjHk2rF0P45KaRfgivHOkrltiov2s+dmwJH0VMsM/CC1PHIW7tuI0+p/keUFbSci7x2dFJcnaI/u9NCXER8oasMT6j9PmpBGpX6yUgn10isiZSydW/JZ/TetTss1M7UTtSu1HfE8VzDf5+CNzhD3s4Bnv4iw14x1/a+IC/jWtJH+O1GetmJ9dtP+fGimu8yHBuPL/Sw1GbI37LUGTgh/Cn/7L84BC78MM/vF2H1Jmn5JiDro3TP+PpkuuMC36cEx0XjWs8YSY30VcOIj/X2uiA4Ks/TMxP14vKw+eBGlihthhRLgsPJRjfLlhY6qOEfUBr+60n1XgLnTHGp+CZok/a8VOffi1/dS21erX185wbG/v0h0Frl7bg07YPdZgma8g//YL1vHwyrj0Gn7ZuI85n8W39SFb8pd64UOpz3eKgr8kAg2kUfvBp/THsH5mOOR/2mXS9Ht/hmPBPss5CMuyX9vDPse2Hl6c57uD1d23yWxSGuLXj7sW53ZxHo3Z8XgAytdw+e4wrkdqlSoqLkCiwc8TX42HjJeZJ3xFdj28fUfXHV2HoWqHTv3Rkl+wHG1rV4JhECccUPtDWUq61KdMocTjNL/go8aO41jf1kTNt/DS5w/ro4djaNew3z3V0ozNeaJJ+6RcbWqzSZmzqWxw/F9fVRgYKLv3FHH/Cv8UV/9QP9U195A3X8TlELpdA52E89hkRGBHYWAR8/mSxtxCY7MtM+I3VaOQ2IrCBCLhhmXFjsoGSNozVUjvQDZM+MhoRGBGYG4HcMRuQO/cc52YydvxmI3AfJpENA/Q+tH3BTys2DKqR0YjAiMCCCEiWY8JcELSx+4jAPURg9WH2PRQwsh4RGBEYERgRmBOB++wR5pxW/dp2GxPor61rR8NGBEYE7isEPMIc6b5CYEyg95W7RmVHBEYERgRGBL4pCIwJ9JviiVGPEYERgRGB32QE7sPH119/Ah0fW/wmT5nR9hGBEYERgfsWgf8Hga96NYhwD10AAAAASUVORK5CYII=;" vertex="1" parent="1">
          <mxGeometry x="126" y="755" width="148.08" height="15" as="geometry" />
        </mxCell>
        <mxCell id="JgvuabAU2myaKvdRI82M-32" value="" style="edgeStyle=orthogonalEdgeStyle;rounded=0;orthogonalLoop=1;jettySize=auto;html=1;fontColor=#000000;strokeWidth=2;" edge="1" parent="1" source="JgvuabAU2myaKvdRI82M-28" target="JgvuabAU2myaKvdRI82M-31">
          <mxGeometry relative="1" as="geometry" />
        </mxCell>
        <mxCell id="JgvuabAU2myaKvdRI82M-28" value="&lt;font color=&quot;#000000&quot;&gt;邀请用户入群&lt;/font&gt;" style="rounded=0;whiteSpace=wrap;html=1;fontColor=#CC0000;" vertex="1" parent="1">
          <mxGeometry x="-80" y="328" width="120" height="66" as="geometry" />
        </mxCell>
        <mxCell id="JgvuabAU2myaKvdRI82M-36" value="" style="edgeStyle=orthogonalEdgeStyle;rounded=0;orthogonalLoop=1;jettySize=auto;html=1;fontColor=#000000;strokeWidth=2;" edge="1" parent="1" source="JgvuabAU2myaKvdRI82M-31" target="JgvuabAU2myaKvdRI82M-35">
          <mxGeometry relative="1" as="geometry" />
        </mxCell>
        <mxCell id="JgvuabAU2myaKvdRI82M-41" value="" style="edgeStyle=orthogonalEdgeStyle;rounded=0;orthogonalLoop=1;jettySize=auto;html=1;fontColor=#000000;strokeWidth=2;" edge="1" parent="1" source="JgvuabAU2myaKvdRI82M-31" target="JgvuabAU2myaKvdRI82M-40">
          <mxGeometry relative="1" as="geometry" />
        </mxCell>
        <mxCell id="JgvuabAU2myaKvdRI82M-31" value="撤销邀请" style="rhombus;whiteSpace=wrap;html=1;fontColor=#CC0000;rounded=0;" vertex="1" parent="1">
          <mxGeometry x="-150" y="473" width="80" height="80" as="geometry" />
        </mxCell>
        <mxCell id="JgvuabAU2myaKvdRI82M-35" value="过期" style="rhombus;whiteSpace=wrap;html=1;fontColor=#CC0000;rounded=0;" vertex="1" parent="1">
          <mxGeometry x="-10" y="500" width="80" height="80" as="geometry" />
        </mxCell>
        <mxCell id="JgvuabAU2myaKvdRI82M-37" value="N" style="text;html=1;align=center;verticalAlign=middle;resizable=0;points=[];autosize=1;strokeColor=none;fillColor=none;fontColor=#000000;" vertex="1" parent="1">
          <mxGeometry x="-60" y="490" width="20" height="20" as="geometry" />
        </mxCell>
        <mxCell id="JgvuabAU2myaKvdRI82M-38" value="Y" style="text;html=1;align=center;verticalAlign=middle;resizable=0;points=[];autosize=1;strokeColor=none;fillColor=none;fontColor=#000000;" vertex="1" parent="1">
          <mxGeometry x="-100" y="580" width="20" height="20" as="geometry" />
        </mxCell>
        <mxCell id="JgvuabAU2myaKvdRI82M-40" value="踢人" style="whiteSpace=wrap;html=1;fontColor=#CC0000;rounded=0;" vertex="1" parent="1">
          <mxGeometry x="-80" y="690" width="120" height="60" as="geometry" />
        </mxCell>
        <mxCell id="JgvuabAU2myaKvdRI82M-43" value="修改灰条消息，&lt;br&gt;关闭&quot;撤销邀请&quot;入口" style="text;html=1;align=center;verticalAlign=middle;resizable=0;points=[];autosize=1;strokeColor=none;fillColor=none;fontColor=#000000;" vertex="1" parent="1">
          <mxGeometry x="650" y="540" width="120" height="30" as="geometry" />
        </mxCell>
        <mxCell id="JgvuabAU2myaKvdRI82M-44" value="" style="endArrow=classic;html=1;rounded=0;strokeWidth=2;" edge="1" parent="1">
          <mxGeometry width="50" height="50" relative="1" as="geometry">
            <mxPoint x="376.99999999999994" y="524" as="sourcePoint" />
            <mxPoint x="637" y="524" as="targetPoint" />
          </mxGeometry>
        </mxCell>
        <mxCell id="JgvuabAU2myaKvdRI82M-45" value="" style="endArrow=classic;html=1;rounded=0;strokeWidth=2;" edge="1" parent="1">
          <mxGeometry width="50" height="50" relative="1" as="geometry">
            <mxPoint x="376" y="695" as="sourcePoint" />
            <mxPoint x="636" y="695" as="targetPoint" />
          </mxGeometry>
        </mxCell>
        <mxCell id="JgvuabAU2myaKvdRI82M-46" value="修改灰条消息，&lt;br&gt;关闭&quot;撤销邀请&quot;入口" style="text;html=1;align=center;verticalAlign=middle;resizable=0;points=[];autosize=1;strokeColor=none;fillColor=none;fontColor=#000000;" vertex="1" parent="1">
          <mxGeometry x="650" y="705" width="120" height="30" as="geometry" />
        </mxCell>
        <mxCell id="JgvuabAU2myaKvdRI82M-47" value="踢人" style="text;html=1;align=center;verticalAlign=middle;resizable=0;points=[];autosize=1;strokeColor=none;fillColor=none;fontColor=#000000;" vertex="1" parent="1">
          <mxGeometry x="370" y="755" width="40" height="20" as="geometry" />
        </mxCell>
      </root>
    </mxGraphModel>
  </diagram>
</mxfile>
